<svg width="38" height="38" viewBox="0 0 38 38" fill="none" xmlns="http://www.w3.org/2000/svg">
<path fill-rule="evenodd" clip-rule="evenodd" d="M14.25 7.125C14.7802 7.125 15.2462 7.47647 15.3918 7.98627L16.6794 12.4927C17.2429 14.4652 18.7848 16.0071 20.7573 16.5706L25.2637 17.8582C25.7735 18.0038 26.125 18.4698 26.125 19C26.125 19.5302 25.7735 19.9962 25.2637 20.1418L20.7573 21.4294C18.7848 21.9929 17.2429 23.5348 16.6794 25.5073L15.3918 30.0137C15.2462 30.5235 14.7802 30.875 14.25 30.875C13.7198 30.875 13.2538 30.5235 13.1082 30.0137L11.8206 25.5073C11.2571 23.5348 9.71522 21.9929 7.74273 21.4294L3.23627 20.1418C2.72647 19.9962 2.375 19.5302 2.375 19C2.375 18.4698 2.72647 18.0038 3.23627 17.8582L7.74274 16.5706C9.71522 16.0071 11.2571 14.4652 11.8206 12.4927L13.1082 7.98627C13.2538 7.47647 13.7198 7.125 14.25 7.125Z" fill="#141420"/>
<path fill-rule="evenodd" clip-rule="evenodd" d="M28.5 2.375C29.0449 2.375 29.5199 2.74585 29.652 3.27449L30.0619 4.91397C30.4342 6.40309 31.5969 7.5658 33.086 7.93809L34.7255 8.34796C35.2541 8.48011 35.625 8.95509 35.625 9.5C35.625 10.0449 35.2541 10.5199 34.7255 10.652L33.086 11.0619C31.5969 11.4342 30.4342 12.5969 30.0619 14.086L29.652 15.7255C29.5199 16.2541 29.0449 16.625 28.5 16.625C27.9551 16.625 27.4801 16.2541 27.348 15.7255L26.9381 14.086C26.5658 12.5969 25.4031 11.4342 23.914 11.0619L22.2745 10.652C21.7459 10.5199 21.375 10.0449 21.375 9.5C21.375 8.95509 21.7459 8.48011 22.2745 8.34796L23.914 7.93809C25.4031 7.56581 26.5658 6.40309 26.9381 4.91397L27.348 3.27449C27.4801 2.74585 27.9551 2.375 28.5 2.375Z" fill="#141420"/>
<path fill-rule="evenodd" clip-rule="evenodd" d="M26.125 23.75C26.6361 23.75 27.0899 24.0771 27.2516 24.562L27.8758 26.4346C28.1122 27.1438 28.6687 27.7003 29.3779 27.9367L31.2505 28.5609C31.7354 28.7226 32.0625 29.1764 32.0625 29.6875C32.0625 30.1986 31.7354 30.6524 31.2505 30.8141L29.3779 31.4383C28.6687 31.6747 28.1122 32.2312 27.8758 32.9404L27.2516 34.813C27.0899 35.2979 26.6361 35.625 26.125 35.625C25.6139 35.625 25.1601 35.2979 24.9984 34.813L24.3742 32.9404C24.1378 32.2312 23.5813 31.6747 22.8721 31.4383L20.9995 30.8141C20.5146 30.6524 20.1875 30.1986 20.1875 29.6875C20.1875 29.1764 20.5146 28.7226 20.9995 28.5609L22.8721 27.9367C23.5813 27.7003 24.1378 27.1438 24.3742 26.4346L24.9984 24.562C25.1601 24.0771 25.6139 23.75 26.125 23.75Z" fill="#141420"/>
</svg>
