<svg width="30" height="29" viewBox="0 0 30 29" fill="none" xmlns="http://www.w3.org/2000/svg">
<path fill-rule="evenodd" clip-rule="evenodd" d="M17.8125 0C17.2823 0 16.8163 0.351473 16.6707 0.861269L15.3831 5.36774C14.8196 7.34022 13.2777 8.88206 11.3052 9.44563L6.79877 10.7332C6.28897 10.8788 5.9375 11.3448 5.9375 11.875C5.9375 12.4052 6.28897 12.8712 6.79877 13.0168L11.3052 14.3044C13.2777 14.8679 14.8196 16.4098 15.3831 18.3823L16.6707 22.8887C16.8163 23.3985 17.2823 23.75 17.8125 23.75C18.3427 23.75 18.8087 23.3985 18.9543 22.8887L20.2419 18.3823C20.8054 16.4098 22.3473 14.8679 24.3198 14.3044L28.8262 13.0168C29.336 12.8712 29.6875 12.4052 29.6875 11.875C29.6875 11.3448 29.336 10.8788 28.8262 10.7332L24.3198 9.44563C22.3473 8.88206 20.8054 7.34022 20.2419 5.36773L18.9543 0.861269C18.8087 0.351473 18.3427 0 17.8125 0ZM4.81094 17.437C4.97257 16.9521 5.42636 16.625 5.9375 16.625C6.44864 16.625 6.90243 16.9521 7.06406 17.437L7.68828 19.3096C7.92468 20.0188 8.48118 20.5753 9.19036 20.8117L11.063 21.4359C11.5479 21.5976 11.875 22.0514 11.875 22.5625C11.875 23.0736 11.5479 23.5274 11.063 23.6891L9.19036 24.3133C8.48118 24.5497 7.92468 25.1062 7.68828 25.8154L7.06406 27.688C6.90243 28.1729 6.44864 28.5 5.9375 28.5C5.42636 28.5 4.97257 28.1729 4.81094 27.688L4.18672 25.8154C3.95032 25.1062 3.39382 24.5497 2.68464 24.3133L0.81198 23.6891C0.327074 23.5274 0 23.0736 0 22.5625C0 22.0514 0.327074 21.5976 0.81198 21.4359L2.68464 20.8117C3.39382 20.5753 3.95032 20.0188 4.18672 19.3096L4.81094 17.437Z" fill="#141420"/>
</svg>
