<svg width="40" height="40" viewBox="0 0 40 40" fill="none" xmlns="http://www.w3.org/2000/svg">
<path d="M25 28.3333H33.3333L30.9917 25.9917C30.6772 25.6771 30.4278 25.3037 30.2576 24.8928C30.0875 24.4819 29.9999 24.0414 30 23.5967V18.3333C30.0002 16.2649 29.3593 14.2472 28.1654 12.5581C26.9715 10.8691 25.2833 9.59161 23.3333 8.90167V8.33333C23.3333 7.44928 22.9821 6.60143 22.357 5.97631C21.7319 5.35119 20.884 5 20 5C19.1159 5 18.2681 5.35119 17.643 5.97631C17.0178 6.60143 16.6667 7.44928 16.6667 8.33333V8.90167C12.7833 10.275 9.99999 13.98 9.99999 18.3333V23.5983C9.99999 24.495 9.64332 25.3567 9.00832 25.9917L6.66666 28.3333H15M25 28.3333V30C25 31.3261 24.4732 32.5979 23.5355 33.5355C22.5978 34.4732 21.3261 35 20 35C18.6739 35 17.4021 34.4732 16.4645 33.5355C15.5268 32.5979 15 31.3261 15 30V28.3333M25 28.3333H15" stroke="#5F6368" stroke-width="3" stroke-linecap="round" stroke-linejoin="round"/>
</svg>
