<svg width="32" height="34" viewBox="0 0 32 34" fill="none" xmlns="http://www.w3.org/2000/svg">
<path d="M20.615 25.47C23.7203 25.1023 26.7714 24.3695 29.705 23.2867C27.2206 20.5347 25.8478 16.9575 25.8533 13.25V12C25.8533 9.34783 24.7998 6.8043 22.9244 4.92893C21.049 3.05357 18.5055 2 15.8533 2C13.2012 2 10.6576 3.05357 8.78227 4.92893C6.9069 6.8043 5.85333 9.34783 5.85333 12V13.25C5.85836 16.9577 4.48498 20.5349 2 23.2867C4.88833 24.3533 7.93333 25.095 11.0917 25.47M20.615 25.47C17.4516 25.8452 14.255 25.8452 11.0917 25.47M20.615 25.47C20.8552 26.2198 20.9149 27.0157 20.7893 27.7929C20.6637 28.5701 20.3564 29.3067 19.8923 29.9426C19.4282 30.5786 18.8205 31.096 18.1187 31.4527C17.4168 31.8094 16.6406 31.9953 15.8533 31.9953C15.066 31.9953 14.2899 31.8094 13.588 31.4527C12.8862 31.096 12.2785 30.5786 11.8144 29.9426C11.3503 29.3067 11.0429 28.5701 10.9174 27.7929C10.7918 27.0157 10.8515 26.2198 11.0917 25.47" stroke="#5F6368" stroke-width="3" stroke-linecap="round" stroke-linejoin="round"/>
</svg>
