<svg width="16" height="10" viewBox="0 0 16 10" fill="none" xmlns="http://www.w3.org/2000/svg">
<path d="M7.97933 7.07317L14.1043 0.948171C14.3127 0.739838 14.5592 0.639144 14.8439 0.646088C15.1286 0.653032 15.3752 0.760671 15.5835 0.969005C15.7918 1.17734 15.896 1.42387 15.896 1.70859C15.896 1.99331 15.7918 2.23984 15.5835 2.44817L9.16683 8.844C9.00016 9.01067 8.81266 9.13567 8.60433 9.219C8.396 9.30234 8.18766 9.344 7.97933 9.344C7.771 9.344 7.56266 9.30234 7.35433 9.219C7.146 9.13567 6.9585 9.01067 6.79183 8.844L0.375163 2.42734C0.16683 2.219 0.0661345 1.97595 0.0730791 1.69817C0.0800238 1.42039 0.187663 1.17734 0.395996 0.969005C0.604329 0.760671 0.850858 0.656505 1.13558 0.656505C1.4203 0.656505 1.66683 0.760671 1.87516 0.969005L7.97933 7.07317Z" fill="#5F6368"/>
</svg>
