<svg width="40" height="40" viewBox="0 0 40 40" fill="none" xmlns="http://www.w3.org/2000/svg">
<mask id="mask0_350_1753" style="mask-type:alpha" maskUnits="userSpaceOnUse" x="0" y="0" width="40" height="40">
<rect width="40" height="40" fill="#000"/>
</mask>
<g mask="url(#mask0_350_1753)">
<path d="M15.9167 20L28.1667 32.25C28.5834 32.6667 28.7848 33.1528 28.7709 33.7083C28.757 34.2639 28.5417 34.75 28.125 35.1667C27.7084 35.5833 27.2223 35.7917 26.6667 35.7917C26.1111 35.7917 25.625 35.5833 25.2084 35.1667L12.375 22.375C12.0417 22.0417 11.7917 21.6667 11.625 21.25C11.4584 20.8333 11.375 20.4167 11.375 20C11.375 19.5833 11.4584 19.1667 11.625 18.75C11.7917 18.3333 12.0417 17.9583 12.375 17.625L25.2084 4.79167C25.625 4.375 26.1181 4.17361 26.6875 4.1875C27.257 4.20139 27.75 4.41667 28.1667 4.83333C28.5834 5.25 28.7917 5.73611 28.7917 6.29167C28.7917 6.84722 28.5834 7.33333 28.1667 7.75L15.9167 20Z" fill="#000"/>
</g>
</svg>
