<svg width="40" height="40" viewBox="0 0 40 40" fill="none" xmlns="http://www.w3.org/2000/svg">
<mask id="mask0_350_1762" style="mask-type:alpha" maskUnits="userSpaceOnUse" x="0" y="0" width="40" height="40">
<rect width="40" height="40" fill="#D9D9D9"/>
</mask>
<g mask="url(#mask0_350_1762)">
<path d="M24.125 20L11.875 7.75001C11.4583 7.33334 11.2569 6.84028 11.2708 6.27084C11.2847 5.70139 11.5 5.20834 11.9166 4.79167C12.3333 4.37501 12.8264 4.16667 13.3958 4.16667C13.9653 4.16667 14.4583 4.37501 14.875 4.79167L27.6666 17.625C28 17.9583 28.25 18.3333 28.4166 18.75C28.5833 19.1667 28.6666 19.5833 28.6666 20C28.6666 20.4167 28.5833 20.8333 28.4166 21.25C28.25 21.6667 28 22.0417 27.6666 22.375L14.8333 35.2083C14.4166 35.625 13.9305 35.8264 13.375 35.8125C12.8194 35.7986 12.3333 35.5833 11.9166 35.1667C11.5 34.75 11.2916 34.2569 11.2916 33.6875C11.2916 33.1181 11.5 32.625 11.9166 32.2083L24.125 20Z" fill="#1C1B1F"/>
</g>
</svg>
