<svg width="40" height="40" viewBox="0 0 40 40" fill="none" xmlns="http://www.w3.org/2000/svg">
<path d="M17.5279 22.8054L13.6113 18.8888C13.3426 18.6204 13.0139 18.4908 12.625 18.5C12.2361 18.5092 11.9074 18.6481 11.6387 18.9167C11.3704 19.1853 11.2363 19.514 11.2363 19.9029C11.2363 20.2918 11.3704 20.6204 11.6387 20.8888L16.5554 25.7779C16.8332 26.0557 17.1574 26.1946 17.5279 26.1946C17.8982 26.1946 18.2222 26.0557 18.5 25.7779L28.5 15.7779C28.7686 15.5093 28.9029 15.1806 28.9029 14.7917C28.9029 14.4028 28.7686 14.074 28.5 13.8054C28.2314 13.5371 27.9026 13.4029 27.5138 13.4029C27.1249 13.4029 26.7962 13.5371 26.5279 13.8054L17.5279 22.8054ZM7.77792 35C7.02792 35 6.37736 34.7246 5.82625 34.1737C5.27542 33.6226 5 32.9721 5 32.2221V7.77792C5 7.02792 5.27542 6.37736 5.82625 5.82625C6.37736 5.27542 7.02792 5 7.77792 5H32.2221C32.9721 5 33.6226 5.27542 34.1737 5.82625C34.7246 6.37736 35 7.02792 35 7.77792V32.2221C35 32.9721 34.7246 33.6226 34.1737 34.1737C33.6226 34.7246 32.9721 35 32.2221 35H7.77792ZM7.77792 32.2221H32.2221V7.77792H7.77792V32.2221Z" fill="#5F6368"/>
</svg>
