<svg width="40" height="40" viewBox="0 0 40 40" fill="none" xmlns="http://www.w3.org/2000/svg">
<mask id="mask0_29_137" style="mask-type:alpha" maskUnits="userSpaceOnUse" x="0" y="0" width="40" height="40">
<rect width="40" height="40" fill="#D9D9D9"/>
</mask>
<g mask="url(#mask0_29_137)">
<path d="M20.0001 22.3333L11.8334 30.5C11.5279 30.8055 11.139 30.9583 10.6667 30.9583C10.1945 30.9583 9.80564 30.8055 9.50008 30.5C9.19453 30.1944 9.04175 29.8055 9.04175 29.3333C9.04175 28.8611 9.19453 28.4722 9.50008 28.1667L17.6667 20L9.50008 11.8333C9.19453 11.5278 9.04175 11.1389 9.04175 10.6666C9.04175 10.1944 9.19453 9.80554 9.50008 9.49998C9.80564 9.19443 10.1945 9.04165 10.6667 9.04165C11.139 9.04165 11.5279 9.19443 11.8334 9.49998L20.0001 17.6666L28.1667 9.49998C28.4723 9.19443 28.8612 9.04165 29.3334 9.04165C29.8056 9.04165 30.1945 9.19443 30.5001 9.49998C30.8056 9.80554 30.9584 10.1944 30.9584 10.6666C30.9584 11.1389 30.8056 11.5278 30.5001 11.8333L22.3334 20L30.5001 28.1667C30.8056 28.4722 30.9584 28.8611 30.9584 29.3333C30.9584 29.8055 30.8056 30.1944 30.5001 30.5C30.1945 30.8055 29.8056 30.9583 29.3334 30.9583C28.8612 30.9583 28.4723 30.8055 28.1667 30.5L20.0001 22.3333Z" fill="#5F6368"/>
</g>
</svg>
