<svg width="22" height="22" viewBox="0 0 22 22" fill="none" xmlns="http://www.w3.org/2000/svg">
<path d="M11.0003 13.3333L2.83366 21.5C2.5281 21.8055 2.13921 21.9583 1.66699 21.9583C1.19477 21.9583 0.805881 21.8055 0.500326 21.5C0.19477 21.1944 0.0419922 20.8055 0.0419922 20.3333C0.0419922 19.8611 0.19477 19.4722 0.500326 19.1666L8.66699 11L0.500326 2.83329C0.19477 2.52774 0.0419922 2.13885 0.0419922 1.66663C0.0419922 1.1944 0.19477 0.805515 0.500326 0.499959C0.805881 0.194404 1.19477 0.041626 1.66699 0.041626C2.13921 0.041626 2.5281 0.194404 2.83366 0.499959L11.0003 8.66663L19.167 0.499959C19.4725 0.194404 19.8614 0.041626 20.3337 0.041626C20.8059 0.041626 21.1948 0.194404 21.5003 0.499959C21.8059 0.805515 21.9587 1.1944 21.9587 1.66663C21.9587 2.13885 21.8059 2.52774 21.5003 2.83329L13.3337 11L21.5003 19.1666C21.8059 19.4722 21.9587 19.8611 21.9587 20.3333C21.9587 20.8055 21.8059 21.1944 21.5003 21.5C21.1948 21.8055 20.8059 21.9583 20.3337 21.9583C19.8614 21.9583 19.4725 21.8055 19.167 21.5L11.0003 13.3333Z" fill="#77777B"/>
</svg>
