<svg width="12" height="12" viewBox="0 0 12 12" fill="none" xmlns="http://www.w3.org/2000/svg">
<mask id="mask0_530_5369" style="mask-type:alpha" maskUnits="userSpaceOnUse" x="0" y="0" width="12" height="12">
<rect width="12" height="12" fill="#D9D9D9"/>
</mask>
<g mask="url(#mask0_530_5369)">
<path d="M5.99365 4.74999L2.31865 8.42499C2.19365 8.54999 2.04574 8.61041 1.8749 8.60624C1.70407 8.60208 1.55615 8.53749 1.43115 8.41249C1.30615 8.28749 1.24365 8.13958 1.24365 7.96874C1.24365 7.79791 1.30615 7.64999 1.43115 7.52499L5.28115 3.68749C5.38115 3.58749 5.49365 3.51249 5.61865 3.46249C5.74365 3.41249 5.86865 3.38749 5.99365 3.38749C6.11865 3.38749 6.24365 3.41249 6.36865 3.46249C6.49365 3.51249 6.60615 3.58749 6.70615 3.68749L10.5562 7.53749C10.6812 7.66249 10.7416 7.80833 10.7374 7.97499C10.7332 8.14166 10.6687 8.28749 10.5437 8.41249C10.4187 8.53749 10.2707 8.59999 10.0999 8.59999C9.92907 8.59999 9.78115 8.53749 9.65615 8.41249L5.99365 4.74999Z" fill="#5F6368"/>
</g>
</svg>
