<svg width="12" height="12" viewBox="0 0 12 12" fill="none" xmlns="http://www.w3.org/2000/svg">
<mask id="mask0_530_5279" style="mask-type:alpha" maskUnits="userSpaceOnUse" x="0" y="0" width="12" height="12">
<rect width="12" height="12" fill="#D9D9D9"/>
</mask>
<g mask="url(#mask0_530_5279)">
<path d="M5.9873 7.24394L9.6623 3.56894C9.7873 3.44394 9.93522 3.38352 10.1061 3.38769C10.2769 3.39186 10.4248 3.45644 10.5498 3.58144C10.6748 3.70644 10.7373 3.85436 10.7373 4.02519C10.7373 4.19602 10.6748 4.34394 10.5498 4.46894L6.6998 8.30644C6.5998 8.40644 6.4873 8.48144 6.3623 8.53144C6.2373 8.58144 6.1123 8.60644 5.9873 8.60644C5.8623 8.60644 5.7373 8.58144 5.6123 8.53144C5.4873 8.48144 5.3748 8.40644 5.2748 8.30644L1.4248 4.45644C1.2998 4.33144 1.23939 4.18561 1.24355 4.01894C1.24772 3.85227 1.3123 3.70644 1.4373 3.58144C1.5623 3.45644 1.71022 3.39394 1.88105 3.39394C2.05189 3.39394 2.1998 3.45644 2.3248 3.58144L5.9873 7.24394Z" fill="#5F6368"/>
</g>
</svg>
