<svg width="34" height="32" viewBox="0 0 34 32" fill="none" xmlns="http://www.w3.org/2000/svg">
<path d="M6.66667 26.6667L2.36125 30.9721C1.92597 31.4074 1.42361 31.5056 0.854167 31.2667C0.284722 31.0275 0 30.6007 0 29.9862V2.77792C0 2.02792 0.275417 1.37736 0.82625 0.826251C1.37736 0.275417 2.02792 0 2.77792 0H30.5554C31.3054 0 31.956 0.275417 32.5071 0.826251C33.0579 1.37736 33.3333 2.02792 33.3333 2.77792V23.8887C33.3333 24.6387 33.0579 25.2893 32.5071 25.8404C31.956 26.3913 31.3054 26.6667 30.5554 26.6667H6.66667ZM5.47208 23.8887H30.5554V2.77792H2.77792V26.7362L5.47208 23.8887ZM9.61125 14.9167C10.0835 14.9167 10.4793 14.7569 10.7988 14.4375C11.1182 14.1181 11.2779 13.7222 11.2779 13.25C11.2779 12.7778 11.1182 12.3819 10.7988 12.0625C10.4793 11.7431 10.0835 11.5833 9.61125 11.5833C9.13903 11.5833 8.7432 11.7431 8.42375 12.0625C8.10431 12.3819 7.94458 12.7778 7.94458 13.25C7.94458 13.7222 8.10431 14.1181 8.42375 14.4375C8.7432 14.7569 9.13903 14.9167 9.61125 14.9167ZM16.75 14.9167C17.2222 14.9167 17.6181 14.7569 17.9375 14.4375C18.2569 14.1181 18.4167 13.7222 18.4167 13.25C18.4167 12.7778 18.2569 12.3819 17.9375 12.0625C17.6181 11.7431 17.2222 11.5833 16.75 11.5833C16.2778 11.5833 15.8819 11.7431 15.5625 12.0625C15.2431 12.3819 15.0833 12.7778 15.0833 13.25C15.0833 13.7222 15.2431 14.1181 15.5625 14.4375C15.8819 14.7569 16.2778 14.9167 16.75 14.9167ZM23.6946 14.9167C24.1668 14.9167 24.5626 14.7569 24.8821 14.4375C25.2015 14.1181 25.3613 13.7222 25.3613 13.25C25.3613 12.7778 25.2015 12.3819 24.8821 12.0625C24.5626 11.7431 24.1668 11.5833 23.6946 11.5833C23.2224 11.5833 22.8265 11.7431 22.5071 12.0625C22.1876 12.3819 22.0279 12.7778 22.0279 13.25C22.0279 13.7222 22.1876 14.1181 22.5071 14.4375C22.8265 14.7569 23.2224 14.9167 23.6946 14.9167Z" fill="#5F6368"/>
</svg>
