<svg width="40" height="40" viewBox="0 0 40 40" fill="none" xmlns="http://www.w3.org/2000/svg">
<mask id="mask0_350_1726" style="mask-type:alpha" maskUnits="userSpaceOnUse" x="0" y="0" width="40" height="40">
<rect width="40" height="40" fill="#000"/>
</mask>
<g mask="url(#mask0_350_1726)">
<path d="M5.83334 33.3333C5.1389 33.3333 4.54862 33.0903 4.06251 32.6042C3.5764 32.1181 3.33334 31.5278 3.33334 30.8333C3.33334 30.1389 3.5764 29.5486 4.06251 29.0625C4.54862 28.5764 5.1389 28.3333 5.83334 28.3333H6.66668V10C6.66668 9.08333 6.99307 8.29861 7.64584 7.64583C8.29862 6.99305 9.08334 6.66666 10 6.66666H33.3333C33.8056 6.66666 34.2014 6.82639 34.5208 7.14583C34.8403 7.46528 35 7.86111 35 8.33333C35 8.80555 34.8403 9.20139 34.5208 9.52083C34.2014 9.84028 33.8056 10 33.3333 10H10V28.3333H17.5C18.1945 28.3333 18.7847 28.5764 19.2708 29.0625C19.757 29.5486 20 30.1389 20 30.8333C20 31.5278 19.757 32.1181 19.2708 32.6042C18.7847 33.0903 18.1945 33.3333 17.5 33.3333H5.83334ZM25 33.3333C24.5278 33.3333 24.132 33.1736 23.8125 32.8542C23.4931 32.5347 23.3333 32.1389 23.3333 31.6667V15C23.3333 14.5278 23.4931 14.1319 23.8125 13.8125C24.132 13.4931 24.5278 13.3333 25 13.3333H35C35.4722 13.3333 35.8681 13.4931 36.1875 13.8125C36.507 14.1319 36.6667 14.5278 36.6667 15V31.6667C36.6667 32.1389 36.507 32.5347 36.1875 32.8542C35.8681 33.1736 35.4722 33.3333 35 33.3333H25ZM26.6667 28.3333H33.3333V16.6667H26.6667V28.3333Z" fill="#000"/>
</g>
</svg>
