<svg width="34" height="27" viewBox="0 0 34 27" fill="none" xmlns="http://www.w3.org/2000/svg">
<path d="M2.08333 26.6667C1.50472 26.6667 1.01278 26.4636 0.6075 26.0575C0.2025 25.6514 0 25.1583 0 24.5783C0 23.9983 0.2025 23.5069 0.6075 23.1042C1.01278 22.7014 1.50472 22.5 2.08333 22.5H3.33333V2.77792C3.33333 2.01403 3.60528 1.36 4.14917 0.815834C4.69333 0.271945 5.34736 0 6.11125 0H30.2779C30.6713 0 31.0011 0.133611 31.2675 0.400833C31.5336 0.667778 31.6667 0.998751 31.6667 1.39375C31.6667 1.78875 31.5336 2.11819 31.2675 2.38208C31.0011 2.64597 30.6713 2.77792 30.2779 2.77792H6.11125V22.5H14.0279C14.6065 22.5 15.0983 22.7031 15.5033 23.1092C15.9086 23.5153 16.1113 24.0083 16.1113 24.5883C16.1113 25.1683 15.9086 25.6597 15.5033 26.0625C15.0983 26.4653 14.6065 26.6667 14.0279 26.6667H2.08333ZM20.2779 26.6667C19.8843 26.6667 19.5544 26.5336 19.2883 26.2675C19.0219 26.0011 18.8888 25.6712 18.8888 25.2779V6.94458C18.8888 6.55097 19.0219 6.22111 19.2883 5.955C19.5544 5.68861 19.8843 5.55542 20.2779 5.55542H31.9446C32.3379 5.55542 32.6678 5.68861 32.9342 5.955C33.2003 6.22111 33.3333 6.55097 33.3333 6.94458V25.2779C33.3333 25.6712 33.2003 26.0011 32.9342 26.2675C32.6678 26.5336 32.3379 26.6667 31.9446 26.6667H20.2779ZM21.6667 22.5H30.5554V8.33333H21.6667V22.5Z" fill="#5F6368"/>
</svg>
