<svg width="45" height="45" viewBox="0 0 45 45" fill="none" xmlns="http://www.w3.org/2000/svg">
<mask id="mask0_29_107" style="mask-type:alpha" maskUnits="userSpaceOnUse" x="0" y="0" width="45" height="45">
<rect width="45" height="45" fill="#D9D9D9"/>
</mask>
<g mask="url(#mask0_29_107)">
<path d="M11.25 35.625H16.875V26.25C16.875 25.7188 17.0547 25.2734 17.4141 24.9141C17.7734 24.5547 18.2188 24.375 18.75 24.375H26.25C26.7812 24.375 27.2266 24.5547 27.5859 24.9141C27.9453 25.2734 28.125 25.7188 28.125 26.25V35.625H33.75V18.75L22.5 10.3125L11.25 18.75V35.625ZM7.5 35.625V18.75C7.5 18.1562 7.63281 17.5938 7.89844 17.0625C8.16406 16.5312 8.53125 16.0938 9 15.75L20.25 7.3125C20.9062 6.8125 21.6562 6.5625 22.5 6.5625C23.3438 6.5625 24.0938 6.8125 24.75 7.3125L36 15.75C36.4688 16.0938 36.8359 16.5312 37.1016 17.0625C37.3672 17.5938 37.5 18.1562 37.5 18.75V35.625C37.5 36.6562 37.1328 37.5391 36.3984 38.2734C35.6641 39.0078 34.7812 39.375 33.75 39.375H26.25C25.7188 39.375 25.2734 39.1953 24.9141 38.8359C24.5547 38.4766 24.375 38.0312 24.375 37.5V28.125H20.625V37.5C20.625 38.0312 20.4453 38.4766 20.0859 38.8359C19.7266 39.1953 19.2812 39.375 18.75 39.375H11.25C10.2188 39.375 9.33594 39.0078 8.60156 38.2734C7.86719 37.5391 7.5 36.6562 7.5 35.625Z" fill="#5F6368"/>
</g>
</svg>
