<svg width="40" height="40" viewBox="0 0 40 40" fill="none" xmlns="http://www.w3.org/2000/svg">
<mask id="mask0_347_1705" style="mask-type:alpha" maskUnits="userSpaceOnUse" x="0" y="0" width="40" height="40">
<rect width="40" height="40" fill="#D9D9D9"/>
</mask>
<g mask="url(#mask0_347_1705)">
<path d="M7.77792 35C7.02792 35 6.37736 34.7246 5.82625 34.1737C5.27542 33.6226 5 32.9721 5 32.2221V7.77792C5 7.02792 5.27542 6.37736 5.82625 5.82625C6.37736 5.27542 7.02792 5 7.77792 5H32.2221C32.9721 5 33.6226 5.27542 34.1737 5.82625C34.7246 6.37736 35 7.02792 35 7.77792V32.2221C35 32.9721 34.7246 33.6226 34.1737 34.1737C33.6226 34.7246 32.9721 35 32.2221 35H7.77792ZM7.77792 32.2221H32.2221V7.77792H7.77792V32.2221ZM11.2779 28.4167H28.75C29.0186 28.4167 29.22 28.2917 29.3542 28.0417C29.4883 27.7917 29.4721 27.5462 29.3054 27.3054L24.5279 20.9304C24.3796 20.7454 24.1943 20.6529 23.9721 20.6529C23.7499 20.6529 23.5647 20.7454 23.4167 20.9304L18.6388 27.1667L15.3613 22.7083C15.2129 22.5231 15.0276 22.4304 14.8054 22.4304C14.5832 22.4304 14.3981 22.5231 14.25 22.7083L10.75 27.3054C10.5647 27.5462 10.5393 27.7917 10.6738 28.0417C10.8079 28.2917 11.0093 28.4167 11.2779 28.4167Z" fill="#5F6368"/>
</g>
</svg>
