<svg width="40" height="40" viewBox="0 0 40 40" fill="none" xmlns="http://www.w3.org/2000/svg">
<mask id="mask0_350_1774" style="mask-type:alpha" maskUnits="userSpaceOnUse" x="0" y="0" width="40" height="40">
<rect width="40" height="40" fill="#000"/>
</mask>
<g mask="url(#mask0_350_1774)">
<path d="M20 26.6667C20.4722 26.6667 20.8681 26.5069 21.1875 26.1875C21.507 25.868 21.6667 25.4722 21.6667 25C21.6667 24.5278 21.507 24.1319 21.1875 23.8125C20.8681 23.493 20.4722 23.3333 20 23.3333C19.5278 23.3333 19.132 23.493 18.8125 23.8125C18.4931 24.1319 18.3334 24.5278 18.3334 25C18.3334 25.4722 18.4931 25.868 18.8125 26.1875C19.132 26.5069 19.5278 26.6667 20 26.6667ZM20 20C20.4722 20 20.8681 19.8403 21.1875 19.5208C21.507 19.2014 21.6667 18.8055 21.6667 18.3333V13.3333C21.6667 12.8611 21.507 12.4653 21.1875 12.1458C20.8681 11.8264 20.4722 11.6667 20 11.6667C19.5278 11.6667 19.132 11.8264 18.8125 12.1458C18.4931 12.4653 18.3334 12.8611 18.3334 13.3333V18.3333C18.3334 18.8055 18.4931 19.2014 18.8125 19.5208C19.132 19.8403 19.5278 20 20 20ZM20 36.5C19.8056 36.5 19.625 36.4861 19.4584 36.4583C19.2917 36.4305 19.125 36.3889 18.9584 36.3333C15.2084 35.0833 12.2222 32.7708 10 29.3958C7.7778 26.0208 6.66669 22.3889 6.66669 18.5V10.625C6.66669 9.93054 6.86808 9.30554 7.27085 8.74999C7.67363 8.19443 8.19446 7.79165 8.83335 7.54165L18.8334 3.79165C19.2222 3.65277 19.6111 3.58332 20 3.58332C20.3889 3.58332 20.7778 3.65277 21.1667 3.79165L31.1667 7.54165C31.8056 7.79165 32.3264 8.19443 32.7292 8.74999C33.132 9.30554 33.3334 9.93054 33.3334 10.625V18.5C33.3334 22.3889 32.2222 26.0208 30 29.3958C27.7778 32.7708 24.7917 35.0833 21.0417 36.3333C20.875 36.3889 20.7084 36.4305 20.5417 36.4583C20.375 36.4861 20.1945 36.5 20 36.5ZM20 33.1667C22.8889 32.25 25.2778 30.4167 27.1667 27.6667C29.0556 24.9167 30 21.8611 30 18.5V10.625L20 6.87499L10 10.625V18.5C10 21.8611 10.9445 24.9167 12.8334 27.6667C14.7222 30.4167 17.1111 32.25 20 33.1667Z" fill="#000"/>
</g>
</svg>
