<svg width="27" height="33" viewBox="0 0 27 33" fill="none" xmlns="http://www.w3.org/2000/svg">
<path d="M13.3333 22.7779C13.7583 22.7779 14.1146 22.6342 14.4021 22.3467C14.6896 22.0592 14.8333 21.7029 14.8333 21.2779C14.8333 20.8529 14.6896 20.4967 14.4021 20.2092C14.1146 19.9217 13.7583 19.7779 13.3333 19.7779C12.9083 19.7779 12.5521 19.9217 12.2646 20.2092C11.9771 20.4967 11.8333 20.8529 11.8333 21.2779C11.8333 21.7029 11.9771 22.0592 12.2646 22.3467C12.5521 22.6342 12.9083 22.7779 13.3333 22.7779ZM13.3383 16.8333C13.7331 16.8333 14.0624 16.7003 14.3263 16.4342C14.5901 16.1678 14.7221 15.8379 14.7221 15.4446V9.69458C14.7221 9.30097 14.5886 8.97111 14.3217 8.705C14.0544 8.43861 13.7233 8.30542 13.3283 8.30542C12.9336 8.30542 12.6043 8.43861 12.3404 8.705C12.0765 8.97111 11.9446 9.30097 11.9446 9.69458V15.4446C11.9446 15.8379 12.0781 16.1678 12.345 16.4342C12.6122 16.7003 12.9433 16.8333 13.3383 16.8333ZM13.3333 33C13.17 33 13.0183 32.9861 12.8783 32.9583C12.7383 32.9306 12.5983 32.8889 12.4583 32.8333C8.63417 31.5464 5.60181 29.2154 3.36125 25.8404C1.12042 22.4654 0 18.7861 0 14.8025V6.73625C0 6.14819 0.167778 5.61889 0.503333 5.14833C0.839167 4.67778 1.27319 4.33667 1.80542 4.125L12.3613 0.180417C12.6946 0.0601396 13.0186 0 13.3333 0C13.6481 0 13.9721 0.0601396 14.3054 0.180417L24.8612 4.125C25.3935 4.33667 25.8275 4.67778 26.1633 5.14833C26.4989 5.61889 26.6667 6.14819 26.6667 6.73625V14.8025C26.6667 18.7861 25.5463 22.4654 23.3054 25.8404C21.0649 29.2154 18.0325 31.5464 14.2083 32.8333C14.0683 32.8889 13.9283 32.9306 13.7883 32.9583C13.6483 32.9861 13.4967 33 13.3333 33ZM13.3333 30.25C16.4258 29.2408 18.9582 27.301 20.9304 24.4304C22.9026 21.5601 23.8888 18.3518 23.8888 14.8054V6.73625L13.3333 2.76375L2.77792 6.73625V14.8054C2.77792 18.3518 3.76403 21.5601 5.73625 24.4304C7.70847 27.301 10.2408 29.2408 13.3333 30.25Z" fill="#5F6368"/>
</svg>
