<svg width="40" height="40" viewBox="0 0 40 40" fill="none" xmlns="http://www.w3.org/2000/svg">
<circle cx="20" cy="20" r="20" fill="#77777B"/>
<path d="M4.85713 14.2857C4.85713 14.2857 11.2789 4.28571 19.7647 18C28.2503 4.28571 34.6743 14.2857 34.6743 14.2857C39.4286 21.4286 28.2503 20.8571 28.2503 20.8571C29.7932 23.3428 32.3065 28.1512 28.2503 32.6064C25.3428 35.8 21.3865 35.8 19.7647 35.8C18.1429 35.8 14.0286 35.8 11.2789 32.6064C7.42172 27.4636 9.65038 23.1714 11.2789 20.8571C11.2789 20.8571 0.571421 21.4286 4.85713 14.2857Z" stroke="white" stroke-width="4.5" stroke-linecap="round" stroke-linejoin="round"/>
<line x1="16.5926" y1="27.0926" x2="15.6641" y2="27.464" stroke="white" stroke-width="3" stroke-linecap="round"/>
<line x1="1.5" y1="-1.5" x2="2.5" y2="-1.5" transform="matrix(0.928477 0.371391 0.371391 -0.928477 22.571 25.1428)" stroke="white" stroke-width="3" stroke-linecap="round"/>
</svg>
