<svg width="32" height="32" viewBox="0 0 32 32" fill="none" xmlns="http://www.w3.org/2000/svg">
<rect x="0.5" y="0.5" width="31" height="31" rx="15.5" fill="white"/>
<rect x="0.5" y="0.5" width="31" height="31" rx="15.5" stroke="#141420"/>
<mask id="mask0_2631_8106" style="mask-type:alpha" maskUnits="userSpaceOnUse" x="4" y="4" width="24" height="23">
<rect x="4.57202" y="4.00006" width="22.856" height="22.856" fill="#D9D9D9"/>
</mask>
<g mask="url(#mask0_2631_8106)">
<path d="M9.9684 25.9035C9.53985 25.9035 9.16813 25.7461 8.85322 25.4314C8.53848 25.1165 8.3811 24.7448 8.3811 24.3162V12.7453C8.3811 12.3168 8.53848 11.9452 8.85322 11.6304C9.16813 11.3157 9.53985 11.1583 9.9684 11.1583H12.8095C13.0344 11.1583 13.2228 11.2346 13.3749 11.3871C13.527 11.5398 13.603 11.729 13.603 11.9547C13.603 12.1802 13.527 12.3684 13.3749 12.5192C13.2228 12.67 13.0344 12.7453 12.8095 12.7453H9.9684V24.3162H22.0311V12.7453H19.1584C18.9335 12.7453 18.745 12.6691 18.593 12.5166C18.4408 12.3639 18.3646 12.1747 18.3646 11.949C18.3646 11.7234 18.4408 11.5353 18.593 11.3845C18.745 11.2337 18.9335 11.1583 19.1584 11.1583H22.0311C22.4597 11.1583 22.8314 11.3157 23.1463 11.6304C23.4611 11.9452 23.6184 12.3168 23.6184 12.7453V24.3162C23.6184 24.7448 23.4611 25.1165 23.1463 25.4314C22.8314 25.7461 22.4597 25.9035 22.0311 25.9035H9.9684ZM15.1903 8.00749L13.8411 9.35671C13.6823 9.51543 13.4972 9.59344 13.2856 9.59074C13.074 9.5882 12.8868 9.50757 12.724 9.34885C12.5746 9.19013 12.4986 9.00228 12.4959 8.78531C12.4934 8.56833 12.5714 8.38049 12.7302 8.22177L15.4284 5.50761C15.5871 5.34889 15.7722 5.26953 15.9838 5.26953C16.1956 5.26953 16.3808 5.34889 16.5395 5.50761L19.2537 8.22177C19.407 8.37525 19.4836 8.56 19.4836 8.77602C19.4836 8.99188 19.409 9.17838 19.2598 9.33552C19.097 9.4925 18.906 9.57098 18.6868 9.57098C18.4674 9.57098 18.2781 9.49162 18.1187 9.3329L16.7776 8.00749V18.0151C16.7776 18.2398 16.7012 18.4283 16.5486 18.5805C16.3959 18.7326 16.2067 18.8086 15.9812 18.8086C15.7555 18.8086 15.5673 18.7326 15.4165 18.5805C15.2657 18.4283 15.1903 18.2398 15.1903 18.0151V8.00749Z" fill="#141420"/>
</g>
</svg>
