<svg width="808" height="441" viewBox="0 0 808 441" fill="none" xmlns="http://www.w3.org/2000/svg">
<path d="M70.6667 199.215C55.0823 195.57 50.9457 179.707 50.8254 172.23V199.215H70.6667Z" fill="#141420"/>
<path d="M30.9841 199.215C46.5685 195.57 50.7052 179.707 50.8254 172.23V199.215H30.9841Z" fill="#141420"/>
<path d="M70.6667 199.215C55.0823 202.859 50.9457 218.723 50.8254 226.199V199.215H70.6667Z" fill="#141420"/>
<path d="M30.9841 199.215C46.5685 202.859 50.7052 218.723 50.8254 226.199V199.215H30.9841Z" fill="#141420"/>
<path d="M50.8254 172.23C50.9457 179.707 55.0823 195.57 70.6667 199.215M50.8254 172.23V199.215M50.8254 172.23C50.7052 179.707 46.5685 195.57 30.9841 199.215M70.6667 199.215H50.8254M70.6667 199.215C55.0823 202.859 50.9457 218.723 50.8254 226.199M50.8254 199.215H30.9841M50.8254 199.215V226.199M30.9841 199.215C46.5685 202.859 50.7052 218.723 50.8254 226.199" stroke="#141420" stroke-width="3.1746" stroke-linejoin="round"/>
<path d="M45.2698 239.691C34.6724 237.225 31.8595 226.494 31.7777 221.437V239.691H45.2698Z" fill="#141420"/>
<path d="M18.2856 239.691C28.883 237.225 31.6959 226.494 31.7777 221.437V239.691H18.2856Z" fill="#141420"/>
<path d="M45.2698 239.691C34.6724 242.156 31.8595 252.887 31.7777 257.945V239.691H45.2698Z" fill="#141420"/>
<path d="M18.2856 239.691C28.883 242.156 31.6959 252.887 31.7777 257.945V239.691H18.2856Z" fill="#141420"/>
<path d="M31.7777 221.437C31.8595 226.494 34.6724 237.225 45.2698 239.691M31.7777 221.437V239.691M31.7777 221.437C31.6959 226.494 28.883 237.225 18.2856 239.691M45.2698 239.691H31.7777M45.2698 239.691C34.6724 242.156 31.8595 252.887 31.7777 257.945M31.7777 239.691H18.2856M31.7777 239.691V257.945M18.2856 239.691C28.883 242.156 31.6959 252.887 31.7777 257.945" stroke="#141420" stroke-width="3.1746" stroke-linejoin="round"/>
<line x1="183.038" y1="11.2289" x2="174.658" y2="29.1949" stroke="#141420" stroke-width="11.1111" stroke-linecap="round"/>
<line x1="195.025" y1="32.8829" x2="144.343" y2="141.553" stroke="#141420" stroke-width="11.1111" stroke-linecap="round"/>
<line x1="140.949" y1="79.9465" x2="90.2669" y2="188.617" stroke="#141420" stroke-width="11.1111" stroke-linecap="round"/>
<line x1="119.752" y1="168.447" x2="79.069" y2="255.678" stroke="#141420" stroke-width="11.1111" stroke-linecap="round"/>
<line x1="142.397" y1="162.945" x2="124.788" y2="200.701" stroke="#141420" stroke-width="11.1111" stroke-linecap="round"/>
<line x1="117.015" y1="217.368" x2="112.481" y2="227.088" stroke="#141420" stroke-width="11.1111" stroke-linecap="round"/>
<path fill-rule="evenodd" clip-rule="evenodd" d="M296.757 231.09C334.849 150.143 280.784 88.8195 280.784 88.8195C280.784 88.8195 224.261 18.9109 135.791 66.7431C196 71.649 219.346 109.669 219.346 109.669C219.346 109.669 243.921 145.237 227.947 194.296C212.373 242.128 170.196 247.034 170.196 247.034C170.196 247.034 119.817 259.299 70.6667 212.693C82.2166 261.368 118.063 317.629 211.973 300.998C211.973 300.998 266.169 296.093 296.757 231.09ZM281.169 241.163C285.481 242.751 290.425 240.105 292.212 235.254C293.998 230.403 291.95 225.183 287.638 223.595C283.326 222.007 278.382 224.652 276.596 229.504C274.809 234.355 276.857 239.575 281.169 241.163ZM271.701 246.267C270.311 250.04 265.963 251.913 261.989 250.449C258.015 248.986 255.92 244.741 257.309 240.968C258.699 237.194 263.047 235.321 267.021 236.785C270.995 238.248 273.09 242.493 271.701 246.267ZM293.679 192.956C297.112 192.378 299.332 188.57 298.639 184.451C297.946 180.332 294.601 177.461 291.168 178.039C287.735 178.616 285.514 182.424 286.208 186.544C286.901 190.663 290.246 193.534 293.679 192.956ZM309.2 171.956C310.06 177.064 307.454 181.76 303.38 182.446C299.305 183.132 295.306 179.547 294.446 174.439C293.586 169.331 296.192 164.634 300.266 163.948C304.34 163.263 308.34 166.847 309.2 171.956ZM292.937 164.912C300.085 162.937 303.674 153.35 300.951 143.5C298.229 133.65 290.227 127.267 283.079 129.243C275.931 131.218 272.342 140.805 275.065 150.655C277.787 160.504 285.789 166.888 292.937 164.912Z" fill="#141420"/>
<path d="M280.784 88.8195L278.315 90.8155C278.343 90.8506 278.372 90.8851 278.402 90.9189L280.784 88.8195ZM296.757 231.09L299.63 232.441L296.757 231.09ZM135.791 66.7431L134.281 63.9505C133.045 64.6189 132.395 66.0207 132.684 67.396C132.973 68.7714 134.132 69.793 135.533 69.9072L135.791 66.7431ZM219.346 109.669L216.641 111.331C216.67 111.379 216.702 111.427 216.734 111.474L219.346 109.669ZM227.947 194.296L230.966 195.279L227.947 194.296ZM170.196 247.034L169.829 243.881C169.7 243.896 169.571 243.919 169.445 243.949L170.196 247.034ZM70.6667 212.693L72.8511 210.389C71.8321 209.423 70.2995 209.241 69.0826 209.942C67.8657 210.642 67.2537 212.059 67.5779 213.426L70.6667 212.693ZM211.973 300.998L211.687 297.837C211.598 297.845 211.508 297.857 211.42 297.872L211.973 300.998ZM292.212 235.254L295.191 236.351L292.212 235.254ZM287.638 223.595L286.541 226.574L287.638 223.595ZM261.989 250.449L260.892 253.428H260.892L261.989 250.449ZM271.701 246.267L274.68 247.364L271.701 246.267ZM267.021 236.785L268.118 233.806H268.118L267.021 236.785ZM298.639 184.451L295.508 184.978L298.639 184.451ZM293.679 192.956L293.152 189.825H293.152L293.679 192.956ZM291.168 178.039L290.641 174.908L291.168 178.039ZM286.208 186.544L283.077 187.071V187.071L286.208 186.544ZM309.2 171.956L306.069 172.482L309.2 171.956ZM300.266 163.948L299.739 160.818L300.266 163.948ZM300.951 143.5L297.891 144.346V144.346L300.951 143.5ZM292.937 164.912L293.783 167.972H293.783L292.937 164.912ZM283.079 129.243L283.925 132.302H283.925L283.079 129.243ZM275.065 150.655L278.125 149.809L275.065 150.655ZM280.784 88.8195C278.402 90.9189 278.401 90.918 278.401 90.9173C278.401 90.9174 278.4 90.9169 278.401 90.9171C278.401 90.9174 278.402 90.9186 278.404 90.9207C278.408 90.925 278.415 90.933 278.425 90.9447C278.445 90.9681 278.478 91.0061 278.523 91.0588C278.613 91.164 278.751 91.3274 278.932 91.5477C279.296 91.9884 279.834 92.6564 280.511 93.5417C281.866 95.3126 283.776 97.9502 285.959 101.373C290.329 108.223 295.773 118.192 300.053 130.632C308.597 155.469 312.509 190.16 293.885 229.738L299.63 232.441C319.097 191.073 315.022 154.628 306.057 128.567C301.581 115.557 295.89 105.137 291.313 97.959C289.022 94.3681 287.006 91.5824 285.554 89.6835C284.827 88.7339 284.241 88.0054 283.831 87.5082C283.626 87.2596 283.465 87.0688 283.352 86.937C283.296 86.8712 283.252 86.82 283.22 86.7838C283.205 86.7657 283.192 86.7513 283.183 86.7407C283.178 86.7354 283.174 86.731 283.171 86.7276C283.17 86.7259 283.168 86.724 283.167 86.7231C283.166 86.7215 283.165 86.7201 280.784 88.8195ZM137.3 69.5356C180.563 46.1456 215.756 51.5991 240.145 62.7322C252.398 68.3253 261.975 75.3803 268.487 81.0398C271.74 83.8669 274.219 86.3374 275.875 88.0896C276.703 88.9654 277.324 89.6609 277.733 90.1305C277.937 90.3654 278.088 90.5436 278.186 90.6597C278.234 90.7177 278.27 90.7602 278.291 90.7864C278.302 90.7995 278.309 90.8085 278.313 90.8134C278.315 90.8159 278.316 90.8172 278.317 90.8176C278.317 90.8178 278.316 90.8172 278.316 90.8173C278.316 90.8165 278.315 90.8155 280.784 88.8195C283.252 86.8235 283.251 86.822 283.249 86.8201C283.249 86.8191 283.247 86.817 283.245 86.815C283.242 86.8111 283.238 86.8062 283.233 86.8002C283.223 86.7882 283.21 86.7719 283.193 86.7516C283.16 86.711 283.113 86.6539 283.052 86.5811C282.93 86.4356 282.753 86.2272 282.522 85.9616C282.059 85.4306 281.38 84.6708 280.489 83.7285C278.709 81.8444 276.08 79.227 272.652 76.2475C265.801 70.2939 255.718 62.8613 242.782 56.9563C216.792 45.093 179.489 39.5083 134.281 63.9505L137.3 69.5356ZM219.346 109.669C222.051 108.008 222.05 108.007 222.049 108.005C222.049 108.004 222.048 108.002 222.047 108.001C222.045 107.998 222.042 107.994 222.04 107.99C222.035 107.981 222.028 107.971 222.02 107.957C222.003 107.931 221.981 107.896 221.953 107.852C221.897 107.764 221.817 107.641 221.714 107.485C221.506 107.173 221.203 106.729 220.801 106.17C219.996 105.053 218.793 103.477 217.165 101.583C213.909 97.7951 208.948 92.7283 202.063 87.5151C188.274 77.0736 166.82 66.0862 136.048 63.5789L135.533 69.9072C164.971 72.3058 185.294 82.7816 198.23 92.5769C204.708 97.4821 209.346 102.227 212.35 105.721C213.851 107.468 214.942 108.901 215.649 109.882C216.003 110.373 216.26 110.75 216.424 110.997C216.506 111.121 216.565 111.212 216.601 111.268C216.619 111.296 216.631 111.316 216.638 111.326C216.641 111.332 216.643 111.335 216.643 111.335C216.644 111.336 216.644 111.335 216.643 111.335C216.643 111.334 216.642 111.333 216.642 111.333C216.641 111.332 216.641 111.331 219.346 109.669ZM230.966 195.279C239.182 170.044 236.975 148.239 232.697 132.741C230.56 124.998 227.906 118.826 225.775 114.572C224.708 112.444 223.772 110.792 223.093 109.661C222.754 109.095 222.479 108.659 222.284 108.358C222.187 108.207 222.11 108.09 222.055 108.008C222.027 107.967 222.005 107.934 221.989 107.91C221.981 107.899 221.974 107.889 221.969 107.881C221.966 107.877 221.964 107.874 221.962 107.871C221.961 107.87 221.96 107.868 221.96 107.868C221.959 107.866 221.958 107.865 219.346 109.669C216.734 111.474 216.733 111.473 216.733 111.472C216.733 111.472 216.732 111.471 216.732 111.471C216.731 111.47 216.731 111.47 216.732 111.471C216.733 111.472 216.735 111.475 216.738 111.48C216.746 111.491 216.759 111.51 216.777 111.538C216.814 111.593 216.873 111.682 216.952 111.804C217.109 112.048 217.347 112.424 217.648 112.926C218.251 113.932 219.109 115.442 220.098 117.415C222.075 121.363 224.567 127.149 226.577 134.43C230.593 148.981 232.686 169.489 224.929 193.313L230.966 195.279ZM170.196 247.034C170.563 250.187 170.564 250.187 170.566 250.187C170.567 250.187 170.569 250.186 170.571 250.186C170.575 250.186 170.579 250.185 170.584 250.185C170.593 250.184 170.605 250.182 170.62 250.18C170.649 250.177 170.689 250.171 170.738 250.165C170.837 250.152 170.975 250.132 171.151 250.106C171.502 250.052 172.004 249.969 172.638 249.847C173.906 249.603 175.708 249.203 177.907 248.571C182.302 247.307 188.308 245.107 194.817 241.352C207.881 233.816 222.9 220.05 230.966 195.279L224.929 193.313C217.42 216.374 203.563 228.977 191.645 235.852C185.663 239.302 180.152 241.318 176.152 242.469C174.154 243.044 172.539 243.401 171.439 243.612C170.89 243.718 170.469 243.787 170.195 243.829C170.058 243.849 169.958 243.863 169.896 243.872C169.865 243.876 169.844 243.879 169.833 243.88C169.827 243.881 169.824 243.881 169.823 243.881C169.823 243.881 169.823 243.881 169.824 243.881C169.825 243.881 169.826 243.881 169.826 243.881C169.827 243.881 169.829 243.881 170.196 247.034ZM68.4824 214.996C93.587 238.801 119.095 247.638 138.4 250.481C148.037 251.9 156.11 251.824 161.799 251.387C164.645 251.169 166.897 250.86 168.454 250.602C169.233 250.473 169.839 250.356 170.258 250.27C170.468 250.226 170.631 250.191 170.747 250.165C170.804 250.152 170.85 250.141 170.883 250.133C170.9 250.13 170.914 250.126 170.924 250.124C170.929 250.123 170.934 250.121 170.938 250.121C170.94 250.12 170.942 250.12 170.943 250.119C170.945 250.119 170.947 250.118 170.196 247.034C169.445 243.949 169.446 243.949 169.448 243.949C169.448 243.949 169.449 243.948 169.449 243.948C169.45 243.948 169.45 243.948 169.449 243.948C169.447 243.949 169.443 243.95 169.435 243.952C169.419 243.955 169.392 243.962 169.353 243.97C169.275 243.988 169.149 244.016 168.978 244.051C168.635 244.121 168.11 244.223 167.416 244.338C166.026 244.568 163.959 244.854 161.313 245.057C156.02 245.463 148.427 245.54 139.325 244.2C121.153 241.524 96.8967 233.19 72.8511 210.389L68.4824 214.996ZM211.42 297.872C165.196 306.058 133.741 296.257 112.442 278.876C91.0316 261.404 79.4385 235.91 73.7556 211.96L67.5779 213.426C73.4449 238.151 85.5499 265.125 108.428 283.795C131.417 302.555 164.84 312.569 212.527 304.124L211.42 297.872ZM293.885 229.738C278.909 261.563 258.226 278.562 241.39 287.625C232.955 292.165 225.462 294.726 220.105 296.148C217.427 296.859 215.286 297.284 213.832 297.531C213.105 297.654 212.55 297.732 212.186 297.778C212.004 297.802 211.87 297.817 211.786 297.826C211.744 297.831 211.715 297.834 211.698 297.836C211.69 297.836 211.685 297.837 211.683 297.837C211.682 297.837 211.682 297.837 211.683 297.837C211.683 297.837 211.684 297.837 211.684 297.837C211.686 297.837 211.687 297.837 211.973 300.998C212.26 304.16 212.262 304.16 212.264 304.16C212.265 304.16 212.267 304.159 212.269 304.159C212.273 304.159 212.278 304.158 212.284 304.158C212.295 304.157 212.309 304.155 212.327 304.153C212.363 304.15 212.412 304.145 212.473 304.138C212.596 304.125 212.77 304.105 212.993 304.076C213.438 304.019 214.077 303.929 214.892 303.791C216.521 303.515 218.853 303.049 221.734 302.284C227.494 300.755 235.462 298.027 244.399 293.215C262.308 283.575 284.017 265.619 299.63 232.441L293.885 229.738ZM289.233 234.157C287.927 237.703 284.613 239.048 282.266 238.184L280.072 244.142C286.35 246.454 292.924 242.508 295.191 236.351L289.233 234.157ZM286.541 226.574C288.888 227.438 290.538 230.611 289.233 234.157L295.191 236.351C297.458 230.194 295.013 222.927 288.735 220.616L286.541 226.574ZM279.575 230.601C280.88 227.055 284.194 225.71 286.541 226.574L288.735 220.616C282.457 218.304 275.884 222.25 273.616 228.407L279.575 230.601ZM282.266 238.184C279.919 237.32 278.269 234.146 279.575 230.601L273.616 228.407C271.349 234.564 273.794 241.83 280.072 244.142L282.266 238.184ZM260.892 253.428C266.364 255.443 272.631 252.926 274.68 247.364L268.721 245.17C267.991 247.154 265.562 248.382 263.086 247.47L260.892 253.428ZM254.33 239.871C252.282 245.433 255.42 251.414 260.892 253.428L263.086 247.47C260.61 246.559 259.558 244.049 260.288 242.064L254.33 239.871ZM268.118 233.806C262.646 231.791 256.378 234.308 254.33 239.871L260.288 242.064C261.019 240.08 263.448 238.852 265.924 239.764L268.118 233.806ZM274.68 247.364C276.728 241.801 273.59 235.821 268.118 233.806L265.924 239.764C268.4 240.676 269.452 243.185 268.721 245.17L274.68 247.364ZM295.508 184.978C296.005 187.927 294.346 189.624 293.152 189.825L294.206 196.086C299.878 195.132 302.66 189.214 301.77 183.924L295.508 184.978ZM291.695 181.169C292.888 180.968 295.012 182.029 295.508 184.978L301.77 183.924C300.879 178.634 296.313 173.953 290.641 174.908L291.695 181.169ZM289.338 186.017C288.842 183.068 290.501 181.37 291.695 181.169L290.641 174.908C284.969 175.863 282.187 181.781 283.077 187.071L289.338 186.017ZM293.152 189.825C291.958 190.026 289.835 188.966 289.338 186.017L283.077 187.071C283.968 192.36 288.534 197.041 294.206 196.086L293.152 189.825ZM303.907 185.577C310.333 184.495 313.364 177.568 312.33 171.429L306.069 172.482C306.755 176.559 304.575 179.026 302.853 179.316L303.907 185.577ZM291.315 174.966C292.349 181.106 297.48 186.659 303.907 185.577L302.853 179.316C301.131 179.605 298.263 177.989 297.576 173.912L291.315 174.966ZM299.739 160.818C293.312 161.9 290.282 168.827 291.315 174.966L297.576 173.912C296.89 169.836 299.071 167.369 300.793 167.079L299.739 160.818ZM312.33 171.429C311.297 165.289 306.165 159.736 299.739 160.818L300.793 167.079C302.515 166.789 305.383 168.406 306.069 172.482L312.33 171.429ZM297.891 144.346C299.094 148.696 298.864 152.864 297.673 156.046C296.48 159.232 294.443 161.202 292.091 161.852L293.783 167.972C298.58 166.646 301.911 162.835 303.619 158.272C305.328 153.704 305.531 148.155 304.011 142.655L297.891 144.346ZM283.925 132.302C286.276 131.653 289.036 132.297 291.695 134.419C294.351 136.537 296.689 139.996 297.891 144.346L304.011 142.655C302.491 137.155 299.467 132.497 295.655 129.455C291.846 126.417 287.031 124.857 282.233 126.183L283.925 132.302ZM278.125 149.809C276.922 145.459 277.152 141.291 278.344 138.109C279.536 134.922 281.574 132.952 283.925 132.302L282.233 126.183C277.436 127.509 274.105 131.319 272.397 135.883C270.688 140.45 270.485 146 272.005 151.5L278.125 149.809ZM292.091 161.852C289.74 162.502 286.98 161.858 284.321 159.736C281.665 157.617 279.327 154.159 278.125 149.809L272.005 151.5C273.525 157 276.549 161.658 280.361 164.7C284.17 167.738 288.985 169.298 293.783 167.972L292.091 161.852Z" fill="#141420"/>
<path d="M396.857 241.278C342.889 231.754 325.428 261.913 325.428 261.913C276.222 258.738 267.492 292.072 267.492 292.072C218.286 280.167 156.381 315.088 156.381 315.088C156.381 315.088 524.001 315.088 759.555 315.088C746.063 273.024 700.032 278.58 700.032 278.58C691.302 247.627 666.698 250.802 666.698 250.802C662.73 227.786 642.889 227.786 642.889 227.786" stroke="#141420" stroke-width="7.93651" stroke-linecap="round" stroke-linejoin="round"/>
<path d="M329.397 223.818V150.008C339.45 148.685 365.111 148.421 365.111 164.294C365.111 188.103 330.984 181.754 330.984 181.754C342.36 182.019 371.936 188.897 370.667 223.818" stroke="#141420" stroke-width="7.93651" stroke-linecap="round" stroke-linejoin="round"/>
<path d="M419.079 150.008H381.778V223.024H419.079" stroke="#141420" stroke-width="7.93651" stroke-linecap="round" stroke-linejoin="round"/>
<path d="M381.778 186.516H413.524" stroke="#141420" stroke-width="7.93651" stroke-linecap="round" stroke-linejoin="round"/>
<path d="M433.365 223.818L443.294 190.484M477.81 223.818L467.881 190.484M443.294 190.484L455.587 149.215L467.881 190.484M443.294 190.484H467.881" stroke="#141420" stroke-width="7.93651" stroke-linecap="round" stroke-linejoin="round"/>
<path d="M498.445 226.992C486.54 211.119 493.418 193.659 498.445 186.516C498.445 186.516 484.159 151.596 498.445 144.453C498.445 144.453 519.08 136.516 524.635 186.516C530.191 136.516 550.826 144.453 550.826 144.453C566.699 151.596 550.826 186.516 550.826 186.516C555.588 194.188 562.731 212.707 550.826 226.992" stroke="#141420" stroke-width="7.93651" stroke-linecap="round" stroke-linejoin="round"/>
<path d="M612.73 150.008H575.429V223.024H612.73" stroke="#141420" stroke-width="7.93651" stroke-linecap="round" stroke-linejoin="round"/>
<path d="M575.429 186.516H607.175" stroke="#141420" stroke-width="7.93651" stroke-linecap="round" stroke-linejoin="round"/>
<path d="M627.81 223.818V150.008C637.862 148.685 663.524 148.421 663.524 164.294C663.524 188.103 629.397 181.754 629.397 181.754C640.773 182.019 670.349 188.897 669.079 223.818" stroke="#141420" stroke-width="7.93651" stroke-linecap="round" stroke-linejoin="round"/>
<line x1="192.859" y1="331.193" x2="165.352" y2="390.173" stroke="#141420" stroke-width="11.1111" stroke-linecap="round"/>
<line x1="270.637" y1="375.637" x2="243.129" y2="434.617" stroke="#141420" stroke-width="11.1111" stroke-linecap="round"/>
<line x1="310.319" y1="355.002" x2="282.812" y2="413.982" stroke="#141420" stroke-width="11.1111" stroke-linecap="round"/>
<line x1="448.415" y1="331.193" x2="420.907" y2="390.173" stroke="#141420" stroke-width="11.1111" stroke-linecap="round"/>
<line x1="521.43" y1="355.002" x2="493.923" y2="413.982" stroke="#141420" stroke-width="11.1111" stroke-linecap="round"/>
<line x1="657.939" y1="331.193" x2="630.431" y2="390.173" stroke="#141420" stroke-width="11.1111" stroke-linecap="round"/>
<line x1="659.526" y1="366.113" x2="632.018" y2="425.093" stroke="#141420" stroke-width="11.1111" stroke-linecap="round"/>
<line x1="750.002" y1="340.716" x2="732.558" y2="378.118" stroke="#141420" stroke-width="11.1111" stroke-linecap="round"/>
<line x1="565.335" y1="331.193" x2="547.891" y2="368.595" stroke="#141420" stroke-width="11.1111" stroke-linecap="round"/>
<line x1="265.335" y1="331.193" x2="247.891" y2="368.595" stroke="#141420" stroke-width="11.1111" stroke-linecap="round"/>
<line x1="238.351" y1="386.748" x2="232.312" y2="399.695" stroke="#141420" stroke-width="11.1111" stroke-linecap="round"/>
<line x1="344.831" y1="343.891" x2="336.78" y2="361.154" stroke="#141420" stroke-width="11.1111" stroke-linecap="round"/>
<line x1="541.231" y1="385.161" x2="535.192" y2="398.108" stroke="#141420" stroke-width="11.1111" stroke-linecap="round"/>
<path d="M407.191 83.91C407.191 83.91 396.907 69.7156 378.268 71.6512C361.556 63.9088 333.276 58.102 315.279 83.91C315.279 83.91 299.21 80.3672 293.442 99.1132C293.442 99.1132 278 100.685 275.429 117.46H457.968C457.968 117.46 450.255 94.8783 429.045 99.1132C429.045 99.1132 425.831 83.91 407.191 83.91Z" stroke="#141420" stroke-width="7.93651" stroke-linecap="round" stroke-linejoin="round"/>
<path d="M684.159 95.4145C684.159 95.4145 660.349 70.0176 637.334 95.4145C614.318 90.6525 594.476 95.4145 582.332 118.337C582.332 118.337 566.889 119.909 564.318 136.684H746.857C746.857 136.684 741.878 111.021 720.667 115.256C720.667 115.256 709.556 89.0653 684.159 95.4145Z" stroke="#141420" stroke-width="7.93651" stroke-linecap="round" stroke-linejoin="round"/>
<path d="M804 182.851C804 182.851 792.889 157.278 757.968 162.834C739.714 141.405 712.73 146.961 702.413 167.596C702.413 167.596 680.19 167.596 680.19 182.851L804 182.851Z" stroke="#141420" stroke-width="7.93651" stroke-linecap="round" stroke-linejoin="round"/>
<path d="M75.9707 144.629C75.9707 144.629 90.5471 124.56 116.967 127.297C137.148 111.204 180.738 108.14 206.247 144.629C206.247 144.629 229.022 139.62 237.198 166.124C237.198 166.124 259.086 168.346 262.73 192.063H4C4 192.063 14.9323 160.136 44.996 166.124C44.996 166.124 49.5511 144.629 75.9707 144.629Z" stroke="#141420" stroke-width="7.93651" stroke-linecap="round" stroke-linejoin="round"/>
<line x1="516.164" y1="206.27" x2="510.269" y2="208.628" stroke="#141420" stroke-width="4.7619" stroke-linecap="round"/>
<line x1="2.38095" y1="-2.38095" x2="8.73016" y2="-2.38095" transform="matrix(0.928477 0.371391 0.371391 -0.928477 530.479 203.175)" stroke="#141420" stroke-width="4.7619" stroke-linecap="round"/>
</svg>
