<svg width="317" height="136" viewBox="0 0 317 136" fill="none" xmlns="http://www.w3.org/2000/svg">
<path d="M23.1882 84.3866C16.5868 82.8428 14.8345 76.1232 14.7836 72.9564V84.3866H23.1882Z" fill="#141420"/>
<path d="M6.37903 84.3866C12.9804 82.8428 14.7327 76.1232 14.7836 72.9564V84.3866H6.37903Z" fill="#141420"/>
<path d="M23.1882 84.3866C16.5868 85.9305 14.8345 92.6501 14.7836 95.8169V84.3866H23.1882Z" fill="#141420"/>
<path d="M6.37903 84.3866C12.9804 85.9305 14.7327 92.6501 14.7836 95.8169V84.3866H6.37903Z" fill="#141420"/>
<path d="M14.7836 72.9564C14.8345 76.1232 16.5868 82.8428 23.1882 84.3866M14.7836 72.9564V84.3866M14.7836 72.9564C14.7327 76.1232 12.9804 82.8428 6.37903 84.3866M23.1882 84.3866H14.7836M23.1882 84.3866C16.5868 85.9305 14.8345 92.6501 14.7836 95.8169M14.7836 84.3866H6.37903M14.7836 84.3866V95.8169M6.37903 84.3866C12.9804 85.9305 14.7327 92.6501 14.7836 95.8169" stroke="#141420" stroke-width="1.34475" stroke-linejoin="round"/>
<path d="M12.4302 101.532C7.94126 100.488 6.74975 95.9424 6.71511 93.8001V101.532H12.4302Z" fill="#141420"/>
<path d="M1 101.532C5.48896 100.488 6.68047 95.9424 6.71511 93.8001V101.532H1Z" fill="#141420"/>
<path d="M12.4302 101.532C7.94126 102.577 6.74975 107.122 6.71511 109.265V101.532H12.4302Z" fill="#141420"/>
<path d="M1 101.532C5.48896 102.577 6.68047 107.122 6.71511 109.265V101.532H1Z" fill="#141420"/>
<path d="M6.71511 93.8001C6.74975 95.9424 7.94126 100.488 12.4302 101.532M6.71511 93.8001V101.532M6.71511 93.8001C6.68047 95.9424 5.48896 100.488 1 101.532M12.4302 101.532H6.71511M12.4302 101.532C7.94126 102.577 6.74975 107.122 6.71511 109.265M6.71511 101.532H1M6.71511 101.532V109.265M1 101.532C5.48896 102.577 6.68047 107.122 6.71511 109.265" stroke="#141420" stroke-width="1.34475" stroke-linejoin="round"/>
<line x1="70.7885" y1="4.75643" x2="67.2392" y2="12.3666" stroke="#141420" stroke-width="4.70664" stroke-linecap="round"/>
<line x1="75.8663" y1="13.9289" x2="54.3974" y2="59.9613" stroke="#141420" stroke-width="4.70664" stroke-linecap="round"/>
<line x1="52.96" y1="33.8651" x2="31.4911" y2="79.8976" stroke="#141420" stroke-width="4.70664" stroke-linecap="round"/>
<line x1="43.9812" y1="71.3538" x2="26.7482" y2="108.304" stroke="#141420" stroke-width="4.70664" stroke-linecap="round"/>
<line x1="53.5735" y1="69.0233" x2="46.1146" y2="85.0163" stroke="#141420" stroke-width="4.70664" stroke-linecap="round"/>
<line x1="42.8217" y1="92.0765" x2="40.9014" y2="96.1938" stroke="#141420" stroke-width="4.70664" stroke-linecap="round"/>
<path fill-rule="evenodd" clip-rule="evenodd" d="M118.96 97.8891C135.095 63.6002 112.193 37.6238 112.193 37.6238C112.193 37.6238 88.2506 8.01064 50.7748 28.2722C76.2792 30.3504 86.1686 46.4558 86.1686 46.4558C86.1686 46.4558 96.5786 61.5221 89.8121 82.3033C83.2148 102.565 65.3487 104.643 65.3487 104.643C65.3487 104.643 44.0084 109.838 23.1885 90.0962C28.081 110.715 43.2654 134.547 83.0456 127.502C83.0456 127.502 106.003 125.424 118.96 97.8891ZM112.357 102.156C114.184 102.829 116.278 101.708 117.034 99.653C117.791 97.598 116.924 95.3868 115.097 94.7142C113.27 94.0416 111.176 95.1622 110.42 97.2172C109.663 99.2722 110.53 101.483 112.357 102.156ZM108.346 104.318C107.757 105.916 105.916 106.71 104.232 106.09C102.549 105.47 101.661 103.672 102.25 102.073C102.839 100.475 104.68 99.6816 106.364 100.301C108.047 100.921 108.934 102.72 108.346 104.318ZM117.656 81.7356C119.11 81.4908 120.051 79.8779 119.757 78.133C119.463 76.3881 118.046 75.172 116.592 75.4168C115.138 75.6615 114.198 77.2745 114.491 79.0194C114.785 80.7643 116.202 81.9804 117.656 81.7356ZM124.23 72.8399C124.595 75.0036 123.491 76.9932 121.765 77.2837C120.039 77.5742 118.345 76.0557 117.981 73.892C117.617 71.7283 118.72 69.7387 120.446 69.4482C122.172 69.1577 123.866 70.6762 124.23 72.8399ZM117.341 69.8562C120.369 69.0193 121.889 64.9586 120.736 60.7863C119.583 56.614 116.194 53.91 113.166 54.7469C110.138 55.5837 108.618 59.6444 109.771 63.8168C110.924 67.9891 114.313 70.693 117.341 69.8562Z" fill="#141420"/>
<path d="M112.193 37.6238L111.148 38.4693C111.16 38.4841 111.172 38.4987 111.185 38.5131L112.193 37.6238ZM118.96 97.8891L120.177 98.4617L118.96 97.8891ZM50.7748 28.2722L50.1353 27.0893C49.6116 27.3725 49.3364 27.9662 49.4588 28.5488C49.5813 29.1315 50.0722 29.5642 50.6656 29.6126L50.7748 28.2722ZM86.1686 46.4558L85.0227 47.1594C85.0353 47.18 85.0485 47.2003 85.0623 47.2202L86.1686 46.4558ZM89.8121 82.3033L88.5334 81.8869L89.8121 82.3033ZM65.3487 104.643L65.1934 103.307C65.1386 103.314 65.0842 103.323 65.0307 103.336L65.3487 104.643ZM23.1885 90.0962L24.1138 89.1204C23.6821 88.7111 23.0329 88.634 22.5174 88.9308C22.0019 89.2277 21.7427 89.8279 21.8801 90.4066L23.1885 90.0962ZM83.0456 127.502L82.9244 126.163C82.8865 126.166 82.8487 126.171 82.8111 126.178L83.0456 127.502ZM112.357 102.156L111.892 103.418V103.418L112.357 102.156ZM110.42 97.2172L109.158 96.7525L109.158 96.7525L110.42 97.2172ZM108.346 104.318L107.084 103.853L107.084 103.853L108.346 104.318ZM102.25 102.073L103.512 102.538L103.512 102.538L102.25 102.073ZM119.757 78.133L118.431 78.3562L119.757 78.133ZM117.656 81.7356L117.433 80.4095L117.656 81.7356ZM116.592 75.4168L116.369 74.0907L116.592 75.4168ZM114.491 79.0194L113.165 79.2426L114.491 79.0194ZM121.765 77.2837L121.542 75.9576H121.542L121.765 77.2837ZM117.981 73.892L116.655 74.1152V74.1152L117.981 73.892ZM120.446 69.4482L120.669 70.7743H120.669L120.446 69.4482ZM120.736 60.7863L119.44 61.1445V61.1445L120.736 60.7863ZM117.341 69.8562L117.7 71.1523L117.341 69.8562ZM113.166 54.7469L112.807 53.4507L113.166 54.7469ZM109.771 63.8168L108.475 64.175V64.175L109.771 63.8168ZM112.193 37.6238C111.185 38.5131 111.184 38.5127 111.184 38.5124C111.184 38.5124 111.184 38.5122 111.184 38.5123C111.184 38.5124 111.185 38.5129 111.185 38.5138C111.187 38.5157 111.19 38.5191 111.194 38.524C111.203 38.5339 111.217 38.55 111.236 38.5723C111.274 38.6169 111.332 38.6861 111.409 38.7794C111.563 38.9661 111.791 39.2491 112.078 39.6241C112.652 40.3742 113.461 41.4915 114.386 42.9415C116.237 45.8432 118.543 50.0661 120.356 55.3356C123.975 65.8565 125.632 80.5513 117.743 97.3165L120.177 98.4617C128.423 80.938 126.697 65.5002 122.899 54.4607C121.003 48.9499 118.593 44.5356 116.654 41.4952C115.683 39.9741 114.829 38.7941 114.214 37.9898C113.906 37.5875 113.658 37.2789 113.484 37.0683C113.397 36.963 113.329 36.8822 113.282 36.8264C113.258 36.7985 113.239 36.7768 113.226 36.7615C113.219 36.7538 113.214 36.7477 113.21 36.7432C113.208 36.7409 113.206 36.7391 113.205 36.7376C113.204 36.7369 113.204 36.7361 113.203 36.7357C113.203 36.7351 113.202 36.7345 112.193 37.6238ZM51.4144 29.4552C69.7401 19.5472 84.6478 21.8573 94.9792 26.5732C100.17 28.9425 104.226 31.931 106.985 34.3283C108.363 35.5258 109.413 36.5724 110.114 37.3146C110.465 37.6856 110.728 37.9802 110.901 38.1791C110.988 38.2786 111.052 38.3541 111.093 38.4033C111.114 38.4279 111.129 38.4459 111.138 38.457C111.142 38.4625 111.145 38.4663 111.147 38.4684C111.148 38.4694 111.148 38.47 111.148 38.4702C111.149 38.4702 111.148 38.47 111.148 38.47C111.148 38.4697 111.148 38.4693 112.193 37.6238C113.239 36.7783 113.239 36.7776 113.238 36.7768C113.238 36.7764 113.237 36.7755 113.236 36.7747C113.235 36.773 113.233 36.7709 113.231 36.7684C113.227 36.7633 113.221 36.7564 113.214 36.7478C113.2 36.7306 113.18 36.7064 113.154 36.6756C113.103 36.6139 113.028 36.5257 112.93 36.4132C112.734 36.1882 112.446 35.8664 112.069 35.4672C111.315 34.6691 110.201 33.5604 108.749 32.2983C105.847 29.7764 101.576 26.6279 96.096 24.1266C85.087 19.1013 69.2853 16.7357 50.1353 27.0893L51.4144 29.4552ZM86.1686 46.4558C87.3146 45.7521 87.3142 45.7514 87.3137 45.7507C87.3135 45.7504 87.313 45.7496 87.3126 45.7489C87.3118 45.7476 87.3109 45.7461 87.3097 45.7443C87.3075 45.7407 87.3047 45.7361 87.3012 45.7306C87.2943 45.7195 87.2849 45.7046 87.273 45.686C87.2493 45.6488 87.2155 45.5967 87.1716 45.5305C87.0839 45.3983 86.9554 45.2102 86.7849 44.9736C86.444 44.5004 85.9344 43.8327 85.2447 43.0303C83.8657 41.4258 81.764 39.2795 78.8476 37.0712C73.0065 32.6482 63.9186 27.994 50.884 26.9319L50.6656 29.6126C63.1354 30.6286 71.7444 35.0661 77.2241 39.2154C79.9681 41.2932 81.9328 43.3031 83.2051 44.7834C83.841 45.5233 84.3033 46.1301 84.6028 46.5458C84.7526 46.7536 84.8615 46.9135 84.931 47.0182C84.9658 47.0706 84.9907 47.1092 85.0059 47.133C85.0135 47.1449 85.0187 47.1532 85.0215 47.1576C85.0229 47.1598 85.0237 47.1611 85.0239 47.1614C85.024 47.1616 85.0239 47.1615 85.0237 47.1612C85.0236 47.161 85.0234 47.1606 85.0233 47.1605C85.023 47.16 85.0227 47.1594 86.1686 46.4558ZM91.0908 82.7196C94.5713 72.0302 93.6361 62.7936 91.8241 56.2288C90.9188 52.949 89.7945 50.3344 88.8918 48.5323C88.4402 47.6308 88.0434 46.9313 87.7559 46.4521C87.6122 46.2124 87.4957 46.0277 87.4133 45.9001C87.3721 45.8364 87.3394 45.7869 87.3161 45.752C87.3044 45.7346 87.2951 45.7208 87.2882 45.7107C87.2848 45.7056 87.2819 45.7014 87.2797 45.6982C87.2786 45.6966 87.2777 45.6952 87.2769 45.6941C87.2765 45.6935 87.276 45.6928 87.2758 45.6925C87.2754 45.6919 87.275 45.6913 86.1686 46.4558C85.0623 47.2202 85.062 47.2197 85.0617 47.2193C85.0616 47.2193 85.0614 47.2189 85.0613 47.2188C85.0612 47.2186 85.0612 47.2186 85.0613 47.2188C85.0616 47.2193 85.0626 47.2206 85.0641 47.2229C85.0672 47.2274 85.0727 47.2355 85.0805 47.2472C85.0961 47.2706 85.1211 47.3083 85.1545 47.3599C85.2212 47.4633 85.3218 47.6225 85.4495 47.8354C85.7049 48.2613 86.0685 48.9012 86.4871 49.7369C87.3248 51.4092 88.3801 53.8599 89.2315 56.9444C90.9328 63.108 91.8194 71.7952 88.5334 81.8869L91.0908 82.7196ZM65.3487 104.643C65.5041 105.979 65.5049 105.979 65.5057 105.979C65.5061 105.979 65.507 105.978 65.5077 105.978C65.5092 105.978 65.511 105.978 65.513 105.978C65.5171 105.977 65.5222 105.977 65.5284 105.976C65.5409 105.974 65.5576 105.972 65.5785 105.969C65.6204 105.964 65.679 105.955 65.7534 105.944C65.9022 105.921 66.1146 105.886 66.3832 105.835C66.9203 105.731 67.6835 105.562 68.6151 105.294C70.4768 104.759 73.0208 103.827 75.7784 102.236C81.3122 99.0439 87.6742 93.2125 91.0908 82.7196L88.5334 81.8869C85.3527 91.6556 79.483 96.9941 74.4345 99.9064C71.9008 101.368 69.5661 102.222 67.8717 102.709C67.0252 102.953 66.3412 103.104 65.8754 103.194C65.6426 103.238 65.4647 103.268 65.3486 103.285C65.2906 103.294 65.248 103.3 65.2218 103.304C65.2088 103.305 65.1998 103.306 65.195 103.307C65.1926 103.307 65.1913 103.307 65.191 103.308C65.1908 103.308 65.191 103.308 65.1914 103.307C65.1916 103.307 65.1921 103.307 65.1922 103.307C65.1927 103.307 65.1934 103.307 65.3487 104.643ZM22.2632 91.072C32.8974 101.156 43.7026 104.899 51.8801 106.103C55.9623 106.704 59.382 106.672 61.7919 106.487C62.9973 106.395 63.9513 106.264 64.6111 106.154C64.941 106.1 65.1975 106.05 65.3752 106.014C65.4641 105.995 65.5332 105.98 65.5821 105.969C65.6065 105.964 65.6258 105.959 65.64 105.956C65.647 105.954 65.6528 105.953 65.6573 105.952C65.6595 105.951 65.6615 105.951 65.663 105.951C65.6638 105.95 65.6648 105.95 65.6652 105.95C65.666 105.95 65.6668 105.95 65.3487 104.643C65.0307 103.336 65.0313 103.336 65.0318 103.336C65.0319 103.336 65.0323 103.336 65.0325 103.336C65.0328 103.336 65.0327 103.336 65.0324 103.336C65.0317 103.336 65.0297 103.337 65.0264 103.337C65.0199 103.339 65.0083 103.342 64.9917 103.345C64.9585 103.353 64.9053 103.364 64.8328 103.379C64.6877 103.409 64.4654 103.452 64.1711 103.501C63.5825 103.599 62.7067 103.719 61.586 103.805C59.344 103.978 56.1274 104.01 52.272 103.442C44.5744 102.309 34.2994 98.7787 24.1138 89.1204L22.2632 91.072ZM82.8111 126.178C63.231 129.646 49.9066 125.494 40.8844 118.131C31.815 110.73 26.9042 99.9309 24.4969 89.7857L21.8801 90.4066C24.3653 100.88 29.493 112.306 39.184 120.215C48.9222 128.162 63.0801 132.404 83.2801 128.826L82.8111 126.178ZM117.743 97.3165C111.399 110.798 102.638 117.998 95.5064 121.837C91.9334 123.761 88.7595 124.845 86.4901 125.448C85.3558 125.749 84.4488 125.929 83.8328 126.033C83.5249 126.085 83.2899 126.119 83.1358 126.138C83.0587 126.148 83.0019 126.155 82.9663 126.159C82.9486 126.16 82.9361 126.162 82.9291 126.162C82.9255 126.163 82.9234 126.163 82.9226 126.163C82.9222 126.163 82.9222 126.163 82.9225 126.163C82.9226 126.163 82.9231 126.163 82.9232 126.163C82.9237 126.163 82.9244 126.163 83.0456 127.502C83.1669 128.841 83.1677 128.841 83.1686 128.841C83.169 128.841 83.1701 128.841 83.1709 128.841C83.1726 128.841 83.1747 128.841 83.177 128.841C83.1818 128.84 83.188 128.84 83.1956 128.839C83.2107 128.837 83.2314 128.835 83.2574 128.832C83.3095 128.827 83.3832 128.818 83.4775 128.806C83.666 128.782 83.9368 128.743 84.2819 128.685C84.972 128.568 85.9598 128.371 87.1802 128.047C89.6201 127.399 92.9954 126.243 96.7812 124.205C104.367 120.122 113.563 112.516 120.177 98.4617L117.743 97.3165ZM115.772 99.1883C115.219 100.69 113.816 101.26 112.822 100.894L111.892 103.418C114.551 104.397 117.336 102.726 118.296 100.118L115.772 99.1883ZM114.632 95.9762C115.626 96.3422 116.326 97.6864 115.772 99.1883L118.296 100.118C119.257 97.5096 118.221 94.4315 115.562 93.4523L114.632 95.9762ZM111.681 97.6819C112.234 96.18 113.638 95.6101 114.632 95.9762L115.562 93.4523C112.903 92.4731 110.118 94.1445 109.158 96.7525L111.681 97.6819ZM112.822 100.894C111.827 100.528 111.128 99.1837 111.681 97.6819L109.158 96.7525C108.197 99.3606 109.233 102.439 111.892 103.418L112.822 100.894ZM103.768 107.352C106.085 108.205 108.74 107.139 109.608 104.783L107.084 103.853C106.774 104.694 105.746 105.214 104.697 104.828L103.768 107.352ZM100.988 101.609C100.12 103.965 101.45 106.498 103.768 107.352L104.697 104.828C103.648 104.442 103.202 103.379 103.512 102.538L100.988 101.609ZM106.828 99.0396C104.51 98.1861 101.856 99.2525 100.988 101.609L103.512 102.538C103.821 101.697 104.85 101.177 105.899 101.563L106.828 99.0396ZM109.608 104.783C110.475 102.427 109.146 99.8931 106.828 99.0396L105.899 101.563C106.948 101.95 107.394 103.013 107.084 103.853L109.608 104.783ZM118.431 78.3562C118.641 79.6054 117.938 80.3244 117.433 80.4095L117.879 83.0617C120.282 82.6573 121.46 80.1504 121.083 77.9098L118.431 78.3562ZM116.815 76.7429C117.321 76.6578 118.221 77.1071 118.431 78.3562L121.083 77.9098C120.706 75.6691 118.772 73.6862 116.369 74.0907L116.815 76.7429ZM115.817 78.7962C115.607 77.547 116.31 76.828 116.815 76.7429L116.369 74.0907C113.966 74.4951 112.788 77.002 113.165 79.2426L115.817 78.7962ZM117.433 80.4095C116.927 80.4946 116.028 80.0453 115.817 78.7962L113.165 79.2426C113.542 81.4832 115.477 83.4661 117.879 83.0617L117.433 80.4095ZM121.988 78.6098C124.711 78.1515 125.994 75.2173 125.557 72.6167L122.904 73.0632C123.195 74.7899 122.271 75.8348 121.542 75.9576L121.988 78.6098ZM116.655 74.1152C117.092 76.7158 119.266 79.068 121.988 78.6098L121.542 75.9576C120.813 76.0804 119.598 75.3955 119.307 73.6687L116.655 74.1152ZM120.223 68.1221C117.501 68.5804 116.217 71.5146 116.655 74.1152L119.307 73.6687C119.016 71.942 119.94 70.8971 120.669 70.7743L120.223 68.1221ZM125.557 72.6167C125.119 70.0161 122.945 67.6639 120.223 68.1221L120.669 70.7743C121.399 70.6515 122.614 71.3364 122.904 73.0632L125.557 72.6167ZM119.44 61.1445C119.949 62.9871 119.852 64.7527 119.347 66.1006C118.842 67.4502 117.979 68.2848 116.983 68.56L117.7 71.1523C119.732 70.5907 121.143 68.9765 121.866 67.0434C122.59 65.1087 122.676 62.7578 122.032 60.4281L119.44 61.1445ZM113.524 56.043C114.52 55.7678 115.689 56.0407 116.815 56.9394C117.941 57.8369 118.931 59.3019 119.44 61.1445L122.032 60.4281C121.389 58.0983 120.108 56.1252 118.493 54.8369C116.879 53.5497 114.84 52.8891 112.807 53.4507L113.524 56.043ZM111.067 63.4585C110.558 61.616 110.655 59.8503 111.16 58.5024C111.665 57.1528 112.528 56.3183 113.524 56.043L112.807 53.4507C110.775 54.0123 109.364 55.6266 108.641 57.5596C107.917 59.4943 107.831 61.8452 108.475 64.175L111.067 63.4585ZM116.983 68.56C115.987 68.8352 114.818 68.5623 113.692 67.6637C112.567 66.7661 111.576 65.3011 111.067 63.4585L108.475 64.175C109.119 66.5047 110.4 68.4778 112.014 69.7661C113.628 71.0533 115.668 71.7139 117.7 71.1523L116.983 68.56Z" fill="#141420"/>
<path d="M161.362 102.205C138.501 98.1706 131.105 110.946 131.105 110.946C110.261 109.601 106.563 123.721 106.563 123.721C85.7195 118.678 59.4968 133.47 59.4968 133.47C59.4968 133.47 215.22 133.47 315 133.47C309.285 115.652 289.786 118.006 289.786 118.006C286.088 104.894 275.666 106.239 275.666 106.239C273.985 96.4897 265.58 96.4897 265.58 96.4897" stroke="#141420" stroke-width="3.36188" stroke-linecap="round" stroke-linejoin="round"/>
<path d="M132.786 94.8081V63.5431C137.044 62.9828 147.914 62.8707 147.914 69.5944C147.914 79.6799 133.458 76.9904 133.458 76.9904C138.277 77.1025 150.805 80.0161 150.267 94.8081" stroke="#141420" stroke-width="3.36188" stroke-linecap="round" stroke-linejoin="round"/>
<path d="M170.775 63.5432H154.974V94.472H170.775" stroke="#141420" stroke-width="3.36188" stroke-linecap="round" stroke-linejoin="round"/>
<path d="M154.974 79.0078H168.422" stroke="#141420" stroke-width="3.36188" stroke-linecap="round" stroke-linejoin="round"/>
<path d="M176.827 94.8082L181.032 80.6885M195.653 94.8082L191.447 80.6885M181.032 80.6885L186.24 63.207L191.447 80.6885M181.032 80.6885H191.447" stroke="#141420" stroke-width="3.36188" stroke-linecap="round" stroke-linejoin="round"/>
<path d="M204.394 96.1529C199.351 89.4292 202.265 82.0332 204.394 79.0075C204.394 79.0075 198.343 64.2155 204.394 61.1898C204.394 61.1898 213.135 57.828 215.488 79.0075C217.841 57.828 226.582 61.1898 226.582 61.1898C233.306 64.2155 226.582 79.0075 226.582 79.0075C228.599 82.2573 231.625 90.1016 226.582 96.1529" stroke="#141420" stroke-width="3.36188" stroke-linecap="round" stroke-linejoin="round"/>
<path d="M212.463 86.0678C212.463 86.8104 211.86 87.4125 211.118 87.4125C210.375 87.4125 209.773 86.8104 209.773 86.0678C209.773 85.3251 210.375 84.723 211.118 84.723C211.86 84.723 212.463 85.3251 212.463 86.0678Z" fill="#141420" stroke="#141420" stroke-width="0.672377"/>
<path d="M221.203 86.0678C221.203 86.8104 220.601 87.4125 219.859 87.4125C219.116 87.4125 218.514 86.8104 218.514 86.0678C218.514 85.3251 219.116 84.723 219.859 84.723C220.601 84.723 221.203 85.3251 221.203 86.0678Z" fill="#141420" stroke="#141420" stroke-width="0.672377"/>
<path d="M252.805 63.5432H237.004V94.472H252.805" stroke="#141420" stroke-width="3.36188" stroke-linecap="round" stroke-linejoin="round"/>
<path d="M237.004 79.0078H250.452" stroke="#141420" stroke-width="3.36188" stroke-linecap="round" stroke-linejoin="round"/>
<path d="M259.193 94.8082V63.5432C263.451 62.9829 274.321 62.8708 274.321 69.5944C274.321 79.6799 259.865 76.9905 259.865 76.9905C264.684 77.1025 277.212 80.0161 276.674 94.8082" stroke="#141420" stroke-width="3.36188" stroke-linecap="round" stroke-linejoin="round"/>
</svg>
