<svg width="106" height="106" viewBox="0 0 106 106" fill="none" xmlns="http://www.w3.org/2000/svg">
<path d="M93.0303 16.7156C93.0303 16.7156 114.919 41.8275 99.4973 74.9753C87.1135 101.594 65.1725 103.603 65.1725 103.603C27.1529 110.413 12.6405 87.3743 7.96448 67.4417C27.8629 86.5268 48.2588 81.5044 48.2588 81.5044C48.2588 81.5044 65.3342 79.4954 71.6395 59.9081C78.1065 39.8186 68.1573 25.2537 68.1573 25.2537C68.1573 25.2537 58.7055 9.68427 34.3299 7.67529C70.1471 -11.912 93.0303 16.7156 93.0303 16.7156Z" fill="#141420" stroke="#141420" stroke-linejoin="round"/>
<path d="M29.8527 37.988C18.5215 35.2746 15.5138 23.4644 15.4264 17.8985V37.988H29.8527Z" fill="#141420"/>
<path d="M1 37.988C12.3313 35.2746 15.3389 23.4644 15.4264 17.8985V37.988H1Z" fill="#141420"/>
<path d="M29.8527 37.988C18.5215 40.7014 15.5138 52.5116 15.4264 58.0776V37.988H29.8527Z" fill="#141420"/>
<path d="M1 37.988C12.3313 40.7014 15.3389 52.5116 15.4264 58.0776V37.988H1Z" fill="#141420"/>
<path d="M15.4264 17.8985C15.5138 23.4644 18.5215 35.2746 29.8527 37.988M15.4264 17.8985V37.988M15.4264 17.8985C15.3389 23.4644 12.3313 35.2746 1 37.988M29.8527 37.988H15.4264M29.8527 37.988C18.5215 40.7014 15.5138 52.5116 15.4264 58.0776M15.4264 37.988H1M15.4264 37.988V58.0776M1 37.988C12.3313 40.7014 15.3389 52.5116 15.4264 58.0776" stroke="#141420" stroke-width="2" stroke-linejoin="round"/>
<line x1="3.5" y1="-3.5" x2="14.5358" y2="-3.5" transform="matrix(-0.507532 0.861633 -0.857341 -0.51475 33.037 12.8761)" stroke="#141420" stroke-width="7" stroke-linecap="round"/>
<line x1="3.5" y1="-3.5" x2="36.5796" y2="-3.5" transform="matrix(-0.507532 0.861633 -0.857341 -0.51475 40.2452 31.9612)" stroke="#141420" stroke-width="7" stroke-linecap="round"/>
</svg>
