<svg width="24" height="29" viewBox="0 0 24 29" fill="none" xmlns="http://www.w3.org/2000/svg">
<path d="M11.6667 16.1804L14.0696 17.6388C14.3196 17.7963 14.5672 17.7824 14.8125 17.5971C15.0578 17.4118 15.1481 17.1664 15.0833 16.8608L14.4583 14.1388L16.5417 12.3333C16.7825 12.1203 16.8589 11.8749 16.7708 11.5971C16.6828 11.3193 16.4814 11.1619 16.1667 11.125L13.4167 10.8888L12.3054 8.29167C12.1876 8.01389 11.9753 7.875 11.6683 7.875C11.3617 7.875 11.1482 8.01389 11.0279 8.29167L9.91667 10.8888L7.16667 11.125C6.85194 11.1619 6.65056 11.3193 6.5625 11.5971C6.47444 11.8749 6.55083 12.1203 6.79167 12.3333L8.875 14.1388L8.25 16.8608C8.18528 17.1664 8.27556 17.4118 8.52083 17.5971C8.76611 17.7824 9.01375 17.7963 9.26375 17.6388L11.6667 16.1804ZM11.6667 25.1388L3.88875 28.4721C2.96292 28.8701 2.08333 28.796 1.25 28.2496C0.416667 27.7032 0 26.9301 0 25.9304V2.7775C0 2.0275 0.275417 1.37708 0.82625 0.826251C1.37736 0.275417 2.02792 0 2.77792 0H20.5554C21.3054 0 21.956 0.275417 22.5071 0.826251C23.0579 1.37708 23.3333 2.0275 23.3333 2.7775V25.9304C23.3333 26.9301 22.9167 27.7032 22.0833 28.2496C21.25 28.796 20.3704 28.8701 19.4446 28.4721L11.6667 25.1388ZM11.6667 22.1388L20.5554 25.9167V2.7775H2.77792V25.9167L11.6667 22.1388ZM11.6667 2.7775H2.77792H20.5554H11.6667Z" fill="#77777B"/>
</svg>
