<svg width="40" height="40" viewBox="0 0 40 40" fill="none" xmlns="http://www.w3.org/2000/svg">
<mask id="mask0_350_1780" style="mask-type:alpha" maskUnits="userSpaceOnUse" x="0" y="0" width="40" height="40">
<rect width="40" height="40" fill="#D9D9D9"/>
</mask>
<g mask="url(#mask0_350_1780)">
<path d="M20 21.0417L22.125 22.3333C22.4305 22.5278 22.7291 22.5139 23.0208 22.2917C23.3125 22.0694 23.4166 21.7778 23.3333 21.4167L22.7916 19L24.625 17.4167C24.9028 17.1667 24.993 16.875 24.8958 16.5417C24.7986 16.2083 24.5555 16.0139 24.1666 15.9583L21.75 15.75L20.75 13.4583C20.6111 13.125 20.3611 12.9583 20 12.9583C19.6389 12.9583 19.3889 13.125 19.25 13.4583L18.25 15.75L15.8333 15.9583C15.4444 16.0139 15.2014 16.2083 15.1041 16.5417C15.0069 16.875 15.0972 17.1667 15.375 17.4167L17.2083 19L16.6666 21.4167C16.5833 21.7778 16.6875 22.0694 16.9791 22.2917C17.2708 22.5139 17.5694 22.5278 17.875 22.3333L20 21.0417ZM20 30L13 33C11.8889 33.4722 10.8333 33.3819 9.83331 32.7292C8.83331 32.0764 8.33331 31.1528 8.33331 29.9583V8.33333C8.33331 7.41667 8.6597 6.63194 9.31248 5.97917C9.96526 5.32639 10.75 5 11.6666 5H28.3333C29.25 5 30.0347 5.32639 30.6875 5.97917C31.3403 6.63194 31.6666 7.41667 31.6666 8.33333V29.9583C31.6666 31.1528 31.1666 32.0764 30.1666 32.7292C29.1666 33.3819 28.1111 33.4722 27 33L20 30ZM20 26.3333L28.3333 29.9167V8.33333H11.6666V29.9167L20 26.3333Z" fill="#5F6368"/>
</g>
</svg>
