<svg width="106" height="106" viewBox="0 0 106 106" fill="none" xmlns="http://www.w3.org/2000/svg">
<path d="M92.4878 16.8932C92.4878 16.8932 114.485 42.0051 98.9869 75.1529C86.5416 101.772 64.4915 103.78 64.4915 103.78C26.2829 110.591 11.6984 87.5519 6.99915 67.6193C26.9965 86.7044 47.4938 81.682 47.4938 81.682C47.4938 81.682 64.654 79.673 70.9907 60.0857C77.4898 39.9962 67.4911 25.4313 67.4911 25.4313C67.4911 25.4313 57.9924 9.86189 33.4956 7.85291C69.4909 -11.7344 92.4878 16.8932 92.4878 16.8932Z" fill="#141420" stroke="#141420" stroke-linejoin="round"/>
<path d="M38.3079 45.4462C25.0218 35.3514 27.852 18.0764 30.9279 10.7007L19.4125 37.1406L38.3079 45.4462Z" fill="#141420"/>
<path d="M0.51709 28.8349C16.9139 31.7875 27.623 17.9757 30.9279 10.7007L19.4125 37.1406L0.51709 28.8349Z" fill="#141420"/>
<path d="M38.3079 45.4462C21.9111 42.4936 11.2019 56.3054 7.897 63.5804L19.4125 37.1406L38.3079 45.4462Z" fill="#141420"/>
<path d="M0.51709 28.8349C13.8032 38.9297 10.9729 56.2048 7.897 63.5804L19.4125 37.1406L0.51709 28.8349Z" fill="#141420"/>
<path d="M30.9279 10.7007C27.852 18.0764 25.0218 35.3514 38.3079 45.4462M30.9279 10.7007L19.4125 37.1406M30.9279 10.7007C27.623 17.9757 16.9139 31.7875 0.51709 28.8349M38.3079 45.4462L19.4125 37.1406M38.3079 45.4462C21.9111 42.4936 11.2019 56.3054 7.897 63.5804M19.4125 37.1406L0.51709 28.8349M19.4125 37.1406L7.897 63.5804M0.51709 28.8349C13.8032 38.9297 10.9729 56.2048 7.897 63.5804" stroke="#141420" stroke-linejoin="round"/>
</svg>
