<svg width="40" height="40" viewBox="0 0 40 40" fill="none" xmlns="http://www.w3.org/2000/svg">
<mask id="mask0_88_1836" style="mask-type:alpha" maskUnits="userSpaceOnUse" x="0" y="0" width="40" height="40">
<rect width="40" height="40" fill="#D9D9D9"/>
</mask>
<g mask="url(#mask0_88_1836)">
<path d="M10.3333 24.6667C9.41667 24.6667 8.63194 24.3403 7.97917 23.6875C7.32639 23.0347 7 22.25 7 21.3333C7 20.4167 7.32639 19.6319 7.97917 18.9792C8.63194 18.3264 9.41667 18 10.3333 18C11.25 18 12.0347 18.3264 12.6875 18.9792C13.3403 19.6319 13.6667 20.4167 13.6667 21.3333C13.6667 22.25 13.3403 23.0347 12.6875 23.6875C12.0347 24.3403 11.25 24.6667 10.3333 24.6667ZM20.3333 24.6667C19.4167 24.6667 18.6319 24.3403 17.9792 23.6875C17.3264 23.0347 17 22.25 17 21.3333C17 20.4167 17.3264 19.6319 17.9792 18.9792C18.6319 18.3264 19.4167 18 20.3333 18C21.25 18 22.0347 18.3264 22.6875 18.9792C23.3403 19.6319 23.6667 20.4167 23.6667 21.3333C23.6667 22.25 23.3403 23.0347 22.6875 23.6875C22.0347 24.3403 21.25 24.6667 20.3333 24.6667ZM30.3333 24.6667C29.4167 24.6667 28.6319 24.3403 27.9792 23.6875C27.3264 23.0347 27 22.25 27 21.3333C27 20.4167 27.3264 19.6319 27.9792 18.9792C28.6319 18.3264 29.4167 18 30.3333 18C31.25 18 32.0347 18.3264 32.6875 18.9792C33.3403 19.6319 33.6667 20.4167 33.6667 21.3333C33.6667 22.25 33.3403 23.0347 32.6875 23.6875C32.0347 24.3403 31.25 24.6667 30.3333 24.6667Z" fill="#77777B"/>
</g>
</svg>
