<svg width="40" height="40" viewBox="0 0 40 40" fill="none" xmlns="http://www.w3.org/2000/svg">
<mask id="mask0_29_125" style="mask-type:alpha" maskUnits="userSpaceOnUse" x="0" y="0" width="40" height="40">
<rect width="40" height="40" fill="#000"/>
</mask>
<g mask="url(#mask0_29_125)">
<path d="M9.99999 23.3333C9.08332 23.3333 8.2986 23.0069 7.64582 22.3542C6.99305 21.7014 6.66666 20.9167 6.66666 20C6.66666 19.0833 6.99305 18.2986 7.64582 17.6458C8.2986 16.9931 9.08332 16.6667 9.99999 16.6667C10.9167 16.6667 11.7014 16.9931 12.3542 17.6458C13.0069 18.2986 13.3333 19.0833 13.3333 20C13.3333 20.9167 13.0069 21.7014 12.3542 22.3542C11.7014 23.0069 10.9167 23.3333 9.99999 23.3333ZM20 23.3333C19.0833 23.3333 18.2986 23.0069 17.6458 22.3542C16.993 21.7014 16.6667 20.9167 16.6667 20C16.6667 19.0833 16.993 18.2986 17.6458 17.6458C18.2986 16.9931 19.0833 16.6667 20 16.6667C20.9167 16.6667 21.7014 16.9931 22.3542 17.6458C23.0069 18.2986 23.3333 19.0833 23.3333 20C23.3333 20.9167 23.0069 21.7014 22.3542 22.3542C21.7014 23.0069 20.9167 23.3333 20 23.3333ZM30 23.3333C29.0833 23.3333 28.2986 23.0069 27.6458 22.3542C26.993 21.7014 26.6667 20.9167 26.6667 20C26.6667 19.0833 26.993 18.2986 27.6458 17.6458C28.2986 16.9931 29.0833 16.6667 30 16.6667C30.9167 16.6667 31.7014 16.9931 32.3542 17.6458C33.0069 18.2986 33.3333 19.0833 33.3333 20C33.3333 20.9167 33.0069 21.7014 32.3542 22.3542C31.7014 23.0069 30.9167 23.3333 30 23.3333Z" fill="#000"/>
</g>
</svg>
