<svg width="18" height="14" viewBox="0 0 18 14" fill="none" xmlns="http://www.w3.org/2000/svg">
<path d="M2.33464 2.68101C2.33464 2.68101 -0.105614 5.33708 1.61366 8.84309C2.99428 11.6585 5.44042 11.871 5.44042 11.871C9.67911 12.5913 11.297 10.1545 11.8184 8.04627C9.59995 10.0649 7.32607 9.53367 7.32607 9.53367C7.32607 9.53367 5.4224 9.32119 4.71944 7.24945C3.99845 5.1246 5.10766 3.58408 5.10766 3.58408C5.10766 3.58408 6.1614 1.93731 8.87896 1.72483C4.88582 -0.346905 2.33464 2.68101 2.33464 2.68101Z" fill="#AC6DCA" stroke="#AC6DCA" stroke-linejoin="round"/>
<path d="M11.8319 11.527C10.8202 11.527 9.96389 11.1869 9.2631 10.5068C8.56231 9.82658 8.21191 8.9955 8.21191 8.01351C8.21191 7.03153 8.56231 6.20045 9.2631 5.52027C9.96389 4.84009 10.8202 4.5 11.8319 4.5C12.8436 4.5 13.6999 4.84009 14.4007 5.52027C15.1015 6.20045 15.4519 7.03153 15.4519 8.01351C15.4519 8.40991 15.3869 8.78378 15.257 9.13513C15.127 9.48649 14.9507 9.7973 14.7279 10.0676L17.8466 13.0946C17.9487 13.1937 17.9998 13.3198 17.9998 13.473C17.9998 13.6261 17.9487 13.7523 17.8466 13.8514C17.7445 13.9505 17.6146 14 17.4568 14C17.299 14 17.1691 13.9505 17.067 13.8514L13.9482 10.8243C13.6697 11.0405 13.3495 11.2117 12.9875 11.3378C12.6255 11.464 12.2403 11.527 11.8319 11.527ZM11.8319 10.4459C12.528 10.4459 13.1198 10.2095 13.6071 9.73649C14.0944 9.26351 14.338 8.68919 14.338 8.01351C14.338 7.33784 14.0944 6.76351 13.6071 6.29054C13.1198 5.81757 12.528 5.58108 11.8319 5.58108C11.1357 5.58108 10.544 5.81757 10.0567 6.29054C9.56941 6.76351 9.32576 7.33784 9.32576 8.01351C9.32576 8.68919 9.56941 9.26351 10.0567 9.73649C10.544 10.2095 11.1357 10.4459 11.8319 10.4459Z" fill="#5F5F5F"/>
<path d="M11.8319 10.4459C12.528 10.4459 13.1198 10.2095 13.6071 9.73649C14.0944 9.26351 14.338 8.68919 14.338 8.01351C14.338 7.33784 14.0944 6.76351 13.6071 6.29054C13.1198 5.81757 12.528 5.58108 11.8319 5.58108C11.1357 5.58108 10.544 5.81757 10.0567 6.29054C9.56941 6.76351 9.32576 7.33784 9.32576 8.01351C9.32576 8.68919 9.56941 9.26351 10.0567 9.73649C10.544 10.2095 11.1357 10.4459 11.8319 10.4459Z" fill="white" fill-opacity="0.77"/>
</svg>
