<svg width="40" height="40" viewBox="0 0 40 40" fill="none" xmlns="http://www.w3.org/2000/svg">
<mask id="mask0_2703_13713" style="mask-type:alpha" maskUnits="userSpaceOnUse" x="0" y="0" width="40" height="40">
<rect width="40" height="40" fill="#D9D9D9"/>
</mask>
<g mask="url(#mask0_2703_13713)">
<path d="M7.98818 39.0189C7.50995 39.3806 6.98716 39.451 6.41981 39.2299C5.85245 39.0089 5.51505 38.6034 5.40762 38.0135L3.73302 30.0568L14.6043 34.2924L7.98818 39.0189ZM14.6043 34.2924L3.73302 30.0568L13.7444 4.36104C14.0154 3.66557 14.5069 3.16144 15.219 2.84865C15.9311 2.53586 16.6349 2.51494 17.3304 2.7859L23.0406 5.01066C23.736 5.28162 24.2402 5.77316 24.553 6.48527C24.8658 7.19738 24.8867 7.90117 24.6157 8.59664L14.6043 34.2924ZM16.3305 5.37905L7.07489 29.135L12.7669 31.3527L22.0226 7.59675L16.3305 5.37905Z" fill="#5F6368"/>
</g>
</svg>
