<svg width="40" height="40" viewBox="0 0 40 40" fill="none" xmlns="http://www.w3.org/2000/svg">
<path d="M21.25 5.05134V5.9968C21.25 6.55326 21.4972 7.08097 21.9247 7.43721L23.7057 8.92139C24.4418 9.53483 24.5969 10.6046 24.0654 11.4019L23.2137 12.6794C22.7511 13.3733 22.0705 13.8932 21.2794 14.1569L21.0423 14.2359C19.8878 14.6207 19.4153 15.998 20.0903 17.0105C20.7061 17.9342 20.373 19.1885 19.3801 19.685L15 21.875L15.7057 23.6391C16.0133 24.4083 15.68 25.285 14.9391 25.6555C14.2505 25.9998 13.4143 25.8023 12.9524 25.1865L11.8203 23.6771C10.984 22.562 9.26658 22.7168 8.64324 23.9635L7.5 26.25L6.48006 26.505M21.25 5.05134C20.8378 5.01734 20.4209 5 20 5C11.7157 5 5 11.7157 5 20C5 22.3307 5.53156 24.5372 6.48006 26.505M21.25 5.05134C28.9494 5.68653 35 12.1367 35 20C35 23.132 34.0401 26.0398 32.3984 28.4453M32.3984 28.4453L32.1047 27.5641C31.5943 26.0329 30.1613 25 28.5472 25H27.5L26.9594 24.4594C26.5052 24.0052 25.8891 23.75 25.2468 23.75C24.3295 23.75 23.4909 24.2683 23.0806 25.0888L23.0198 25.2105C22.6886 25.8729 22.0946 26.3658 21.3825 26.5693L19.7346 27.0401C18.8177 27.3021 18.2434 28.2106 18.4002 29.1512L18.5218 29.8808C18.6535 30.6709 19.3371 31.25 20.138 31.25C21.5486 31.25 22.8009 32.1526 23.2469 33.4908L23.6047 34.5641M32.3984 28.4453C30.3492 31.448 27.2376 33.6679 23.6047 34.5641M23.6047 34.5641C22.45 34.8489 21.2426 35 20 35C14.0464 35 8.90294 31.5315 6.48006 26.505M26.2496 15C26.2496 16.4934 25.5949 17.8338 24.5569 18.75" stroke="#141420" stroke-width="1.5" stroke-linecap="round" stroke-linejoin="round"/>
</svg>
