<svg width="40" height="40" viewBox="0 0 40 40" fill="none" xmlns="http://www.w3.org/2000/svg">
<mask id="mask0_52_1232" style="mask-type:alpha" maskUnits="userSpaceOnUse" x="0" y="0" width="40" height="40">
<rect width="40" height="40" fill="#D9D9D9"/>
</mask>
<g mask="url(#mask0_52_1232)">
<path d="M18.0416 36.6667C17.2916 36.6667 16.6458 36.4167 16.1041 35.9167C15.5625 35.4167 15.2361 34.8056 15.125 34.0833L14.75 31.3333C14.3889 31.1944 14.0486 31.0278 13.7291 30.8333C13.4097 30.6389 13.0972 30.4305 12.7916 30.2083L10.2083 31.2917C9.51386 31.5972 8.81941 31.625 8.12497 31.375C7.43052 31.125 6.88886 30.6805 6.49997 30.0417L4.54163 26.625C4.15275 25.9861 4.04163 25.3055 4.2083 24.5833C4.37497 23.8611 4.74997 23.2639 5.3333 22.7917L7.54163 21.125C7.51386 20.9305 7.49997 20.7431 7.49997 20.5625V19.4375C7.49997 19.2569 7.51386 19.0694 7.54163 18.875L5.3333 17.2083C4.74997 16.7361 4.37497 16.1389 4.2083 15.4167C4.04163 14.6944 4.15275 14.0139 4.54163 13.375L6.49997 9.95833C6.88886 9.31944 7.43052 8.87499 8.12497 8.62499C8.81941 8.37499 9.51386 8.40277 10.2083 8.70833L12.7916 9.79166C13.0972 9.56944 13.4166 9.36111 13.75 9.16666C14.0833 8.97222 14.4166 8.80555 14.75 8.66666L15.125 5.91666C15.2361 5.19444 15.5625 4.58333 16.1041 4.08333C16.6458 3.58333 17.2916 3.33333 18.0416 3.33333H21.9583C22.7083 3.33333 23.3541 3.58333 23.8958 4.08333C24.4375 4.58333 24.7639 5.19444 24.875 5.91666L25.25 8.66666C25.6111 8.80555 25.9514 8.97222 26.2708 9.16666C26.5902 9.36111 26.9027 9.56944 27.2083 9.79166L29.7916 8.70833C30.4861 8.40277 31.1805 8.37499 31.875 8.62499C32.5694 8.87499 33.1111 9.31944 33.5 9.95833L35.4583 13.375C35.8472 14.0139 35.9583 14.6944 35.7916 15.4167C35.625 16.1389 35.25 16.7361 34.6666 17.2083L32.4583 18.875C32.4861 19.0694 32.5 19.2569 32.5 19.4375V20.5625C32.5 20.7431 32.4722 20.9305 32.4166 21.125L34.625 22.7917C35.2083 23.2639 35.5833 23.8611 35.75 24.5833C35.9166 25.3055 35.8055 25.9861 35.4166 26.625L33.4166 30.0417C33.0277 30.6805 32.4861 31.125 31.7916 31.375C31.0972 31.625 30.4027 31.5972 29.7083 31.2917L27.2083 30.2083C26.9027 30.4305 26.5833 30.6389 26.25 30.8333C25.9166 31.0278 25.5833 31.1944 25.25 31.3333L24.875 34.0833C24.7639 34.8056 24.4375 35.4167 23.8958 35.9167C23.3541 36.4167 22.7083 36.6667 21.9583 36.6667H18.0416ZM18.3333 33.3333H21.625L22.2083 28.9167C23.0694 28.6944 23.868 28.368 24.6041 27.9375C25.3402 27.5069 26.0139 26.9861 26.625 26.375L30.75 28.0833L32.375 25.25L28.7916 22.5417C28.9305 22.1528 29.0277 21.7431 29.0833 21.3125C29.1389 20.8819 29.1666 20.4444 29.1666 20C29.1666 19.5555 29.1389 19.1181 29.0833 18.6875C29.0277 18.2569 28.9305 17.8472 28.7916 17.4583L32.375 14.75L30.75 11.9167L26.625 13.6667C26.0139 13.0278 25.3402 12.4931 24.6041 12.0625C23.868 11.6319 23.0694 11.3056 22.2083 11.0833L21.6666 6.66666H18.375L17.7916 11.0833C16.9305 11.3056 16.1319 11.6319 15.3958 12.0625C14.6597 12.4931 13.9861 13.0139 13.375 13.625L9.24997 11.9167L7.62497 14.75L11.2083 17.4167C11.0694 17.8333 10.9722 18.25 10.9166 18.6667C10.8611 19.0833 10.8333 19.5278 10.8333 20C10.8333 20.4444 10.8611 20.875 10.9166 21.2917C10.9722 21.7083 11.0694 22.125 11.2083 22.5417L7.62497 25.25L9.24997 28.0833L13.375 26.3333C13.9861 26.9722 14.6597 27.5069 15.3958 27.9375C16.1319 28.368 16.9305 28.6944 17.7916 28.9167L18.3333 33.3333ZM20.0833 25.8333C21.6944 25.8333 23.0694 25.2639 24.2083 24.125C25.3472 22.9861 25.9166 21.6111 25.9166 20C25.9166 18.3889 25.3472 17.0139 24.2083 15.875C23.0694 14.7361 21.6944 14.1667 20.0833 14.1667C18.4444 14.1667 17.0625 14.7361 15.9375 15.875C14.8125 17.0139 14.25 18.3889 14.25 20C14.25 21.6111 14.8125 22.9861 15.9375 24.125C17.0625 25.2639 18.4444 25.8333 20.0833 25.8333Z" fill="#5F6368"/>
</g>
</svg>
