<svg width="30" height="34" viewBox="0 0 30 34" fill="none" xmlns="http://www.w3.org/2000/svg">
<path d="M15 6.66667H18.8888V2.77792H15V6.66667ZM2.77792 20.2779H6.66667V16.3888H2.77792V20.2779ZM23.3333 30.5554H27.2221V26.6667H23.3333V30.5554ZM20.5554 30.5554V29.3054L8.05542 23.0554H2.77792C2.01403 23.0554 1.36 22.7835 0.815833 22.2396C0.271945 21.6957 0 21.0418 0 20.2779V16.3888C0 15.6249 0.271945 14.971 0.815833 14.4271C1.36 13.8832 2.01403 13.6113 2.77792 13.6113H7.25L12.2221 8.01375V2.77792C12.2221 2.01403 12.4942 1.36 13.0383 0.815834C13.5822 0.271945 14.2361 0 15 0H18.8888C19.6526 0 20.3067 0.271945 20.8508 0.815834C21.3947 1.36 21.6667 2.01403 21.6667 2.77792V6.66667C21.6667 7.43056 21.3947 8.08445 20.8508 8.62833C20.3067 9.1725 19.6526 9.44458 18.8888 9.44458H14.6667L9.44458 15.3333V20.6667L20.625 26.2221C20.7175 25.5649 21.0207 25.0117 21.5346 24.5625C22.0485 24.1133 22.6481 23.8888 23.3333 23.8888H27.2221C27.986 23.8888 28.64 24.1608 29.1842 24.705C29.7281 25.2489 30 25.9028 30 26.6667V30.5554C30 31.3193 29.7281 31.9733 29.1842 32.5175C28.64 33.0614 27.986 33.3333 27.2221 33.3333H23.3333C22.5694 33.3333 21.9156 33.0614 21.3717 32.5175C20.8275 31.9733 20.5554 31.3193 20.5554 30.5554Z" fill="#77777B"/>
</svg>
