<svg width="34" height="32" viewBox="0 0 34 32" fill="none" xmlns="http://www.w3.org/2000/svg">
<path d="M9.42583 7.44958L14.2363 1.20833C14.551 0.801111 14.9197 0.497916 15.3425 0.298749C15.7656 0.0995826 16.2078 0 16.6692 0C17.1306 0 17.5718 0.0995826 17.9929 0.298749C18.4143 0.497916 18.7824 0.801111 19.0971 1.20833L23.9075 7.44958L31.2083 9.90292C31.875 10.1251 32.3982 10.5128 32.7779 11.0658C33.1574 11.6186 33.3471 12.2294 33.3471 12.8983C33.3471 13.2069 33.3028 13.5153 33.2142 13.8233C33.1258 14.1311 32.9804 14.4261 32.7779 14.7083L28.0833 21.4029L28.25 28.4862C28.2592 29.3843 27.9582 30.1436 27.3471 30.7642C26.736 31.3844 26.0122 31.6946 25.1758 31.6946C25.1233 31.6946 24.8471 31.6529 24.3471 31.5696L16.6667 29.4308L8.99208 31.5675C8.84931 31.6244 8.69903 31.6599 8.54125 31.6737C8.38375 31.6876 8.23931 31.6946 8.10792 31.6946C7.26736 31.6946 6.54625 31.3826 5.94458 30.7587C5.34264 30.1349 5.05556 29.3681 5.08333 28.4583L5.25 21.3542L0.569583 14.6808C0.367083 14.3969 0.221528 14.1001 0.132917 13.7904C0.0443057 13.4807 0 13.171 0 12.8612C0 12.2037 0.186805 11.6032 0.560417 11.0596C0.93375 10.516 1.45528 10.1304 2.125 9.90292L9.42583 7.44958ZM11.1113 9.8475L2.61125 12.6808L8.05542 20.5558L7.86125 28.9583L16.6667 26.5279L25.4721 29L25.2779 20.5558L30.7221 12.7642L22.2221 9.8475L16.6667 2.61125L11.1113 9.8475Z" fill="#5F6368"/>
</svg>
