<svg width="40" height="40" viewBox="0 0 40 40" fill="none" xmlns="http://www.w3.org/2000/svg">
<mask id="mask0_347_1797" style="mask-type:alpha" maskUnits="userSpaceOnUse" x="0" y="0" width="40" height="40">
<rect width="40" height="40" fill="#D9D9D9"/>
</mask>
<g mask="url(#mask0_347_1797)">
<path d="M12.7592 10.755L17.5696 4.51375C17.8843 4.10653 18.2531 3.80334 18.6758 3.60417C19.0989 3.405 19.5411 3.30542 20.0025 3.30542C20.4639 3.30542 20.9051 3.405 21.3262 3.60417C21.7476 3.80334 22.1157 4.10653 22.4304 4.51375L27.2408 10.755L34.5417 13.2083C35.2083 13.4306 35.7315 13.8182 36.1112 14.3713C36.4907 14.924 36.6804 15.5349 36.6804 16.2038C36.6804 16.5124 36.6361 16.8207 36.5475 17.1288C36.4592 17.4365 36.3137 17.7315 36.1112 18.0138L31.4167 24.7083L31.5833 31.7917C31.5925 32.6897 31.2915 33.449 30.6804 34.0696C30.0693 34.6899 29.3456 35 28.5092 35C28.4567 35 28.1804 34.9583 27.6804 34.875L20 32.7363L12.3254 34.8729C12.1826 34.9299 12.0324 34.9653 11.8746 34.9792C11.7171 34.9931 11.5726 35 11.4412 35C10.6007 35 9.87958 34.6881 9.27791 34.0642C8.67597 33.4403 8.38888 32.6735 8.41666 31.7638L8.58333 24.6596L3.90291 17.9863C3.70041 17.7024 3.55486 17.4056 3.46625 17.0958C3.37763 16.7861 3.33333 16.4764 3.33333 16.1667C3.33333 15.5092 3.52013 14.9086 3.89374 14.365C4.26708 13.8214 4.78861 13.4358 5.45833 13.2083L12.7592 10.755ZM14.4446 13.1529L5.94458 15.9863L11.3887 23.8613L11.1946 32.2638L20 29.8333L28.8054 32.3054L28.6112 23.8613L34.0554 16.0696L25.5554 13.1529L20 5.91667L14.4446 13.1529Z" fill="#5F6368"/>
</g>
</svg>
