<svg width="40" height="40" viewBox="0 0 40 40" fill="none" xmlns="http://www.w3.org/2000/svg">
<path fill-rule="evenodd" clip-rule="evenodd" d="M25.3229 9.9057C24.9543 9.85674 24.5783 9.83147 24.1964 9.83147C19.5164 9.83147 15.7225 13.6254 15.7225 18.3054C15.7225 22.9854 19.5164 26.7792 24.1964 26.7792C27.0175 26.7792 29.5166 25.4007 31.0568 23.2805C29.6511 27.9207 25.341 31.2985 20.2419 31.2985C14.0019 31.2985 8.94336 26.24 8.94336 20C8.94336 13.76 14.0019 8.70149 20.2419 8.70149C22.0693 8.70149 23.7955 9.13536 25.3229 9.9057Z" fill="#141420"/>
<path d="M25.3229 9.9057L25.2439 10.5005C25.5341 10.539 25.8098 10.3625 25.8962 10.0828C25.9826 9.80305 25.8545 9.50181 25.5931 9.36997L25.3229 9.9057ZM31.0568 23.2805L31.631 23.4545C31.7159 23.1742 31.5861 22.8735 31.3238 22.7432C31.0615 22.6129 30.7435 22.6909 30.5714 22.9279L31.0568 23.2805ZM24.1964 10.4315C24.5518 10.4315 24.9015 10.455 25.2439 10.5005L25.4019 9.31092C25.0072 9.2585 24.6048 9.23147 24.1964 9.23147V10.4315ZM16.3225 18.3054C16.3225 13.9567 19.8478 10.4315 24.1964 10.4315V9.23147C19.185 9.23147 15.1225 13.294 15.1225 18.3054H16.3225ZM24.1964 26.1792C19.8478 26.1792 16.3225 22.654 16.3225 18.3054H15.1225C15.1225 23.3167 19.185 27.3792 24.1964 27.3792V26.1792ZM30.5714 22.9279C29.1392 24.8993 26.8173 26.1792 24.1964 26.1792V27.3792C27.2177 27.3792 29.894 25.9021 31.5422 23.6332L30.5714 22.9279ZM30.4826 23.1066C29.1514 27.5008 25.0693 30.6985 20.2419 30.6985V31.8985C25.6127 31.8985 30.1509 28.3406 31.631 23.4545L30.4826 23.1066ZM20.2419 30.6985C14.3332 30.6985 9.54336 25.9086 9.54336 20H8.34336C8.34336 26.5714 13.6705 31.8985 20.2419 31.8985V30.6985ZM9.54336 20C9.54336 14.0914 14.3332 9.30149 20.2419 9.30149V8.10149C13.6705 8.10149 8.34336 13.4286 8.34336 20H9.54336ZM20.2419 9.30149C21.9734 9.30149 23.6072 9.71237 25.0527 10.4414L25.5931 9.36997C23.9838 8.55834 22.1653 8.10149 20.2419 8.10149V9.30149Z" fill="#141420"/>
</svg>
