<svg width="24" height="25" viewBox="0 0 24 25" fill="none" xmlns="http://www.w3.org/2000/svg">
<path fill-rule="evenodd" clip-rule="evenodd" d="M17.3795 2.2042C17.011 2.15525 16.635 2.12998 16.253 2.12998C11.573 2.12998 7.77915 5.92387 7.77915 10.6039C7.77915 15.2839 11.573 19.0778 16.253 19.0778C19.0741 19.0778 21.5732 17.6992 23.1134 15.579C21.7078 20.2192 17.3976 23.597 12.2985 23.597C6.05852 23.597 1 18.5385 1 12.2985C1 6.05852 6.05852 1 12.2985 1C14.126 1 15.8521 1.43386 17.3795 2.2042Z" fill="#141420"/>
<path d="M17.3795 2.2042L17.3005 2.79898C17.5907 2.83753 17.8664 2.661 17.9528 2.38128C18.0392 2.10155 17.9111 1.80032 17.6497 1.66848L17.3795 2.2042ZM23.1134 15.579L23.6877 15.753C23.7726 15.4727 23.6427 15.172 23.3804 15.0417C23.1182 14.9114 22.8001 14.9894 22.628 15.2264L23.1134 15.579ZM16.253 2.72998C16.6085 2.72998 16.9581 2.7535 17.3005 2.79898L17.4585 1.60943C17.0639 1.55701 16.6615 1.52998 16.253 1.52998V2.72998ZM8.37915 10.6039C8.37915 6.25524 11.9044 2.72998 16.253 2.72998V1.52998C11.2417 1.52998 7.17915 5.5925 7.17915 10.6039H8.37915ZM16.253 18.4778C11.9044 18.4778 8.37915 14.9525 8.37915 10.6039H7.17915C7.17915 15.6152 11.2417 19.6778 16.253 19.6778V18.4778ZM22.628 15.2264C21.1958 17.1978 18.8739 18.4778 16.253 18.4778V19.6778C19.2743 19.6778 21.9506 18.2006 23.5989 15.9317L22.628 15.2264ZM22.5392 15.4051C21.2081 19.7993 17.1259 22.997 12.2985 22.997V24.197C17.6693 24.197 22.2075 20.6391 23.6877 15.753L22.5392 15.4051ZM12.2985 22.997C6.38989 22.997 1.6 18.2071 1.6 12.2985H0.4C0.4 18.8699 5.72715 24.197 12.2985 24.197V22.997ZM1.6 12.2985C1.6 6.38989 6.38989 1.6 12.2985 1.6V0.4C5.72715 0.4 0.4 5.72715 0.4 12.2985H1.6ZM12.2985 1.6C14.03 1.6 15.6638 2.01088 17.1093 2.73993L17.6497 1.66848C16.0404 0.856843 14.2219 0.4 12.2985 0.4V1.6Z" fill="#141420"/>
</svg>
