<svg width="66" height="67" viewBox="0 0 66 67" fill="none" xmlns="http://www.w3.org/2000/svg">
<path d="M14.9225 30.5C4.42236 42 5.92244 40.5 2.92247 42.5C0.422363 43.5 2.92232 51 11.4225 47C12.7558 46.5 16.0225 44 18.4225 38" stroke="#EEF0DE" stroke-width="3.5" stroke-linecap="round"/>
<path d="M50.9225 30.5C61.4226 42 59.9225 40.5 62.9225 42.5C65.4226 43.5 62.9227 51 54.4225 47C53.0892 46.5 49.8225 44 47.4225 38" stroke="#EEF0DE" stroke-width="3.5" stroke-linecap="round"/>
<path d="M17.4224 24C21.8224 12 30.9224 3.49998 33.4224 2.49998C34.2224 1.69998 38.089 5.49998 39.9224 7.49998C43.8031 11.7335 47.4224 19.6667 48.9224 23.5C62.1224 28.7 65.4224 31.7 63.9224 32C59.9224 32.8 57.4224 32 53.4224 30.5C48.4224 28.5 26.9224 29 25.9224 29C21.1224 29 10.9224 31.3333 6.42242 32.5C2.42242 33.3 2.08909 32.1666 2.42242 31.5C3.22242 29.5 12.7558 25.6666 17.4224 24Z" stroke="#EEF0DE" stroke-width="3.5"/>
<path d="M20.4224 30C18.9224 33.8333 16.9224 40 20.4224 44.5C20.4224 44.5 22.4224 47.5 32.9225 47.5" stroke="#EEF0DE" stroke-width="3.5" stroke-linecap="round"/>
<circle cx="25.9224" cy="38" r="2" fill="#EEF0DE"/>
<circle cx="39.9224" cy="38" r="2" fill="#EEF0DE"/>
<path d="M29.4224 60L26.4224 63.5C28.9224 64.8333 36.4224 65 38.9224 63.5L35.9224 60" stroke="#EEF0DE" stroke-width="3.5" stroke-linecap="round" stroke-linejoin="round"/>
<mask id="path-8-inside-1_2514_7823" fill="white">
<path fill-rule="evenodd" clip-rule="evenodd" d="M42.9224 51C42.9224 56.5228 38.4452 61 32.9224 61C27.3995 61 22.9224 56.5228 22.9224 51C22.9224 45.4772 27.3995 41 32.9224 41C38.4452 41 42.9224 45.4772 42.9224 51ZM37.9797 44.5C38.2558 44.5034 38.4769 44.73 38.4736 45.0061C38.473 45.0555 38.473 45.1081 38.4732 45.1632C38.5063 45.2189 38.5292 45.2819 38.5387 45.3501C38.6425 46.0951 38.7456 46.608 39.1672 46.9529C39.3641 47.114 39.6164 47.2502 39.8879 47.3737C39.906 47.3819 39.9217 47.3881 39.9449 47.3974C39.9589 47.4029 39.9757 47.4096 39.9974 47.4185L40.0025 47.4205C40.0327 47.4326 40.1349 47.4735 40.2162 47.539L40.2174 47.5399C40.2453 47.5623 40.4363 47.7157 40.4147 47.9893C40.3917 48.2803 40.1571 48.3989 40.1211 48.417C40.0078 48.474 39.8709 48.4928 39.788 48.5032C39.7834 48.5064 39.7741 48.5136 39.7581 48.5282C39.7452 48.54 39.7311 48.5537 39.7114 48.5731L39.704 48.5804C39.6869 48.5972 39.6655 48.6184 39.6434 48.6392C39.591 48.6887 39.5209 48.7507 39.4314 48.8082C39.2751 48.9087 39.1452 49.1516 39.0796 49.5949C39.0269 49.951 39.0294 50.3285 39.0315 50.671V50.6715C39.032 50.7382 39.0324 50.8036 39.0324 50.8672C39.0324 51.1434 38.8085 51.3672 38.5324 51.3672C38.5087 51.3672 38.4854 51.3656 38.4626 51.3624C38.4398 51.3656 38.4164 51.3673 38.3927 51.3673C38.1166 51.3673 37.8927 51.1434 37.8927 50.8673C37.8927 50.8021 37.8651 50.718 37.7752 50.5246L37.7576 50.4871C37.6834 50.3293 37.5653 50.0782 37.5448 49.8021C37.5367 49.6927 37.466 49.5242 37.3069 49.3165C37.1558 49.119 36.9633 48.936 36.7998 48.8052C36.5927 48.6395 36.3414 48.5102 36.0591 48.3986C36.0604 48.3991 36.0601 48.399 36.0566 48.3981L36.0565 48.398C36.0505 48.3963 36.0353 48.392 36.0032 48.3837L35.9953 48.3817C35.9624 48.3733 35.8919 48.3552 35.832 48.3311L35.8316 48.331C35.8062 48.3208 35.7199 48.2861 35.641 48.2105C35.597 48.1684 35.5278 48.0876 35.4961 47.9638C35.4608 47.8261 35.4868 47.6948 35.541 47.5934C35.6233 47.4395 35.7592 47.3732 35.7906 47.3579L35.7926 47.3569C35.8458 47.3308 35.9004 47.3125 35.9452 47.2991C36.2886 47.197 36.7039 47.0205 37.0064 46.8428C37.254 46.6974 37.371 46.4865 37.4284 46.1758C37.4762 45.9169 37.4749 45.6479 37.4733 45.3361V45.336C37.4727 45.2276 37.4722 45.114 37.4736 44.9939C37.477 44.7178 37.7036 44.4967 37.9797 44.5ZM38.2233 48.8803C38.3408 48.5351 38.5389 48.1969 38.8814 47.973C38.7621 47.8991 38.6447 47.8175 38.534 47.7269C38.3409 47.5689 38.1886 47.3922 38.0673 47.2053C37.9319 47.3936 37.7517 47.5648 37.5128 47.7051C37.4181 47.7607 37.3163 47.8154 37.2104 47.8682C37.2832 47.9167 37.3548 47.9686 37.4245 48.0244C37.6349 48.1927 37.8894 48.4321 38.101 48.7086C38.1421 48.7623 38.1834 48.8197 38.2233 48.8803ZM39.7321 47.5C39.7324 47.5 39.7326 47.4999 39.7327 47.4999L39.7291 47.5007L39.7321 47.5ZM35.1099 49.8783C35.386 49.8783 35.6099 50.1022 35.6099 50.3783V51.2753H36.0877C36.3638 51.2753 36.5877 51.4991 36.5877 51.7753C36.5877 52.0514 36.3638 52.2753 36.0877 52.2753H35.6099V53.1722C35.6099 53.4484 35.386 53.6722 35.1099 53.6722C34.8337 53.6722 34.6099 53.4484 34.6099 53.1722V52.2753H33.9224C33.6462 52.2753 33.4224 52.0514 33.4224 51.7753C33.4224 51.4991 33.6462 51.2753 33.9224 51.2753H34.6099V50.3783C34.6099 50.1022 34.8337 49.8783 35.1099 49.8783Z"/>
</mask>
<path fill-rule="evenodd" clip-rule="evenodd" d="M42.9224 51C42.9224 56.5228 38.4452 61 32.9224 61C27.3995 61 22.9224 56.5228 22.9224 51C22.9224 45.4772 27.3995 41 32.9224 41C38.4452 41 42.9224 45.4772 42.9224 51ZM37.9797 44.5C38.2558 44.5034 38.4769 44.73 38.4736 45.0061C38.473 45.0555 38.473 45.1081 38.4732 45.1632C38.5063 45.2189 38.5292 45.2819 38.5387 45.3501C38.6425 46.0951 38.7456 46.608 39.1672 46.9529C39.3641 47.114 39.6164 47.2502 39.8879 47.3737C39.906 47.3819 39.9217 47.3881 39.9449 47.3974C39.9589 47.4029 39.9757 47.4096 39.9974 47.4185L40.0025 47.4205C40.0327 47.4326 40.1349 47.4735 40.2162 47.539L40.2174 47.5399C40.2453 47.5623 40.4363 47.7157 40.4147 47.9893C40.3917 48.2803 40.1571 48.3989 40.1211 48.417C40.0078 48.474 39.8709 48.4928 39.788 48.5032C39.7834 48.5064 39.7741 48.5136 39.7581 48.5282C39.7452 48.54 39.7311 48.5537 39.7114 48.5731L39.704 48.5804C39.6869 48.5972 39.6655 48.6184 39.6434 48.6392C39.591 48.6887 39.5209 48.7507 39.4314 48.8082C39.2751 48.9087 39.1452 49.1516 39.0796 49.5949C39.0269 49.951 39.0294 50.3285 39.0315 50.671V50.6715C39.032 50.7382 39.0324 50.8036 39.0324 50.8672C39.0324 51.1434 38.8085 51.3672 38.5324 51.3672C38.5087 51.3672 38.4854 51.3656 38.4626 51.3624C38.4398 51.3656 38.4164 51.3673 38.3927 51.3673C38.1166 51.3673 37.8927 51.1434 37.8927 50.8673C37.8927 50.8021 37.8651 50.718 37.7752 50.5246L37.7576 50.4871C37.6834 50.3293 37.5653 50.0782 37.5448 49.8021C37.5367 49.6927 37.466 49.5242 37.3069 49.3165C37.1558 49.119 36.9633 48.936 36.7998 48.8052C36.5927 48.6395 36.3414 48.5102 36.0591 48.3986C36.0604 48.3991 36.0601 48.399 36.0566 48.3981L36.0565 48.398C36.0505 48.3963 36.0353 48.392 36.0032 48.3837L35.9953 48.3817C35.9624 48.3733 35.8919 48.3552 35.832 48.3311L35.8316 48.331C35.8062 48.3208 35.7199 48.2861 35.641 48.2105C35.597 48.1684 35.5278 48.0876 35.4961 47.9638C35.4608 47.8261 35.4868 47.6948 35.541 47.5934C35.6233 47.4395 35.7592 47.3732 35.7906 47.3579L35.7926 47.3569C35.8458 47.3308 35.9004 47.3125 35.9452 47.2991C36.2886 47.197 36.7039 47.0205 37.0064 46.8428C37.254 46.6974 37.371 46.4865 37.4284 46.1758C37.4762 45.9169 37.4749 45.6479 37.4733 45.3361V45.336C37.4727 45.2276 37.4722 45.114 37.4736 44.9939C37.477 44.7178 37.7036 44.4967 37.9797 44.5ZM38.2233 48.8803C38.3408 48.5351 38.5389 48.1969 38.8814 47.973C38.7621 47.8991 38.6447 47.8175 38.534 47.7269C38.3409 47.5689 38.1886 47.3922 38.0673 47.2053C37.9319 47.3936 37.7517 47.5648 37.5128 47.7051C37.4181 47.7607 37.3163 47.8154 37.2104 47.8682C37.2832 47.9167 37.3548 47.9686 37.4245 48.0244C37.6349 48.1927 37.8894 48.4321 38.101 48.7086C38.1421 48.7623 38.1834 48.8197 38.2233 48.8803ZM39.7321 47.5C39.7324 47.5 39.7326 47.4999 39.7327 47.4999L39.7291 47.5007L39.7321 47.5ZM35.1099 49.8783C35.386 49.8783 35.6099 50.1022 35.6099 50.3783V51.2753H36.0877C36.3638 51.2753 36.5877 51.4991 36.5877 51.7753C36.5877 52.0514 36.3638 52.2753 36.0877 52.2753H35.6099V53.1722C35.6099 53.4484 35.386 53.6722 35.1099 53.6722C34.8337 53.6722 34.6099 53.4484 34.6099 53.1722V52.2753H33.9224C33.6462 52.2753 33.4224 52.0514 33.4224 51.7753C33.4224 51.4991 33.6462 51.2753 33.9224 51.2753H34.6099V50.3783C34.6099 50.1022 34.8337 49.8783 35.1099 49.8783Z" fill="#EEF0DE"/>
<path d="M38.4736 45.0061L34.9738 44.9634L34.9738 44.9634L38.4736 45.0061ZM38.4732 45.1632L34.9732 45.1778L34.9772 46.1337L35.4666 46.955L38.4732 45.1632ZM38.5387 45.3501L42.0052 44.867L42.0052 44.867L38.5387 45.3501ZM39.1672 46.9529L41.3835 44.2441L41.3835 44.2441L39.1672 46.9529ZM39.8879 47.3737L38.4396 50.5599L38.4396 50.5599L39.8879 47.3737ZM39.9449 47.3974L41.2384 44.1452L41.2384 44.1451L39.9449 47.3974ZM39.9974 47.4185L38.6752 50.6591L38.6829 50.6622L38.6906 50.6654L39.9974 47.4185ZM40.0025 47.4205L38.6957 50.6674L38.7011 50.6696L40.0025 47.4205ZM40.2162 47.539L38.0208 50.2648L38.0243 50.2677L40.2162 47.539ZM40.2174 47.5399L38.0254 50.2686L38.0264 50.2694L40.2174 47.5399ZM40.4147 47.9893L43.9038 48.2648L43.9038 48.2648L40.4147 47.9893ZM40.1211 48.417L38.549 45.29L38.5489 45.29L40.1211 48.417ZM39.788 48.5032L39.3527 45.0304L38.482 45.1395L37.7658 45.6465L39.788 48.5032ZM39.7581 48.5282L37.3952 45.9463L37.395 45.9464L39.7581 48.5282ZM39.7114 48.5731L37.2566 46.0783L37.2556 46.0793L39.7114 48.5731ZM39.704 48.5804L37.2482 46.0866L37.2475 46.0872L39.704 48.5804ZM39.6434 48.6392L37.2388 46.096L37.2388 46.096L39.6434 48.6392ZM39.4314 48.8082L37.5387 45.8641L37.5387 45.8641L39.4314 48.8082ZM39.0796 49.5949L35.6173 49.0825L35.6173 49.0825L39.0796 49.5949ZM39.0315 50.671H42.5315V50.6598L42.5315 50.6486L39.0315 50.671ZM39.0315 50.6715H35.5315V50.6827L35.5316 50.6939L39.0315 50.6715ZM38.4626 51.3624L38.9466 47.896L38.4621 47.8284L37.9776 47.8962L38.4626 51.3624ZM37.7752 50.5246L40.9489 49.049L40.9444 49.0394L37.7752 50.5246ZM37.7576 50.4871L40.9268 49.0019L40.9247 48.9974L37.7576 50.4871ZM37.5448 49.8021L41.0353 49.5436L41.0353 49.5436L37.5448 49.8021ZM37.3069 49.3165L34.5277 51.4438L34.5277 51.4438L37.3069 49.3165ZM36.7998 48.8052L38.9862 46.0722L38.9862 46.0722L36.7998 48.8052ZM36.0591 48.3986L37.3455 45.1436L34.7723 51.6535L36.0591 48.3986ZM36.0566 48.3981L35.0951 51.7634L35.1065 51.7666L36.0566 48.3981ZM36.0565 48.398L37.0181 45.0327L37.0064 45.0294L36.0565 48.398ZM36.0032 48.3837L36.8802 44.9954L36.8739 44.9938L36.0032 48.3837ZM35.9953 48.3817L36.8659 44.9917L36.8635 44.9911L35.9953 48.3817ZM35.832 48.3311L37.1376 45.0838L37.1368 45.0835L35.832 48.3311ZM35.8316 48.331L34.5262 51.5784L34.5267 51.5786L35.8316 48.331ZM35.641 48.2105L38.0613 45.6823L38.0612 45.6822L35.641 48.2105ZM35.4961 47.9638L32.1058 48.8333L32.1058 48.8333L35.4961 47.9638ZM35.541 47.5934L38.6276 49.2435L38.6276 49.2434L35.541 47.5934ZM35.7906 47.3579L37.3252 50.5035L37.3275 50.5024L35.7906 47.3579ZM35.7926 47.3569L37.3295 50.5014L37.3333 50.4995L35.7926 47.3569ZM35.9452 47.2991L36.9426 50.654L36.9426 50.654L35.9452 47.2991ZM37.0064 46.8428L38.7789 49.8608L38.7789 49.8608L37.0064 46.8428ZM37.4284 46.1758L33.9866 45.5398L33.9866 45.5398L37.4284 46.1758ZM37.4733 45.3361H33.9733V45.3449L33.9733 45.3537L37.4733 45.3361ZM37.4733 45.336H40.9733V45.3272L40.9732 45.3184L37.4733 45.336ZM37.4736 44.9939L40.9734 45.0366L37.4736 44.9939ZM38.8814 47.973L40.7965 50.9026L45.3999 47.8932L40.7242 44.9975L38.8814 47.973ZM38.2233 48.8803L35.3 50.805L39.2325 56.7779L41.5366 50.008L38.2233 48.8803ZM38.534 47.7269L36.3176 50.4357L36.3177 50.4357L38.534 47.7269ZM38.0673 47.2053L41.0033 45.3001L38.2168 41.006L35.2265 45.1608L38.0673 47.2053ZM37.5128 47.7051L39.2853 50.7231L39.2853 50.7231L37.5128 47.7051ZM37.2104 47.8682L35.6507 44.7349L30.2375 47.4295L35.2703 50.7813L37.2104 47.8682ZM37.4245 48.0244L39.6109 45.2913L39.6109 45.2913L37.4245 48.0244ZM38.101 48.7086L40.8803 46.5813L40.8803 46.5813L38.101 48.7086ZM39.7327 47.4999L40.8058 50.8313L38.9105 44.0978L39.7327 47.4999ZM39.7321 47.5L40.5321 50.9074L40.5739 50.8976L40.6154 50.8868L39.7321 47.5ZM39.7291 47.5007L38.9069 44.0987L40.5291 50.9081L39.7291 47.5007ZM35.6099 51.2753H32.1099V54.7753H35.6099V51.2753ZM35.6099 52.2753V48.7753H32.1099V52.2753H35.6099ZM34.6099 52.2753H38.1099V48.7753H34.6099V52.2753ZM34.6099 51.2753V54.7753H38.1099V51.2753H34.6099ZM32.9224 64.5C40.3782 64.5 46.4224 58.4558 46.4224 51H39.4224C39.4224 54.5899 36.5122 57.5 32.9224 57.5V64.5ZM19.4224 51C19.4224 58.4558 25.4665 64.5 32.9224 64.5V57.5C29.3325 57.5 26.4224 54.5899 26.4224 51H19.4224ZM32.9224 37.5C25.4665 37.5 19.4224 43.5442 19.4224 51H26.4224C26.4224 47.4101 29.3325 44.5 32.9224 44.5V37.5ZM46.4224 51C46.4224 43.5442 40.3782 37.5 32.9224 37.5V44.5C36.5122 44.5 39.4224 47.4101 39.4224 51H46.4224ZM41.9733 45.0488C42.0002 42.8398 40.2314 41.0272 38.0224 41.0003L37.937 47.9998C36.2803 47.9796 34.9536 46.6202 34.9738 44.9634L41.9733 45.0488ZM41.9732 45.1487C41.973 45.1009 41.973 45.0702 41.9733 45.0488L34.9738 44.9634C34.9729 45.0409 34.973 45.1153 34.9732 45.1778L41.9732 45.1487ZM42.0052 44.867C41.9301 44.328 41.7477 43.821 41.4798 43.3715L35.4666 46.955C35.265 46.6167 35.1283 46.2358 35.0722 45.8331L42.0052 44.867ZM41.3835 44.2441C41.5624 44.3904 41.7164 44.5643 41.8375 44.7499C41.9537 44.9281 42.014 45.078 42.0416 45.1576C42.0669 45.2309 42.0685 45.2569 42.0567 45.1965C42.0446 45.1343 42.0291 45.0387 42.0052 44.867L35.0722 45.8331C35.1465 46.3662 35.3152 48.3235 36.9509 49.6618L41.3835 44.2441ZM41.3362 44.1874C41.3027 44.1722 41.2782 44.1603 41.2609 44.1516C41.2435 44.1429 41.2367 44.1389 41.2383 44.1399C41.2398 44.1407 41.2537 44.1487 41.277 44.1643C41.3001 44.1799 41.3371 44.2061 41.3835 44.2441L36.9509 49.6618C37.4958 50.1076 38.0696 50.3917 38.4396 50.5599L41.3362 44.1874ZM41.2384 44.1451C41.2316 44.1424 41.2309 44.1422 41.2312 44.1423C41.2322 44.1427 41.2384 44.1452 41.2475 44.1489C41.2686 44.1576 41.2996 44.1707 41.3362 44.1874L38.4396 50.5599C38.5468 50.6086 38.6401 50.6451 38.6514 50.6496L41.2384 44.1451ZM41.3197 44.1779C41.2826 44.1627 41.2536 44.1512 41.2384 44.1452L38.6514 50.6496C38.6643 50.6547 38.6688 50.6565 38.6752 50.6591L41.3197 44.1779ZM41.3093 44.1736L41.3042 44.1716L38.6906 50.6654L38.6957 50.6674L41.3093 44.1736ZM42.4117 44.8132C41.8793 44.3844 41.3283 44.1812 41.3039 44.1715L38.7011 50.6696C38.703 50.6703 38.6759 50.6596 38.6421 50.6449C38.609 50.6305 38.5648 50.6104 38.5131 50.5843C38.428 50.5413 38.2398 50.4412 38.0208 50.2648L42.4117 44.8132ZM42.4093 44.8113L42.4081 44.8104L38.0243 50.2677L38.0254 50.2686L42.4093 44.8113ZM43.9038 48.2648C44.0741 46.1086 42.5599 44.9322 42.4083 44.8105L38.0264 50.2694C38.0267 50.2696 38.0121 50.2579 37.9939 50.2429C37.9754 50.2276 37.9537 50.2093 37.9298 50.1884C37.8821 50.1466 37.8281 50.0967 37.7707 50.0384C37.6584 49.9245 37.5229 49.7686 37.3924 49.5661C37.1191 49.1418 36.8637 48.4966 36.9255 47.7138L43.9038 48.2648ZM41.6932 51.544C41.8497 51.4654 43.722 50.567 43.9038 48.2648L36.9255 47.7138C36.9908 46.8877 37.3814 46.2607 37.7565 45.8727C37.9331 45.69 38.1052 45.5591 38.2422 45.4681C38.3124 45.4215 38.3772 45.3828 38.4336 45.3512C38.4619 45.3354 38.4874 45.3217 38.5091 45.3104C38.5199 45.3048 38.5292 45.3 38.5366 45.2962C38.5437 45.2926 38.5491 45.2899 38.549 45.29L41.6932 51.544ZM40.2232 51.976C40.2705 51.9701 40.9745 51.9054 41.6933 51.544L38.5489 45.29C38.8384 45.1444 39.0764 45.0849 39.1799 45.0618C39.2926 45.0366 39.3756 45.0275 39.3527 45.0304L40.2232 51.976ZM42.1211 51.1101C42.0645 51.1619 41.9583 51.255 41.8102 51.3599L37.7658 45.6465C37.6086 45.7578 37.4837 45.8652 37.3952 45.9463L42.1211 51.1101ZM42.1661 51.068C42.1732 51.061 42.1712 51.063 42.1653 51.0687C42.1586 51.0751 42.1429 51.0902 42.1212 51.11L37.395 45.9464C37.3308 46.0052 37.2768 46.0585 37.2566 46.0783L42.1661 51.068ZM42.1597 51.0743L42.1671 51.067L37.2556 46.0793L37.2482 46.0866L42.1597 51.0743ZM42.048 51.1824C42.1 51.1332 42.1461 51.0877 42.1604 51.0736L37.2475 46.0872C37.2431 46.0916 37.2403 46.0944 37.2377 46.097C37.2352 46.0994 37.2337 46.1009 37.2328 46.1017C37.2307 46.1038 37.2331 46.1014 37.2388 46.096L42.048 51.1824ZM41.3241 51.7523C41.6715 51.529 41.9198 51.3037 42.048 51.1824L37.2388 46.096C37.2623 46.0738 37.3703 45.9724 37.5387 45.8641L41.3241 51.7523ZM42.5419 50.1073C42.541 50.1138 42.5344 50.1566 42.515 50.2273C42.4958 50.2969 42.4591 50.4122 42.3918 50.5561C42.2654 50.8262 41.9605 51.3432 41.3241 51.7523L37.5387 45.8641C36.0371 46.8294 35.7142 48.4282 35.6173 49.0825L42.5419 50.1073ZM42.5315 50.6486C42.5303 50.4676 42.53 50.3529 42.5333 50.2479C42.5348 50.1999 42.5368 50.1648 42.5388 50.1398C42.5408 50.1147 42.5423 50.1048 42.5419 50.1073L35.6173 49.0825C35.5186 49.75 35.5297 50.3997 35.5316 50.6935L42.5315 50.6486ZM42.5315 50.6715V50.671H35.5315V50.6715H42.5315ZM42.5324 50.8672C42.5324 50.7904 42.5319 50.7136 42.5315 50.6491L35.5316 50.6939C35.5321 50.7628 35.5324 50.8168 35.5324 50.8672H42.5324ZM38.5324 54.8672C40.7415 54.8672 42.5324 53.0764 42.5324 50.8672H35.5324C35.5324 49.2104 36.8755 47.8672 38.5324 47.8672V54.8672ZM37.9787 54.8288C38.1613 54.8543 38.3463 54.8672 38.5324 54.8672V47.8672C38.6712 47.8672 38.8096 47.8769 38.9466 47.896L37.9787 54.8288ZM38.3927 54.8673C38.5792 54.8673 38.7646 54.8542 38.9477 54.8286L37.9776 47.8962C38.1149 47.877 38.2536 47.8673 38.3927 47.8673V54.8673ZM34.3927 50.8673C34.3927 53.0764 36.1836 54.8673 38.3927 54.8673V47.8673C40.0495 47.8673 41.3927 49.2104 41.3927 50.8673H34.3927ZM34.6015 52.0003C34.6345 52.0713 34.5987 52.0021 34.5541 51.8711C34.5031 51.7213 34.3927 51.3566 34.3927 50.8673H41.3927C41.3927 49.8976 40.9766 49.1086 40.9489 49.049L34.6015 52.0003ZM34.5883 51.9723L34.6059 52.0099L40.9444 49.0394L40.9268 49.0019L34.5883 51.9723ZM34.0544 50.0607C34.129 51.0676 34.5391 51.8676 34.5904 51.9768L40.9247 48.9974C40.885 48.9129 40.9071 48.9551 40.931 49.0226C40.9556 49.0922 41.0155 49.2767 41.0353 49.5436L34.0544 50.0607ZM34.5277 51.4438C34.4872 51.3909 34.404 51.2738 34.3171 51.0896C34.2433 50.9332 34.0923 50.5731 34.0544 50.0607L41.0353 49.5436C40.9527 48.4294 40.4012 47.6006 40.0862 47.1891L34.5277 51.4438ZM34.6134 51.5383C34.6007 51.5282 34.5964 51.5239 34.5929 51.5204C34.59 51.5176 34.5836 51.5111 34.574 51.5004C34.5647 51.4898 34.5486 51.4712 34.5277 51.4438L40.0862 47.1891C39.7234 46.7151 39.3141 46.3345 38.9862 46.0722L34.6134 51.5383ZM34.7723 51.6535C34.8167 51.671 34.8191 51.6745 34.7939 51.6609C34.7679 51.6469 34.7011 51.6085 34.6134 51.5383L38.9862 46.0722C38.4066 45.6085 37.8063 45.3258 37.3459 45.1437L34.7723 51.6535ZM35.1065 51.7666C35.1065 51.7666 35.1084 51.7672 35.1104 51.7677C35.1122 51.7682 35.1171 51.7696 35.1232 51.7713C35.1283 51.7727 35.1418 51.7765 35.1591 51.7811C35.1681 51.7834 35.2171 51.7966 35.2799 51.8109C35.3061 51.8169 35.3861 51.8351 35.4897 51.8522C35.5391 51.8603 35.644 51.8767 35.7779 51.8876C35.8277 51.8916 36.2322 51.9315 36.7312 51.8339C36.9388 51.7934 37.6561 51.6438 38.3452 51.0498C38.7377 50.7114 39.1401 50.2098 39.3723 49.5291C39.6051 48.8469 39.5938 48.1991 39.4857 47.6823C39.2962 46.7763 38.8036 46.2155 38.6602 46.0563C38.4575 45.8313 38.2694 45.682 38.1769 45.6118C37.9858 45.4666 37.8221 45.3743 37.7681 45.3441C37.6933 45.3023 37.632 45.2716 37.5973 45.2547C37.5279 45.2208 37.4726 45.1966 37.451 45.1873C37.4238 45.1755 37.402 45.1665 37.3901 45.1616C37.367 45.1521 37.3487 45.1448 37.3455 45.1436L34.7726 51.6536C34.7699 51.6525 34.7518 51.6454 34.7289 51.636C34.7171 51.6311 34.6954 51.6221 34.6683 51.6104C34.6468 51.6011 34.5915 51.577 34.5223 51.5431C34.4876 51.5261 34.4262 51.4955 34.3515 51.4537C34.2975 51.4235 34.1338 51.3312 33.9427 51.186C33.8503 51.1158 33.6621 50.9666 33.4594 50.7415C33.316 50.5823 32.8235 50.0216 32.634 49.1155C32.5259 48.5987 32.5146 47.951 32.7473 47.2688C32.9795 46.5881 33.3819 46.0864 33.7745 45.748C34.4635 45.154 35.1809 45.0045 35.3885 44.9639C35.8875 44.8664 36.2919 44.9063 36.3417 44.9103C36.4756 44.9211 36.5804 44.9375 36.6298 44.9457C36.7334 44.9628 36.8133 44.9809 36.8394 44.9869C36.9516 45.0125 37.0839 45.0512 37.0067 45.0295L35.1065 51.7666ZM35.095 51.7634L35.0951 51.7634L37.0181 45.0327L37.0181 45.0327L35.095 51.7634ZM35.1262 51.7721C35.1305 51.7732 35.1293 51.7729 35.1237 51.7714C35.1208 51.7706 35.1173 51.7697 35.1134 51.7686C35.1093 51.7674 35.106 51.7665 35.1066 51.7667L37.0064 45.0294C36.9796 45.0218 36.9398 45.0108 36.8802 44.9954L35.1262 51.7721ZM35.1246 51.7717L35.1325 51.7737L36.8739 44.9938L36.8659 44.9917L35.1246 51.7717ZM34.5264 51.5785C34.8316 51.7012 35.1187 51.7702 35.127 51.7723L36.8635 44.9911C36.8491 44.9874 36.875 44.9938 36.9095 45.004C36.928 45.0094 36.9558 45.0179 36.9906 45.0295C37.0243 45.0408 37.0751 45.0587 37.1376 45.0838L34.5264 51.5785ZM34.5267 51.5786L34.5271 51.5788L37.1368 45.0835L37.1364 45.0833L34.5267 51.5786ZM33.2206 50.7388C33.801 51.2944 34.4051 51.5298 34.5262 51.5784L37.137 45.0835C37.1347 45.0826 37.1517 45.0894 37.1728 45.0982C37.1946 45.1074 37.2215 45.119 37.252 45.1329C37.3127 45.1605 37.3859 45.1963 37.4671 45.2418C37.6235 45.3295 37.8383 45.4689 38.0613 45.6823L33.2206 50.7388ZM32.1058 48.8333C32.3545 49.8029 32.8942 50.4263 33.2207 50.7388L38.0612 45.6822C38.2997 45.9105 38.7012 46.3724 38.8864 47.0943L32.1058 48.8333ZM32.4543 45.9434C32.0369 46.7244 31.8282 47.7507 32.1058 48.8333L38.8864 47.0943C39.0934 47.9015 38.9367 48.6652 38.6276 49.2435L32.4543 45.9434ZM34.2559 44.2122C34.0856 44.2953 33.0829 44.7675 32.4543 45.9435L38.6276 49.2434C38.3877 49.6923 38.0806 49.993 37.8427 50.1793C37.7219 50.2739 37.6094 50.3466 37.5156 50.4014C37.4682 50.4291 37.4255 50.4523 37.3894 50.4711C37.3536 50.4897 37.3249 50.5036 37.3252 50.5035L34.2559 44.2122ZM34.2557 44.2123L34.2537 44.2133L37.3275 50.5024L37.3295 50.5014L34.2557 44.2123ZM34.9478 43.9443C34.8206 43.9821 34.5562 44.065 34.2519 44.2142L37.3333 50.4995C37.2282 50.551 37.1396 50.5863 37.0778 50.609C37.0152 50.6319 36.9668 50.6468 36.9426 50.654L34.9478 43.9443ZM35.2339 43.8248C35.2392 43.8217 35.2297 43.8274 35.2042 43.8401C35.1797 43.8523 35.1483 43.8669 35.1121 43.8824C35.0333 43.9162 34.9716 43.9372 34.9478 43.9443L36.9426 50.654C37.534 50.4782 38.2126 50.1934 38.7789 49.8608L35.2339 43.8248ZM33.9866 45.5398C34.0068 45.4304 34.0769 45.1132 34.3059 44.7402C34.5577 44.33 34.8956 44.0235 35.2339 43.8248L38.7789 49.8608C40.1525 49.054 40.6885 47.7948 40.8701 46.8118L33.9866 45.5398ZM33.9733 45.3537C33.9737 45.4352 33.974 45.4918 33.9737 45.5432C33.9734 45.5927 33.9727 45.6215 33.9721 45.6383C33.9707 45.6727 33.9705 45.6272 33.9866 45.5398L40.8701 46.8118C40.9889 46.1691 40.9744 45.5561 40.9732 45.3185L33.9733 45.3537ZM33.9733 45.336V45.3361H40.9733V45.336H33.9733ZM33.9739 44.9512C33.972 45.1059 33.9728 45.2486 33.9733 45.3536L40.9732 45.3184C40.9727 45.2066 40.9723 45.1221 40.9734 45.0366L33.9739 44.9512ZM38.0224 41.0003C35.8134 40.9734 34.0008 42.7423 33.9739 44.9512L40.9734 45.0366C40.9532 46.6933 39.5938 48.02 37.937 47.9998L38.0224 41.0003ZM36.9663 45.0435C35.7514 45.8377 35.18 46.9593 34.9099 47.7526L41.5366 50.008C41.5016 50.1108 41.3263 50.5562 40.7965 50.9026L36.9663 45.0435ZM36.3177 50.4357C36.5673 50.64 36.8136 50.8092 37.0386 50.9486L40.7242 44.9975C40.7182 44.9937 40.7176 44.9931 40.7216 44.996C40.7256 44.9988 40.7356 45.006 40.7503 45.018L36.3177 50.4357ZM35.1313 49.1106C35.4363 49.5806 35.8264 50.0338 36.3176 50.4357L40.7503 45.018C40.8553 45.104 40.9409 45.2039 41.0033 45.3001L35.1313 49.1106ZM39.2853 50.7231C39.9489 50.3334 40.4913 49.8289 40.9081 49.2498L35.2265 45.1608C35.3724 44.9582 35.5546 44.7962 35.7403 44.6871L39.2853 50.7231ZM38.7701 51.0014C38.9385 50.9176 39.1122 50.8247 39.2853 50.7231L35.7403 44.6871C35.724 44.6967 35.6941 44.7133 35.6507 44.7349L38.7701 51.0014ZM39.6109 45.2913C39.4564 45.1677 39.3021 45.0561 39.1504 44.9551L35.2703 50.7813C35.2643 50.7772 35.2531 50.7695 35.2381 50.7574L39.6109 45.2913ZM40.8803 46.5813C40.457 46.0283 39.9858 45.5913 39.6109 45.2913L35.2381 50.7574C35.2517 50.7684 35.2743 50.7878 35.2972 50.8105C35.3077 50.821 35.3156 50.8295 35.3207 50.8352C35.3259 50.841 35.326 50.8415 35.3217 50.836L40.8803 46.5813ZM41.1466 46.9557C41.0556 46.8174 40.9653 46.6924 40.8803 46.5813L35.3217 50.836C35.3189 50.8323 35.3111 50.8219 35.3 50.805L41.1466 46.9557ZM38.6596 44.1684C38.6924 44.1579 38.7195 44.1497 38.7376 44.1443C38.7567 44.1386 38.7732 44.1339 38.7862 44.1303C38.8117 44.1231 38.8332 44.1174 38.8489 44.1133L40.6154 50.8868C40.6288 50.8832 40.7076 50.8629 40.8058 50.8313L38.6596 44.1684ZM40.5513 50.9028L40.5549 50.9019L38.9105 44.0978L38.9069 44.0987L40.5513 50.9028ZM38.9322 44.0927L38.9292 44.0934L40.5291 50.9081L40.5321 50.9074L38.9322 44.0927ZM39.1099 50.3783C39.1099 48.1692 37.319 46.3783 35.1099 46.3783V53.3783C33.453 53.3783 32.1099 52.0352 32.1099 50.3783H39.1099ZM39.1099 51.2753V50.3783H32.1099V51.2753H39.1099ZM35.6099 54.7753H36.0877V47.7753H35.6099V54.7753ZM36.0877 54.7753C34.4308 54.7753 33.0877 53.4321 33.0877 51.7753H40.0877C40.0877 49.5661 38.2968 47.7753 36.0877 47.7753V54.7753ZM33.0877 51.7753C33.0877 50.1184 34.4308 48.7753 36.0877 48.7753V55.7753C38.2968 55.7753 40.0877 53.9844 40.0877 51.7753H33.0877ZM36.0877 48.7753H35.6099V55.7753H36.0877V48.7753ZM39.1099 53.1722V52.2753H32.1099V53.1722H39.1099ZM35.1099 57.1722C37.319 57.1722 39.1099 55.3814 39.1099 53.1722H32.1099C32.1099 51.5154 33.453 50.1722 35.1099 50.1722V57.1722ZM31.1099 53.1722C31.1099 55.3814 32.9007 57.1722 35.1099 57.1722V50.1722C36.7667 50.1722 38.1099 51.5154 38.1099 53.1722H31.1099ZM31.1099 52.2753V53.1722H38.1099V52.2753H31.1099ZM34.6099 48.7753H33.9224V55.7753H34.6099V48.7753ZM33.9224 48.7753C35.5792 48.7753 36.9224 50.1184 36.9224 51.7753H29.9224C29.9224 53.9844 31.7132 55.7753 33.9224 55.7753V48.7753ZM36.9224 51.7753C36.9224 53.4321 35.5792 54.7753 33.9224 54.7753V47.7753C31.7132 47.7753 29.9224 49.5661 29.9224 51.7753H36.9224ZM33.9224 54.7753H34.6099V47.7753H33.9224V54.7753ZM31.1099 50.3783V51.2753H38.1099V50.3783H31.1099ZM35.1099 46.3783C32.9007 46.3783 31.1099 48.1692 31.1099 50.3783H38.1099C38.1099 52.0352 36.7667 53.3783 35.1099 53.3783V46.3783Z" fill="#EEF0DE" mask="url(#path-8-inside-1_2514_7823)"/>
</svg>
