<svg width="70" height="70" viewBox="0 0 70 70" fill="none" xmlns="http://www.w3.org/2000/svg">
<path d="M17.0001 32.5C6.5 44 8.00007 42.5 5.00011 44.5C2.5 45.5 4.99996 53 13.5001 49C14.8335 48.5 18.1001 46 20.5001 40" stroke="black" stroke-width="3.5" stroke-linecap="round"/>
<path d="M53.0001 32.5C63.5002 44 62.0002 42.5 65.0001 44.5C67.5002 45.5 65.0003 53 56.5001 49C55.1668 48.5 51.9001 46 49.5001 40" stroke="black" stroke-width="3.5" stroke-linecap="round"/>
<path d="M19.5001 26C23.9001 14 33 5.49998 35.5 4.49998C36.3 3.69998 40.1667 7.49998 42 9.49998C45.8808 13.7335 49.5 21.6667 51 25.5C64.2 30.7 67.5 33.7 66 34C62 34.8 59.5 34 55.5 32.5C50.5 30.5 29 31 28 31C23.2 31 13 33.3333 8.50006 34.5C4.50006 35.3 4.16672 34.1666 4.50006 33.5C5.30006 31.5 14.8334 27.6666 19.5001 26Z" stroke="black" stroke-width="3.5"/>
<path d="M22.5001 32C21.0001 35.8333 19 42 22.5001 46.5C22.5001 46.5 24.5 49.5 35.0001 49.5" stroke="black" stroke-width="3.5" stroke-linecap="round"/>
<circle cx="28" cy="40" r="2" fill="black"/>
<circle cx="42" cy="40" r="2" fill="black"/>
<path d="M31.5 62L28.5 65.5C31 66.8333 38.5 67 41 65.5L38 62" stroke="black" stroke-width="3.5" stroke-linecap="round" stroke-linejoin="round"/>
<mask id="path-9-inside-1_2374_7584" fill="white">
<path fill-rule="evenodd" clip-rule="evenodd" d="M45 53C45 58.5228 40.5228 63 35 63C29.4772 63 25 58.5228 25 53C25 47.4772 29.4772 43 35 43C40.5228 43 45 47.4772 45 53ZM40.0573 46.5C40.3335 46.5034 40.5546 46.73 40.5512 47.0061C40.5506 47.0555 40.5506 47.1081 40.5508 47.1632C40.584 47.2189 40.6068 47.2819 40.6163 47.3501C40.7201 48.0951 40.8233 48.608 41.2448 48.9529C41.4418 49.114 41.694 49.2502 41.9655 49.3737C41.9837 49.3819 41.9993 49.3881 42.0226 49.3974C42.0366 49.4029 42.0533 49.4096 42.0751 49.4185L42.0802 49.4205C42.1103 49.4326 42.2125 49.4735 42.2939 49.539L42.295 49.5399C42.3229 49.5623 42.5139 49.7157 42.4923 49.9893C42.4693 50.2803 42.2347 50.3989 42.1987 50.417C42.0854 50.474 41.9486 50.4928 41.8656 50.5032C41.8611 50.5064 41.8517 50.5136 41.8358 50.5282C41.8228 50.54 41.8087 50.5537 41.789 50.5731L41.7816 50.5804C41.7646 50.5972 41.7431 50.6184 41.7211 50.6392C41.6687 50.6887 41.5985 50.7507 41.509 50.8082C41.3527 50.9087 41.2229 51.1516 41.1573 51.5949C41.1046 51.951 41.107 52.3285 41.1092 52.671V52.6715C41.1096 52.7382 41.11 52.8036 41.11 52.8672C41.11 53.1434 40.8862 53.3672 40.61 53.3672C40.5864 53.3672 40.5631 53.3656 40.5403 53.3624C40.5174 53.3656 40.4941 53.3673 40.4703 53.3673C40.1942 53.3673 39.9703 53.1434 39.9703 52.8673C39.9703 52.8021 39.9427 52.718 39.8528 52.5246L39.8352 52.4871C39.761 52.3293 39.6429 52.0782 39.6225 51.8021C39.6144 51.6927 39.5436 51.5242 39.3846 51.3165C39.2334 51.119 39.0409 50.936 38.8774 50.8052C38.6703 50.6395 38.4191 50.5102 38.1367 50.3986C38.1381 50.3991 38.1377 50.399 38.1342 50.3981L38.1342 50.398C38.1282 50.3963 38.1129 50.392 38.0808 50.3837L38.0729 50.3817C38.04 50.3733 37.9696 50.3552 37.9096 50.3311L37.9092 50.331C37.8839 50.3208 37.7975 50.2861 37.7186 50.2105C37.6746 50.1684 37.6055 50.0876 37.5737 49.9638C37.5384 49.8261 37.5644 49.6948 37.6186 49.5934C37.7009 49.4395 37.8368 49.3732 37.8682 49.3579L37.8702 49.3569C37.9234 49.3308 37.978 49.3125 38.0229 49.2991C38.3663 49.197 38.7815 49.0205 39.084 48.8428C39.3316 48.6974 39.4486 48.4865 39.506 48.1758C39.5538 47.9169 39.5525 47.6479 39.5509 47.3361V47.336C39.5504 47.2276 39.5498 47.114 39.5513 46.9939C39.5546 46.7178 39.7812 46.4967 40.0573 46.5ZM40.3009 50.8803C40.4184 50.5351 40.6165 50.1969 40.959 49.973C40.8398 49.8991 40.7223 49.8175 40.6116 49.7269C40.4185 49.5689 40.2662 49.3922 40.145 49.2053C40.0095 49.3936 39.8294 49.5648 39.5904 49.7051C39.4957 49.7607 39.3939 49.8154 39.288 49.8682C39.3608 49.9167 39.4324 49.9686 39.5021 50.0244C39.7126 50.1927 39.967 50.4321 40.1787 50.7086C40.2197 50.7623 40.261 50.8197 40.3009 50.8803ZM41.8098 49.5C41.81 49.5 41.8102 49.4999 41.8103 49.4999L41.8068 49.5007L41.8098 49.5ZM37.1875 51.8783C37.4636 51.8783 37.6875 52.1022 37.6875 52.3783V53.2753H38.1653C38.4414 53.2753 38.6653 53.4991 38.6653 53.7753C38.6653 54.0514 38.4414 54.2753 38.1653 54.2753H37.6875V55.1722C37.6875 55.4484 37.4636 55.6722 37.1875 55.6722C36.9114 55.6722 36.6875 55.4484 36.6875 55.1722V54.2753H36C35.7239 54.2753 35.5 54.0514 35.5 53.7753C35.5 53.4991 35.7239 53.2753 36 53.2753H36.6875V52.3783C36.6875 52.1022 36.9114 51.8783 37.1875 51.8783Z"/>
</mask>
<path fill-rule="evenodd" clip-rule="evenodd" d="M45 53C45 58.5228 40.5228 63 35 63C29.4772 63 25 58.5228 25 53C25 47.4772 29.4772 43 35 43C40.5228 43 45 47.4772 45 53ZM40.0573 46.5C40.3335 46.5034 40.5546 46.73 40.5512 47.0061C40.5506 47.0555 40.5506 47.1081 40.5508 47.1632C40.584 47.2189 40.6068 47.2819 40.6163 47.3501C40.7201 48.0951 40.8233 48.608 41.2448 48.9529C41.4418 49.114 41.694 49.2502 41.9655 49.3737C41.9837 49.3819 41.9993 49.3881 42.0226 49.3974C42.0366 49.4029 42.0533 49.4096 42.0751 49.4185L42.0802 49.4205C42.1103 49.4326 42.2125 49.4735 42.2939 49.539L42.295 49.5399C42.3229 49.5623 42.5139 49.7157 42.4923 49.9893C42.4693 50.2803 42.2347 50.3989 42.1987 50.417C42.0854 50.474 41.9486 50.4928 41.8656 50.5032C41.8611 50.5064 41.8517 50.5136 41.8358 50.5282C41.8228 50.54 41.8087 50.5537 41.789 50.5731L41.7816 50.5804C41.7646 50.5972 41.7431 50.6184 41.7211 50.6392C41.6687 50.6887 41.5985 50.7507 41.509 50.8082C41.3527 50.9087 41.2229 51.1516 41.1573 51.5949C41.1046 51.951 41.107 52.3285 41.1092 52.671V52.6715C41.1096 52.7382 41.11 52.8036 41.11 52.8672C41.11 53.1434 40.8862 53.3672 40.61 53.3672C40.5864 53.3672 40.5631 53.3656 40.5403 53.3624C40.5174 53.3656 40.4941 53.3673 40.4703 53.3673C40.1942 53.3673 39.9703 53.1434 39.9703 52.8673C39.9703 52.8021 39.9427 52.718 39.8528 52.5246L39.8352 52.4871C39.761 52.3293 39.6429 52.0782 39.6225 51.8021C39.6144 51.6927 39.5436 51.5242 39.3846 51.3165C39.2334 51.119 39.0409 50.936 38.8774 50.8052C38.6703 50.6395 38.4191 50.5102 38.1367 50.3986C38.1381 50.3991 38.1377 50.399 38.1342 50.3981L38.1342 50.398C38.1282 50.3963 38.1129 50.392 38.0808 50.3837L38.0729 50.3817C38.04 50.3733 37.9696 50.3552 37.9096 50.3311L37.9092 50.331C37.8839 50.3208 37.7975 50.2861 37.7186 50.2105C37.6746 50.1684 37.6055 50.0876 37.5737 49.9638C37.5384 49.8261 37.5644 49.6948 37.6186 49.5934C37.7009 49.4395 37.8368 49.3732 37.8682 49.3579L37.8702 49.3569C37.9234 49.3308 37.978 49.3125 38.0229 49.2991C38.3663 49.197 38.7815 49.0205 39.084 48.8428C39.3316 48.6974 39.4486 48.4865 39.506 48.1758C39.5538 47.9169 39.5525 47.6479 39.5509 47.3361V47.336C39.5504 47.2276 39.5498 47.114 39.5513 46.9939C39.5546 46.7178 39.7812 46.4967 40.0573 46.5ZM40.3009 50.8803C40.4184 50.5351 40.6165 50.1969 40.959 49.973C40.8398 49.8991 40.7223 49.8175 40.6116 49.7269C40.4185 49.5689 40.2662 49.3922 40.145 49.2053C40.0095 49.3936 39.8294 49.5648 39.5904 49.7051C39.4957 49.7607 39.3939 49.8154 39.288 49.8682C39.3608 49.9167 39.4324 49.9686 39.5021 50.0244C39.7126 50.1927 39.967 50.4321 40.1787 50.7086C40.2197 50.7623 40.261 50.8197 40.3009 50.8803ZM41.8098 49.5C41.81 49.5 41.8102 49.4999 41.8103 49.4999L41.8068 49.5007L41.8098 49.5ZM37.1875 51.8783C37.4636 51.8783 37.6875 52.1022 37.6875 52.3783V53.2753H38.1653C38.4414 53.2753 38.6653 53.4991 38.6653 53.7753C38.6653 54.0514 38.4414 54.2753 38.1653 54.2753H37.6875V55.1722C37.6875 55.4484 37.4636 55.6722 37.1875 55.6722C36.9114 55.6722 36.6875 55.4484 36.6875 55.1722V54.2753H36C35.7239 54.2753 35.5 54.0514 35.5 53.7753C35.5 53.4991 35.7239 53.2753 36 53.2753H36.6875V52.3783C36.6875 52.1022 36.9114 51.8783 37.1875 51.8783Z" fill="black"/>
<path d="M40.5512 47.0061L37.0515 46.9634V46.9634L40.5512 47.0061ZM40.5508 47.1632L37.0509 47.1778L37.0548 48.1337L37.5442 48.955L40.5508 47.1632ZM40.6163 47.3501L44.0828 46.867L44.0828 46.867L40.6163 47.3501ZM41.2448 48.9529L43.4612 46.2441L43.4612 46.2441L41.2448 48.9529ZM41.9655 49.3737L40.5172 52.5599L40.5173 52.5599L41.9655 49.3737ZM42.0226 49.3974L43.3161 46.1452L43.3161 46.1451L42.0226 49.3974ZM42.0751 49.4185L40.7528 52.6591L40.7605 52.6622L40.7683 52.6654L42.0751 49.4185ZM42.0802 49.4205L40.7734 52.6674L40.7788 52.6696L42.0802 49.4205ZM42.2939 49.539L40.0984 52.2648L40.1019 52.2677L42.2939 49.539ZM42.295 49.5399L40.1031 52.2686L40.1041 52.2694L42.295 49.5399ZM42.4923 49.9893L45.9814 50.2648V50.2648L42.4923 49.9893ZM42.1987 50.417L40.6266 47.29L40.6266 47.29L42.1987 50.417ZM41.8656 50.5032L41.4304 47.0304L40.5596 47.1395L39.8434 47.6465L41.8656 50.5032ZM41.8358 50.5282L39.4728 47.9463L39.4726 47.9464L41.8358 50.5282ZM41.789 50.5731L39.3342 48.0783L39.3332 48.0793L41.789 50.5731ZM41.7816 50.5804L39.3258 48.0866L39.3252 48.0872L41.7816 50.5804ZM41.7211 50.6392L39.3165 48.096L39.3164 48.096L41.7211 50.6392ZM41.509 50.8082L39.6164 47.8641L39.6164 47.8641L41.509 50.8082ZM41.1573 51.5949L37.695 51.0825L37.695 51.0825L41.1573 51.5949ZM41.1092 52.671H44.6092V52.6598L44.6091 52.6486L41.1092 52.671ZM41.1092 52.6715H37.6092V52.6827L37.6093 52.6939L41.1092 52.6715ZM40.5403 53.3624L41.0242 49.896L40.5397 49.8284L40.0552 49.8962L40.5403 53.3624ZM39.8528 52.5246L43.0266 51.049L43.0221 51.0394L39.8528 52.5246ZM39.8352 52.4871L43.0045 51.0019L43.0024 50.9974L39.8352 52.4871ZM39.6225 51.8021L43.1129 51.5436L43.1129 51.5436L39.6225 51.8021ZM39.3846 51.3165L36.6053 53.4438L36.6053 53.4438L39.3846 51.3165ZM38.8774 50.8052L41.0639 48.0722L41.0639 48.0722L38.8774 50.8052ZM38.1367 50.3986L39.4232 47.1436L36.8499 53.6535L38.1367 50.3986ZM38.1342 50.3981L37.1727 53.7634L37.1841 53.7666L38.1342 50.3981ZM38.1342 50.398L39.0957 47.0327L39.0841 47.0294L38.1342 50.398ZM38.0808 50.3837L38.9578 46.9954L38.9515 46.9938L38.0808 50.3837ZM38.0729 50.3817L38.9436 46.9917L38.9411 46.9911L38.0729 50.3817ZM37.9096 50.3311L39.2152 47.0838L39.2145 47.0835L37.9096 50.3311ZM37.9092 50.331L36.6038 53.5784L36.6043 53.5786L37.9092 50.331ZM37.7186 50.2105L40.1389 47.6823L40.1389 47.6822L37.7186 50.2105ZM37.5737 49.9638L34.1834 50.8333L34.1834 50.8333L37.5737 49.9638ZM37.6186 49.5934L40.7053 51.2435L40.7053 51.2434L37.6186 49.5934ZM37.8682 49.3579L39.4028 52.5035L39.4051 52.5024L37.8682 49.3579ZM37.8702 49.3569L39.4071 52.5014L39.4109 52.4995L37.8702 49.3569ZM38.0229 49.2991L39.0202 52.654L39.0203 52.654L38.0229 49.2991ZM39.084 48.8428L40.8565 51.8608H40.8565L39.084 48.8428ZM39.506 48.1758L36.0643 47.5398L36.0643 47.5398L39.506 48.1758ZM39.5509 47.3361H36.0509V47.3449L36.051 47.3537L39.5509 47.3361ZM39.5509 47.336H43.0509V47.3272L43.0509 47.3184L39.5509 47.336ZM39.5513 46.9939L43.051 47.0366L39.5513 46.9939ZM40.959 49.973L42.8742 52.9026L47.4776 49.8932L42.8019 46.9975L40.959 49.973ZM40.3009 50.8803L37.3776 52.805L41.3102 58.7779L43.6143 52.008L40.3009 50.8803ZM40.6116 49.7269L38.3953 52.4357L38.3953 52.4357L40.6116 49.7269ZM40.145 49.2053L43.081 47.3001L40.2944 43.006L37.3042 47.1608L40.145 49.2053ZM39.5904 49.7051L41.3629 52.7231L41.3629 52.7231L39.5904 49.7051ZM39.288 49.8682L37.7283 46.7349L32.3152 49.4295L37.348 52.7813L39.288 49.8682ZM39.5021 50.0244L41.6886 47.2913L41.6886 47.2913L39.5021 50.0244ZM40.1787 50.7086L42.9579 48.5813L42.9579 48.5813L40.1787 50.7086ZM41.8103 49.4999L42.8834 52.8313L40.9881 46.0978L41.8103 49.4999ZM41.8098 49.5L42.6097 52.9074L42.6515 52.8976L42.693 52.8868L41.8098 49.5ZM41.8068 49.5007L40.9846 46.0987L42.6067 52.9081L41.8068 49.5007ZM37.6875 53.2753H34.1875V56.7753H37.6875V53.2753ZM37.6875 54.2753V50.7753H34.1875V54.2753H37.6875ZM36.6875 54.2753H40.1875V50.7753H36.6875V54.2753ZM36.6875 53.2753V56.7753H40.1875V53.2753H36.6875ZM35 66.5C42.4558 66.5 48.5 60.4558 48.5 53H41.5C41.5 56.5899 38.5899 59.5 35 59.5V66.5ZM21.5 53C21.5 60.4558 27.5442 66.5 35 66.5V59.5C31.4101 59.5 28.5 56.5899 28.5 53H21.5ZM35 39.5C27.5442 39.5 21.5 45.5442 21.5 53H28.5C28.5 49.4101 31.4101 46.5 35 46.5V39.5ZM48.5 53C48.5 45.5442 42.4558 39.5 35 39.5V46.5C38.5899 46.5 41.5 49.4101 41.5 53H48.5ZM44.0509 47.0488C44.0779 44.8398 42.309 43.0272 40.1 43.0003L40.0147 49.9998C38.3579 49.9796 37.0313 48.6202 37.0515 46.9634L44.0509 47.0488ZM44.0508 47.1487C44.0506 47.1009 44.0507 47.0702 44.0509 47.0488L37.0515 46.9634C37.0505 47.0409 37.0506 47.1153 37.0509 47.1778L44.0508 47.1487ZM44.0828 46.867C44.0077 46.328 43.8253 45.821 43.5574 45.3715L37.5442 48.955C37.3426 48.6167 37.2059 48.2358 37.1498 47.8331L44.0828 46.867ZM43.4612 46.2441C43.6401 46.3904 43.794 46.5643 43.9151 46.7499C44.0313 46.9281 44.0917 47.078 44.1192 47.1576C44.1446 47.2309 44.1461 47.2569 44.1343 47.1965C44.1222 47.1343 44.1067 47.0387 44.0828 46.867L37.1498 47.8331C37.2241 48.3662 37.3929 50.3235 39.0285 51.6618L43.4612 46.2441ZM43.4139 46.1874C43.3804 46.1722 43.3558 46.1603 43.3385 46.1516C43.3212 46.1429 43.3143 46.1389 43.316 46.1399C43.3175 46.1407 43.3313 46.1487 43.3546 46.1643C43.3777 46.1799 43.4147 46.2061 43.4612 46.2441L39.0285 51.6618C39.5735 52.1076 40.1472 52.3917 40.5172 52.5599L43.4139 46.1874ZM43.3161 46.1451C43.3092 46.1424 43.3086 46.1422 43.3089 46.1423C43.3098 46.1427 43.3161 46.1452 43.3252 46.1489C43.3463 46.1576 43.3772 46.1707 43.4138 46.1874L40.5173 52.5599C40.6244 52.6086 40.7177 52.6451 40.7291 52.6496L43.3161 46.1451ZM43.3974 46.1779C43.3602 46.1627 43.3312 46.1512 43.3161 46.1452L40.7291 52.6496C40.7419 52.6547 40.7464 52.6565 40.7528 52.6591L43.3974 46.1779ZM43.387 46.1736L43.3819 46.1716L40.7683 52.6654L40.7734 52.6674L43.387 46.1736ZM44.4893 46.8132C43.9569 46.3844 43.4059 46.1812 43.3816 46.1715L40.7788 52.6696C40.7806 52.6703 40.7536 52.6596 40.7197 52.6449C40.6866 52.6305 40.6425 52.6104 40.5907 52.5843C40.5057 52.5413 40.3174 52.4412 40.0984 52.2648L44.4893 46.8132ZM44.4869 46.8113L44.4858 46.8104L40.1019 52.2677L40.1031 52.2686L44.4869 46.8113ZM45.9814 50.2648C46.1517 48.1086 44.6375 46.9322 44.4859 46.8105L40.1041 52.2694C40.1043 52.2696 40.0897 52.2579 40.0715 52.2429C40.053 52.2276 40.0314 52.2093 40.0075 52.1884C39.9598 52.1466 39.9058 52.0967 39.8483 52.0384C39.736 51.9245 39.6005 51.7686 39.47 51.5661C39.1967 51.1418 38.9414 50.4966 39.0032 49.7138L45.9814 50.2648ZM43.7709 53.544C43.9274 53.4654 45.7997 52.567 45.9814 50.2648L39.0032 49.7138C39.0684 48.8877 39.459 48.2607 39.8341 47.8727C40.0107 47.69 40.1829 47.5591 40.3198 47.4681C40.39 47.4215 40.4548 47.3828 40.5112 47.3512C40.5395 47.3354 40.565 47.3217 40.5868 47.3104C40.5975 47.3048 40.6069 47.3 40.6143 47.2962C40.6213 47.2926 40.6268 47.2899 40.6266 47.29L43.7709 53.544ZM42.3008 53.976C42.3481 53.9701 43.0521 53.9054 43.7709 53.544L40.6266 47.29C40.9161 47.1444 41.154 47.0849 41.2575 47.0618C41.3702 47.0366 41.4532 47.0275 41.4304 47.0304L42.3008 53.976ZM44.1987 53.1101C44.1422 53.1619 44.0359 53.255 43.8878 53.3599L39.8434 47.6465C39.6862 47.7578 39.5613 47.8652 39.4728 47.9463L44.1987 53.1101ZM44.2438 53.068C44.2508 53.061 44.2489 53.063 44.2429 53.0687C44.2363 53.0751 44.2205 53.0902 44.1989 53.11L39.4726 47.9464C39.4084 48.0052 39.3544 48.0585 39.3342 48.0783L44.2438 53.068ZM44.2374 53.0743L44.2448 53.067L39.3332 48.0793L39.3258 48.0866L44.2374 53.0743ZM44.1257 53.1824C44.1777 53.1332 44.2237 53.0877 44.238 53.0736L39.3252 48.0872C39.3207 48.0916 39.3179 48.0944 39.3153 48.097C39.3128 48.0994 39.3113 48.1009 39.3104 48.1017C39.3083 48.1038 39.3108 48.1014 39.3165 48.096L44.1257 53.1824ZM43.4017 53.7523C43.7491 53.529 43.9974 53.3037 44.1257 53.1824L39.3164 48.096C39.34 48.0738 39.4479 47.9724 39.6164 47.8641L43.4017 53.7523ZM44.6196 52.1073C44.6186 52.1138 44.612 52.1566 44.5926 52.2273C44.5734 52.2969 44.5367 52.4122 44.4694 52.5561C44.343 52.8262 44.0382 53.3432 43.4017 53.7523L39.6164 47.8641C38.1148 48.8294 37.7918 50.4282 37.695 51.0825L44.6196 52.1073ZM44.6091 52.6486C44.608 52.4676 44.6076 52.3529 44.6109 52.2479C44.6124 52.1999 44.6144 52.1648 44.6164 52.1398C44.6184 52.1147 44.6199 52.1048 44.6196 52.1073L37.695 51.0825C37.5962 51.75 37.6074 52.3997 37.6093 52.6935L44.6091 52.6486ZM44.6092 52.6715V52.671H37.6092V52.6715H44.6092ZM44.61 52.8672C44.61 52.7904 44.6095 52.7136 44.6091 52.6491L37.6093 52.6939C37.6097 52.7628 37.61 52.8168 37.61 52.8672H44.61ZM40.61 56.8672C42.8192 56.8672 44.61 55.0764 44.61 52.8672H37.61C37.61 51.2104 38.9532 49.8672 40.61 49.8672V56.8672ZM40.0563 56.8288C40.2389 56.8543 40.4239 56.8672 40.61 56.8672V49.8672C40.7488 49.8672 40.8872 49.8769 41.0242 49.896L40.0563 56.8288ZM40.4703 56.8673C40.6569 56.8673 40.8423 56.8542 41.0253 56.8286L40.0552 49.8962C40.1926 49.877 40.3313 49.8673 40.4703 49.8673V56.8673ZM36.4703 52.8673C36.4703 55.0764 38.2612 56.8673 40.4703 56.8673V49.8673C42.1272 49.8673 43.4703 51.2104 43.4703 52.8673H36.4703ZM36.6791 54.0003C36.7121 54.0713 36.6763 54.0021 36.6317 53.8711C36.5808 53.7213 36.4703 53.3566 36.4703 52.8673H43.4703C43.4703 51.8976 43.0543 51.1086 43.0265 51.049L36.6791 54.0003ZM36.666 53.9723L36.6836 54.0099L43.0221 51.0394L43.0045 51.0019L36.666 53.9723ZM36.132 52.0607C36.2066 53.0676 36.6167 53.8676 36.6681 53.9768L43.0024 50.9974C42.9626 50.9129 42.9847 50.9551 43.0086 51.0226C43.0332 51.0922 43.0931 51.2767 43.1129 51.5436L36.132 52.0607ZM36.6053 53.4438C36.5648 53.3909 36.4816 53.2738 36.3947 53.0896C36.3209 52.9332 36.17 52.5731 36.132 52.0607L43.1129 51.5436C43.0304 50.4294 42.4788 49.6006 42.1639 49.1891L36.6053 53.4438ZM36.691 53.5383C36.6784 53.5282 36.674 53.5239 36.6705 53.5204C36.6676 53.5176 36.6613 53.5111 36.6517 53.5004C36.6423 53.4898 36.6262 53.4712 36.6053 53.4438L42.1639 49.1891C41.801 48.7151 41.3918 48.3345 41.0639 48.0722L36.691 53.5383ZM36.8499 53.6535C36.8944 53.671 36.8968 53.6745 36.8716 53.6609C36.8455 53.6469 36.7788 53.6085 36.691 53.5383L41.0639 48.0722C40.4843 47.6085 39.8839 47.3258 39.4235 47.1437L36.8499 53.6535ZM37.1841 53.7666C37.1842 53.7666 37.186 53.7672 37.188 53.7677C37.1898 53.7682 37.1947 53.7696 37.2009 53.7713C37.2059 53.7727 37.2195 53.7765 37.2368 53.7811C37.2457 53.7834 37.2947 53.7966 37.3576 53.8109C37.3837 53.8169 37.4637 53.8351 37.5673 53.8522C37.6168 53.8603 37.7216 53.8767 37.8556 53.8876C37.9054 53.8916 38.3098 53.9315 38.8088 53.8339C39.0164 53.7934 39.7338 53.6438 40.4228 53.0498C40.8153 52.7114 41.2177 52.2098 41.45 51.5291C41.6827 50.8469 41.6714 50.1991 41.5633 49.6823C41.3738 48.7763 40.8813 48.2155 40.7379 48.0563C40.5351 47.8313 40.347 47.682 40.2546 47.6118C40.0634 47.4666 39.8998 47.3743 39.8457 47.3441C39.771 47.3023 39.7096 47.2716 39.6749 47.2547C39.6056 47.2208 39.5502 47.1966 39.5286 47.1873C39.5015 47.1755 39.4797 47.1665 39.4677 47.1616C39.4446 47.1521 39.4263 47.1448 39.4232 47.1436L36.8503 53.6536C36.8475 53.6525 36.8294 53.6454 36.8066 53.636C36.7947 53.6311 36.773 53.6221 36.746 53.6104C36.7245 53.6011 36.6692 53.577 36.5999 53.5431C36.5652 53.5261 36.5039 53.4955 36.4291 53.4537C36.3751 53.4235 36.2115 53.3312 36.0203 53.186C35.9279 53.1158 35.7398 52.9666 35.5371 52.7415C35.3936 52.5823 34.9011 52.0216 34.7116 51.1155C34.6035 50.5987 34.5922 49.951 34.8249 49.2688C35.0572 48.5881 35.4596 48.0864 35.8521 47.748C36.5412 47.154 37.2585 47.0045 37.4661 46.9639C37.9651 46.8664 38.3695 46.9063 38.4193 46.9103C38.5533 46.9211 38.6581 46.9375 38.7075 46.9457C38.811 46.9628 38.8909 46.9809 38.917 46.9869C39.0293 47.0125 39.1615 47.0512 39.0843 47.0295L37.1841 53.7666ZM37.1727 53.7634L37.1727 53.7634L39.0957 47.0327L39.0957 47.0327L37.1727 53.7634ZM37.2038 53.7721C37.2082 53.7732 37.207 53.7729 37.2013 53.7714C37.1984 53.7706 37.1949 53.7697 37.191 53.7686C37.1869 53.7674 37.1837 53.7665 37.1843 53.7667L39.0841 47.0294C39.0572 47.0218 39.0174 47.0108 38.9578 46.9954L37.2038 53.7721ZM37.2022 53.7717L37.2101 53.7737L38.9515 46.9938L38.9436 46.9917L37.2022 53.7717ZM36.604 53.5785C36.9093 53.7012 37.1963 53.7702 37.2047 53.7723L38.9411 46.9911C38.9267 46.9874 38.9526 46.9938 38.9871 47.004C39.0056 47.0094 39.0334 47.0179 39.0682 47.0295C39.102 47.0408 39.1528 47.0587 39.2152 47.0838L36.604 53.5785ZM36.6043 53.5786L36.6048 53.5788L39.2145 47.0835L39.2141 47.0833L36.6043 53.5786ZM35.2983 52.7388C35.8787 53.2944 36.4828 53.5298 36.6038 53.5784L39.2146 47.0835C39.2124 47.0826 39.2293 47.0894 39.2504 47.0982C39.2723 47.1074 39.2991 47.119 39.3296 47.1329C39.3903 47.1605 39.4635 47.1963 39.5447 47.2418C39.7011 47.3295 39.916 47.4689 40.1389 47.6823L35.2983 52.7388ZM34.1834 50.8333C34.4321 51.8029 34.9718 52.4263 35.2983 52.7388L40.1389 47.6822C40.3774 47.9105 40.7788 48.3724 40.964 49.0943L34.1834 50.8333ZM34.5319 47.9434C34.1145 48.7244 33.9058 49.7507 34.1834 50.8333L40.964 49.0943C41.171 49.9015 41.0143 50.6652 40.7053 51.2435L34.5319 47.9434ZM36.3336 46.2122C36.1633 46.2953 35.1605 46.7675 34.5319 47.9435L40.7053 51.2434C40.4653 51.6923 40.1582 51.993 39.9204 52.1793C39.7995 52.2739 39.6871 52.3466 39.5933 52.4014C39.5459 52.4291 39.5031 52.4523 39.467 52.4711C39.4313 52.4897 39.4025 52.5036 39.4028 52.5035L36.3336 46.2122ZM36.3333 46.2123L36.3313 46.2133L39.4051 52.5024L39.4071 52.5014L36.3333 46.2123ZM37.0255 45.9443C36.8983 45.9821 36.6338 46.065 36.3296 46.2142L39.4109 52.4995C39.3058 52.551 39.2172 52.5863 39.1554 52.609C39.0929 52.6319 39.0444 52.6468 39.0202 52.654L37.0255 45.9443ZM37.3116 45.8248C37.3169 45.8217 37.3074 45.8274 37.2819 45.8401C37.2573 45.8523 37.2259 45.8669 37.1898 45.8824C37.1109 45.9162 37.0493 45.9372 37.0255 45.9443L39.0203 52.654C39.6116 52.4782 40.2903 52.1934 40.8565 51.8608L37.3116 45.8248ZM36.0643 47.5398C36.0845 47.4304 36.1545 47.1132 36.3835 46.7402C36.6354 46.33 36.9732 46.0235 37.3115 45.8248L40.8565 51.8608C42.2302 51.054 42.7661 49.7948 42.9477 48.8118L36.0643 47.5398ZM36.051 47.3537C36.0514 47.4352 36.0516 47.4918 36.0514 47.5432C36.0511 47.5927 36.0504 47.6215 36.0497 47.6383C36.0483 47.6727 36.0481 47.6272 36.0643 47.5398L42.9477 48.8118C43.0665 48.1691 43.0521 47.5561 43.0509 47.3185L36.051 47.3537ZM36.0509 47.336V47.3361H43.0509V47.336H36.0509ZM36.0515 46.9512C36.0497 47.1059 36.0504 47.2486 36.051 47.3536L43.0509 47.3184C43.0503 47.2066 43.05 47.1221 43.051 47.0366L36.0515 46.9512ZM40.1 43.0003C37.891 42.9734 36.0785 44.7423 36.0515 46.9512L43.051 47.0366C43.0308 48.6933 41.6714 50.02 40.0147 49.9998L40.1 43.0003ZM39.0439 47.0435C37.829 47.8377 37.2576 48.9593 36.9876 49.7526L43.6143 52.008C43.5793 52.1108 43.404 52.5562 42.8742 52.9026L39.0439 47.0435ZM38.3953 52.4357C38.6449 52.64 38.8912 52.8092 39.1162 52.9486L42.8019 46.9975C42.7958 46.9937 42.7952 46.9931 42.7993 46.996C42.8033 46.9988 42.8132 47.006 42.8279 47.018L38.3953 52.4357ZM37.209 51.1106C37.514 51.5806 37.904 52.0338 38.3953 52.4357L42.8279 47.018C42.933 47.104 43.0185 47.2039 43.081 47.3001L37.209 51.1106ZM41.3629 52.7231C42.0265 52.3334 42.569 51.8289 42.9857 51.2498L37.3042 47.1608C37.45 46.9582 37.6322 46.7962 37.818 46.6871L41.3629 52.7231ZM40.8477 53.0014C41.0161 52.9176 41.1899 52.8247 41.3629 52.7231L37.818 46.6871C37.8016 46.6967 37.7717 46.7133 37.7283 46.7349L40.8477 53.0014ZM41.6886 47.2913C41.5341 47.1677 41.3798 47.0561 41.2281 46.9551L37.348 52.7813C37.3419 52.7772 37.3307 52.7695 37.3157 52.7574L41.6886 47.2913ZM42.9579 48.5813C42.5346 48.0283 42.0635 47.5913 41.6886 47.2913L37.3157 52.7574C37.3294 52.7684 37.3519 52.7878 37.3748 52.8105C37.3854 52.821 37.3933 52.8295 37.3984 52.8352C37.4036 52.841 37.4036 52.8415 37.3994 52.836L42.9579 48.5813ZM43.2242 48.9557C43.1332 48.8174 43.0429 48.6924 42.9579 48.5813L37.3994 52.836C37.3965 52.8323 37.3888 52.8219 37.3776 52.805L43.2242 48.9557ZM40.7372 46.1684C40.77 46.1579 40.7971 46.1497 40.8153 46.1443C40.8344 46.1386 40.8509 46.1339 40.8638 46.1303C40.8893 46.1231 40.9108 46.1174 40.9266 46.1133L42.693 52.8868C42.7065 52.8832 42.7852 52.8629 42.8834 52.8313L40.7372 46.1684ZM42.629 52.9028L42.6325 52.9019L40.9881 46.0978L40.9846 46.0987L42.629 52.9028ZM41.0098 46.0927L41.0068 46.0934L42.6067 52.9081L42.6097 52.9074L41.0098 46.0927ZM41.1875 52.3783C41.1875 50.1692 39.3966 48.3783 37.1875 48.3783V55.3783C35.5306 55.3783 34.1875 54.0352 34.1875 52.3783H41.1875ZM41.1875 53.2753V52.3783H34.1875V53.2753H41.1875ZM37.6875 56.7753H38.1653V49.7753H37.6875V56.7753ZM38.1653 56.7753C36.5084 56.7753 35.1653 55.4321 35.1653 53.7753H42.1653C42.1653 51.5661 40.3744 49.7753 38.1653 49.7753V56.7753ZM35.1653 53.7753C35.1653 52.1184 36.5084 50.7753 38.1653 50.7753V57.7753C40.3744 57.7753 42.1653 55.9844 42.1653 53.7753H35.1653ZM38.1653 50.7753H37.6875V57.7753H38.1653V50.7753ZM41.1875 55.1722V54.2753H34.1875V55.1722H41.1875ZM37.1875 59.1722C39.3966 59.1722 41.1875 57.3814 41.1875 55.1722H34.1875C34.1875 53.5154 35.5306 52.1722 37.1875 52.1722V59.1722ZM33.1875 55.1722C33.1875 57.3814 34.9784 59.1722 37.1875 59.1722V52.1722C38.8444 52.1722 40.1875 53.5154 40.1875 55.1722H33.1875ZM33.1875 54.2753V55.1722H40.1875V54.2753H33.1875ZM36.6875 50.7753H36V57.7753H36.6875V50.7753ZM36 50.7753C37.6569 50.7753 39 52.1184 39 53.7753H32C32 55.9844 33.7909 57.7753 36 57.7753V50.7753ZM39 53.7753C39 55.4321 37.6569 56.7753 36 56.7753V49.7753C33.7909 49.7753 32 51.5661 32 53.7753H39ZM36 56.7753H36.6875V49.7753H36V56.7753ZM33.1875 52.3783V53.2753H40.1875V52.3783H33.1875ZM37.1875 48.3783C34.9784 48.3783 33.1875 50.1692 33.1875 52.3783H40.1875C40.1875 54.0352 38.8444 55.3783 37.1875 55.3783V48.3783Z" fill="black" mask="url(#path-9-inside-1_2374_7584)"/>
<path fill-rule="evenodd" clip-rule="evenodd" d="M45.8705 32.6377C45.5183 31.7377 45.9624 30.7225 46.8625 30.3703C47.7625 30.0181 48.7776 30.4623 49.1298 31.3623C49.8915 33.3088 50.8426 35.9957 51.1171 38.8314C51.3924 41.6763 51.0001 44.8329 48.9025 47.5473C48.8877 47.5675 48.8711 47.5894 48.8527 47.6129C48.8078 47.6703 48.7519 47.737 48.6837 47.8115C48.547 47.9605 48.362 48.1391 48.1168 48.3353C47.6254 48.7284 46.9019 49.1845 45.8567 49.617C45.1617 49.9046 44.3239 50.182 43.3152 50.4241L43.5 49.5L41.5489 47.2237C42.8621 46.9747 43.8257 46.6696 44.5185 46.383C45.2858 46.0655 45.7186 45.7716 45.9304 45.6022C46.0245 45.5269 46.077 45.4746 46.0974 45.4531L46.1188 45.4256C47.5029 43.646 47.8571 41.4809 47.6333 39.1686C47.4077 36.8377 46.6088 34.5245 45.8705 32.6377ZM37.3547 47.6936C36.6279 47.73 35.8443 47.75 35 47.75C34.0335 47.75 33.25 48.5335 33.25 49.5C33.25 50.0199 33.4767 50.4868 33.8366 50.8073L34 49.5L37.3547 47.6936Z" fill="black"/>
</svg>
