<svg width="40" height="40" viewBox="0 0 40 40" fill="none" xmlns="http://www.w3.org/2000/svg">
<path d="M28.1028 7.47778L30.9153 4.66529C32.1357 3.4449 34.1143 3.4449 35.3347 4.66529C36.5551 5.88568 36.5551 7.86432 35.3347 9.08471L17.637 26.7824C16.7558 27.6636 15.6691 28.3113 14.4748 28.667L10 30L11.333 25.5252C11.6887 24.331 12.3364 23.2442 13.2175 22.363L28.1028 7.47778ZM28.1028 7.47778L32.5 11.875M30 23.3333V31.25C30 33.3211 28.3211 35 26.25 35H8.75C6.67893 35 5 33.3211 5 31.25V13.75C5 11.6789 6.67893 9.99999 8.75 9.99999H16.6667" stroke="#000" stroke-width="3" stroke-linecap="round" stroke-linejoin="round"/>
</svg>
